<svg width="24" height="23" viewBox="0 0 24 23" fill="none" xmlns="http://www.w3.org/2000/svg">
<path fill-rule="evenodd" clip-rule="evenodd" d="M17.3837 0.0458794L22.015 0L22.5941 0.430416C22.9032 0.659843 23.3583 1.19059 23.5326 1.52087L23.8715 2.16216L23.9589 9.83156C24.0082 14.1689 24.0297 16.3581 23.9247 17.5504C23.8231 18.7012 23.6586 18.8709 23.2216 19.3199L23.1732 19.3696C22.7645 19.7916 22.5385 19.979 22.0599 20.0892C21.5809 20.1995 20.83 20.2111 19.4721 20.1898C17.642 20.1612 16.6503 20.2228 15.5292 20.4372C14.1122 20.7082 13.9149 20.7993 12.705 21.7489C12.3632 22.0171 12.0062 22.2801 11.7089 22.4855C11.412 22.691 11.1508 22.8454 11.0956 22.8677C10.5658 23.0815 9.63807 23.0333 9.04725 22.7438C8.75721 22.6015 8.3495 22.2923 8.22645 22.144C8.19081 22.101 8.00379 21.8339 7.75086 21.4525C7.49793 21.071 7.16346 20.5581 6.77577 19.9583C6.00086 18.7587 5.01307 17.2118 4.037 15.6705C3.06092 14.1292 2.09559 12.5932 1.36512 11.4156C0.999888 10.8268 0.693247 10.3276 0.473521 9.96294C0.364146 9.78059 0.275767 9.63162 0.213755 9.5234C0.18104 9.46671 0.153696 9.41245 0.136118 9.379C0.120982 9.34858 0.114146 9.33535 0.120493 9.35311C-0.0845849 8.78026 -0.0215966 7.70805 0.261607 7.11818C0.397837 6.83495 0.897349 6.25185 1.40272 5.8411C1.90565 5.43192 2.54627 4.88228 2.84413 4.6027C3.09559 4.36703 3.80165 3.87 4.35292 3.55309C4.92469 3.22469 5.56092 2.83268 5.81141 2.6495C6.3495 2.25584 7.77284 1.68321 9.66932 1.14209C10.6058 0.87492 11.6644 0.534489 12.0736 0.363167C12.3558 0.245193 12.6249 0.178848 13.3676 0.132828C14.1098 0.0867996 15.3056 0.0665054 17.3837 0.0458794ZM20.6527 0.705414C20.4755 0.701073 20.2728 0.698811 20.0394 0.699184C19.3402 0.700394 18.3666 0.723072 16.9681 0.76017L12.536 0.877861L11.9657 1.48338L11.392 2.09273L11.4838 9.91346L11.4896 10.4156C11.5355 14.3277 11.5585 16.2963 11.6825 17.3804C11.747 17.9451 11.8383 18.2851 12.0072 18.5316C12.1659 18.7632 12.3724 18.8708 12.5868 18.9824L12.6283 19.004C12.9916 19.1942 13.5902 19.2565 14.6708 19.2817C15.7518 19.3069 17.2987 19.2738 19.4691 19.1863L22.1205 19.0794L22.7064 18.5095L23.3051 17.927L23.2601 10.5031C23.2479 8.49076 23.2274 6.59974 23.2045 5.1736C23.1932 4.46053 23.181 3.86383 23.1688 3.42528C23.1625 3.20601 23.1566 3.0265 23.1508 2.89063L23.1498 2.87478C23.1439 2.74846 23.1405 2.67208 23.1303 2.60409C23.0043 1.76735 22.6141 1.20105 21.9403 0.902126C21.6742 0.783993 21.3632 0.723774 20.6527 0.705414ZM13.2523 1.8235L21.3173 1.72862C21.892 1.72187 22.3646 2.21299 22.371 2.82292L22.5194 17.0523C22.5258 17.6622 22.0634 18.1643 21.4887 18.1711L13.4237 18.2659C12.8495 18.2727 12.3764 17.7816 12.37 17.1716L12.2216 2.94228C12.2152 2.33236 12.6776 1.83025 13.2523 1.8235ZM10.7567 8.52494L10.6893 1.83647L10.0175 2.01254C9.67957 2.10125 9.36073 2.33428 9.0995 2.62045C8.83778 2.90662 8.63124 3.24576 8.56971 3.60257C8.55457 3.68829 8.55897 3.73822 8.56581 3.81139L8.57118 3.87447C8.57997 3.98709 8.59413 4.13221 8.61415 4.30752C8.6537 4.65813 8.71473 5.12845 8.79041 5.6785C8.94178 6.77861 9.15223 8.1964 9.36952 9.59331C9.5868 10.9902 9.81043 12.3658 9.98817 13.3823C10.077 13.8905 10.1542 14.3084 10.2142 14.5976C10.244 14.7422 10.2694 14.8534 10.2919 14.9353L10.2933 14.9412C10.3046 14.9792 10.3129 15.0086 10.3309 15.0489L10.3353 15.06C10.3427 15.0792 10.3524 15.1038 10.4022 15.1471C10.4325 15.1732 10.496 15.213 10.58 15.2024C10.6635 15.1918 10.7221 15.1328 10.746 15.0965L10.7474 15.094C10.7518 15.085 10.7684 15.0529 10.7723 15.0427C10.7767 15.0307 10.7792 15.0227 10.7802 15.0162L10.7855 14.9903L10.788 14.9653L10.7904 14.9271L10.7919 14.8621L10.7929 14.819V14.8092C10.7938 14.719 10.7953 14.5929 10.7953 14.4333C10.7968 14.1023 10.7953 13.6281 10.7919 13.0453C10.7865 11.8795 10.7743 10.2792 10.7567 8.52494ZM22.0238 2.82699C22.0194 2.41505 21.7094 2.09283 21.3212 2.09755L13.2562 2.19218C12.8681 2.19674 12.5643 2.52626 12.5687 2.9382L12.7172 17.1676C12.7216 17.5795 13.0321 17.9017 13.4198 17.897L21.4852 17.8024C21.8729 17.7978 22.1766 17.4683 22.1723 17.0564L22.0238 2.82699ZM7.85536 3.49063L8.01551 2.34591L6.98036 2.90674L6.87001 2.96617C6.55458 3.13517 6.28993 3.277 6.09315 3.52546C5.87342 3.80241 5.79334 4.18784 5.83973 4.72855C5.92713 5.74617 6.41688 7.4455 7.38514 10.8052L7.57313 11.4571C8.09168 13.2581 8.56825 14.8896 8.91883 16.0682C9.09413 16.6576 9.23768 17.1335 9.33973 17.4618C9.39051 17.626 9.43104 17.7529 9.46034 17.8408C9.47499 17.8848 9.4867 17.9183 9.49793 17.9465L9.49989 17.9515C9.50428 17.9635 9.50868 17.9744 9.51747 17.9919L9.51942 17.9958C9.52332 18.0048 9.5287 18.0159 9.5492 18.0414L9.55311 18.0465C9.56434 18.0612 9.58094 18.0825 9.63075 18.1065C9.65907 18.1199 9.75526 18.1262 9.75526 18.1262L9.89051 18.056L9.89149 18.0545C9.89784 18.0455 9.93104 17.9991 9.93788 17.9825C9.94569 17.9642 9.94911 17.9514 9.95155 17.941C9.95594 17.9243 9.95692 17.9137 9.95741 17.9055L9.9579 17.8997L9.95936 17.8636L9.9579 17.8332L9.95643 17.818L9.94276 17.6996C9.93055 17.6015 9.91151 17.4623 9.88563 17.2845C9.83387 16.9289 9.75672 16.42 9.65907 15.7939C9.46473 14.5419 9.18934 12.8226 8.88124 10.9376C8.47254 8.43927 8.19911 6.68176 8.03651 5.49139C7.87391 4.30101 7.83485 3.63929 7.85536 3.49063ZM5.02088 5.01966L4.83583 4.07428L3.91639 4.78163C3.55018 5.06337 3.27918 5.3651 3.1161 5.69746C2.95301 6.02982 2.90565 6.39551 2.98329 6.7538C2.99891 6.82399 3.01698 6.8683 3.04579 6.93872L3.07118 7.00095C3.11561 7.112 3.17665 7.25859 3.25282 7.4369C3.40467 7.79352 3.61512 8.2765 3.86561 8.84318C4.3661 9.97654 5.02479 11.4442 5.68251 12.8959C6.34071 14.3476 6.99745 15.7832 7.49549 16.8524C7.74403 17.3871 7.95301 17.83 8.10291 18.1389C8.17762 18.2933 8.23768 18.4138 8.28211 18.4984C8.30457 18.5408 8.32215 18.5734 8.33973 18.6022L8.34266 18.6068C8.34999 18.6193 8.35731 18.6311 8.37293 18.6502L8.37684 18.655C8.38465 18.6649 8.39442 18.6776 8.42372 18.6985L8.42469 18.6993C8.44178 18.7115 8.4662 18.729 8.516 18.7379C8.56727 18.747 8.65663 18.729 8.70936 18.6788C8.70985 18.6787 8.75868 18.6156 8.76795 18.5929C8.77772 18.5701 8.78114 18.5539 8.78309 18.541C8.78797 18.5152 8.78797 18.502 8.78797 18.4913C8.78797 18.4699 8.78651 18.4602 8.78504 18.4511C8.78309 18.4329 8.78065 18.4203 8.77723 18.4053C8.77137 18.3763 8.76307 18.342 8.75233 18.2983L8.75135 18.2936C8.72889 18.2016 8.6952 18.0716 8.65077 17.9054C8.56239 17.5731 8.43153 17.0975 8.26795 16.5126C7.94129 15.3428 7.48426 13.7364 6.97596 11.9747C6.46766 10.2141 5.99354 8.54914 5.63856 7.28534C5.46083 6.65344 5.31288 6.12175 5.20594 5.72917C5.09901 5.33658 5.02967 5.06375 5.02088 5.01966ZM1.96083 6.56308C1.92372 6.55317 1.88709 6.54869 1.85194 6.54844C1.81678 6.54804 1.78211 6.55209 1.74842 6.55974C1.68055 6.57454 1.61659 6.60361 1.55751 6.63877C1.31971 6.77946 1.10829 7.04308 0.935923 7.39728C0.811411 7.65239 0.70936 7.90237 0.706919 8.20743C0.704966 8.51249 0.798716 8.84475 1.00477 9.29115C1.41639 10.1839 2.29286 11.574 3.97645 14.213C4.84559 15.5748 5.64002 16.8076 6.22059 17.6977C6.51112 18.1427 6.74793 18.5019 6.91444 18.7497C6.99793 18.8736 7.06336 18.9695 7.11073 19.0362C7.13417 19.0696 7.15272 19.0951 7.1703 19.1172L7.17372 19.1217C7.18104 19.1309 7.18788 19.1396 7.20106 19.153L7.20448 19.1566C7.21131 19.1637 7.2201 19.1726 7.24305 19.188L7.24647 19.1903C7.25965 19.1993 7.27772 19.2116 7.31922 19.2209C7.34168 19.2261 7.41297 19.2223 7.41297 19.2223L7.53211 19.1546C7.53211 19.1546 7.5785 19.0874 7.5868 19.0621C7.59559 19.0368 7.59803 19.0184 7.59901 19.0038C7.60145 18.9746 7.59999 18.9597 7.59803 18.9478C7.5951 18.9242 7.59266 18.9143 7.58973 18.9051C7.58485 18.8865 7.58094 18.875 7.57606 18.8616C7.56629 18.8347 7.55458 18.804 7.53846 18.7648C7.50672 18.6864 7.45985 18.5768 7.3993 18.4367C7.27772 18.1566 7.10096 17.7567 6.88026 17.2651C6.43885 16.2819 5.82508 14.9329 5.14442 13.4545C2.87879 8.53231 2.51844 7.70694 2.27186 6.89597C2.22596 6.74428 2.10877 6.60305 1.96083 6.56308ZM17.0624 7H17.9374V10.0625H20.9999V10.9375H17.9374V14H17.0624V10.9375H13.9999V10.0625H17.0624V7Z" fill="#33B7A4"/>
</svg>
