<svg xmlns="http://www.w3.org/2000/svg" width="380.423" height="380.423" viewBox="0 0 100.654 100.654"><g transform="translate(257.458 -163.518)"><rect transform="rotate(90)" ry=".794" rx=".794" y="168.052" x="174.764" height="78.159" width="78.161" fill="#fff" paint-order="stroke fill markers"/><path d="M-207.132 163.82a.792.792 0 0 0-.56.233l-49.23 49.23a.792.792 0 0 0 0 1.122l49.23 49.232c.312.31.812.31 1.123 0l49.23-49.23a.792.792 0 0 0 0-1.123l-49.231-49.231a.792.792 0 0 0-.562-.234zm-39.462 6.346a4.377 4.377 0 0 0-4.377 4.376 4.377 4.377 0 0 0 4.377 4.376 4.377 4.377 0 0 0 4.376-4.376 4.377 4.377 0 0 0-4.376-4.376zm78.845 0a4.377 4.377 0 0 0-4.376 4.376 4.377 4.377 0 0 0 4.376 4.376 4.377 4.377 0 0 0 4.377-4.376 4.377 4.377 0 0 0-4.377-4.376zm-78.845 78.845a4.377 4.377 0 0 0-4.377 4.377 4.377 4.377 0 0 0 4.377 4.376 4.377 4.377 0 0 0 4.376-4.376 4.377 4.377 0 0 0-4.376-4.377zm78.845 0a4.377 4.377 0 0 0-4.376 4.377 4.377 4.377 0 0 0 4.376 4.376 4.377 4.377 0 0 0 4.377-4.376 4.377 4.377 0 0 0-4.377-4.377z" fill="#fff" paint-order="stroke fill markers"/><rect ry=".794" rx=".794" y="175.008" x="-245.969" height="77.674" width="77.676" fill="#fff" paint-order="stroke fill markers"/><path style="line-height:normal;font-variant-ligatures:normal;font-variant-position:normal;font-variant-caps:normal;font-variant-numeric:normal;font-variant-alternates:normal;font-feature-settings:normal;text-indent:0;text-align:start;text-decoration-line:none;text-decoration-style:solid;text-decoration-color:#000;text-transform:none;text-orientation:mixed;shape-padding:0;isolation:auto;mix-blend-mode:normal" d="M-207.13 163.518l-.374.375-10.872 10.871h1.495l9.75-9.75 9.75 9.75h1.497l-11.246-11.246zm-.001 3.341l-.374.374-7.531 7.531h1.497l6.408-6.408 6.408 6.408h1.497l-7.905-7.905zm-39.326 2.598a5.014 5.014 0 0 0-5.006 5.006 5.014 5.014 0 0 0 5.006 5.006c.083 0 .164-.009.247-.013v-1.058c-.082.005-.164.012-.247.012a3.94 3.94 0 0 1-3.947-3.947 3.94 3.94 0 0 1 3.947-3.948 3.94 3.94 0 0 1 3.947 3.948c0 .102-.007.201-.015.301h1.058c.006-.1.016-.2.016-.301a5.014 5.014 0 0 0-5.006-5.006zm78.846 0a5.014 5.014 0 0 0-5.006 5.006c0 .102.01.201.016.301h1.057c-.007-.1-.015-.2-.015-.301a3.94 3.94 0 0 1 3.948-3.948 3.94 3.94 0 0 1 3.947 3.948 3.939 3.939 0 0 1-4.387 3.921v1.063c.145.012.291.022.44.022a5.013 5.013 0 0 0 5.005-5.006 5.013 5.013 0 0 0-5.005-5.006zm-39.436 5.479c-21.57 0-39.076 17.508-39.076 39.077 0 21.57 17.507 39.077 39.076 39.077 21.57 0 39.078-17.507 39.078-39.077 0-21.569-17.509-39.077-39.078-39.077zm-37.088 1.906v16.404l1.018.201c5.205-12.64 15.904-15.566 15.904-15.566l-.14-1.04h-16.782zm57.291 0l-.14 1.039s10.699 2.926 15.904 15.566l1.017-.2v-16.405h-16.78zm-20.203.211c20.425 0 36.961 16.535 36.961 36.96 0 20.426-16.536 36.962-36.96 36.962-20.426 0-36.962-16.536-36.962-36.962 0-20.425 16.536-36.96 36.961-36.96zm-36.03.847h13.128c-3.3 1.536-9.185 5.256-13.127 13.137V177.9zm58.83 0h13.126v13.137c-3.942-7.88-9.828-11.601-13.127-13.137zm16.196 24.697v1.497l9.75 9.75-9.75 9.751v1.497l11.248-11.247-11.248-11.248zm-78.16.002l-11.246 11.247 11.247 11.247v-1.498l-9.751-9.75 9.75-9.751v-1.495zm0 3.34l-7.905 7.906 7.906 7.905v-1.493l-6.41-6.41 6.41-6.411v-1.497zm78.16 0v1.497l6.41 6.41-6.41 6.41v1.497l7.907-7.907-7.907-7.907zm-75.066 28.053l-1.018.201v16.405h16.781l.14-1.04s-10.698-2.926-15.903-15.566zm72.037 0c-5.205 12.64-15.905 15.567-15.905 15.567l.141 1.039h16.781v-16.405l-1.017-.2zm-71.996 2.41c3.942 7.88 9.828 11.602 13.127 13.137h-13.127v-13.137zm71.955 0v13.137h-13.127c3.3-1.535 9.185-5.256 13.127-13.137zm-75.336 11.9a5.014 5.014 0 0 0-5.006 5.007 5.014 5.014 0 0 0 5.006 5.006 5.014 5.014 0 0 0 5.006-5.006c0-.13-.01-.257-.02-.384h-1.058a3.939 3.939 0 0 1-3.928 4.331 3.94 3.94 0 0 1-3.947-3.947 3.94 3.94 0 0 1 3.947-3.948c.083 0 .165.008.247.013v-1.059c-.083-.004-.164-.012-.247-.012zm78.846 0c-.149 0-.295.01-.44.023v1.062a3.94 3.94 0 0 1 4.387 3.922 3.939 3.939 0 0 1-3.947 3.947 3.94 3.94 0 0 1-3.929-4.331h-1.057c-.01.127-.02.254-.02.384a5.014 5.014 0 0 0 5.006 5.006 5.013 5.013 0 0 0 5.005-5.006 5.013 5.013 0 0 0-5.005-5.006zm-50.768 4.623l11.248 11.247 11.247-11.247h-1.496l-9.75 9.75-9.75-9.75h-1.499zm3.343 0l7.906 7.906 7.907-7.906h-1.497l-6.411 6.41-6.411-6.41h-1.494z" color="#000" font-weight="400" font-family="sans-serif" white-space="normal" overflow="visible"/><path style="line-height:normal;font-variant-ligatures:normal;font-variant-position:normal;font-variant-caps:normal;font-variant-numeric:normal;font-variant-alternates:normal;font-feature-settings:normal;text-indent:0;text-align:start;text-decoration-line:none;text-decoration-style:solid;text-decoration-color:#000;text-transform:none;text-orientation:mixed;shape-padding:0;isolation:auto;mix-blend-mode:normal" d="M-247.291 173.686V254.006h80.32v-80.32zm1.322 1.322h77.676v77.674h-77.676z" color="#000" font-weight="400" font-family="sans-serif" white-space="normal" overflow="visible"/><path d="M-186.552 191.298l-10.419.097c-4.674.044-7.365.087-9.035.185-1.67.097-2.276.238-2.91.488-.92.363-3.302 1.084-5.409 1.65-4.267 1.146-7.468 2.36-8.679 3.194-.563.388-1.995 1.218-3.28 1.914-1.241.671-2.83 1.724-3.395 2.224-.67.592-2.111 1.757-3.243 2.623-1.137.87-2.26 2.106-2.567 2.706-.638 1.25-.779 3.522-.318 4.735-.03-.079.071.132.21.36.14.23.338.546.585.932.494.773 1.184 1.83 2.006 3.078a1207.11 1207.11 0 0 0 6.01 9.014c2.197 3.266 4.418 6.543 6.161 9.085a331.2 331.2 0 0 0 2.194 3.166c.57.808.99 1.374 1.07 1.465.277.314 1.194.969 1.847 1.27 1.33.614 3.416.716 4.608.263.124-.047.71-.375 1.38-.81a47.952 47.952 0 0 0 2.24-1.56c2.722-2.012 3.166-2.205 6.354-2.78 2.522-.454 4.752-.584 8.87-.524 3.054.045 4.744.02 5.821-.213 1.077-.233 1.585-.63 2.505-1.524 1.064-1.034 1.455-1.329 1.69-3.855.237-2.526.189-7.164.078-16.353l-.197-16.249-.762-1.359c-.392-.7-1.417-1.824-2.111-2.31zm-4.443 1.482c.524-.001.98.004 1.38.013 1.597.039 2.297.166 2.896.417 1.515.633 2.393 1.833 2.677 3.605.024.15.031.32.045.607.014.288.027.669.04 1.133.028.93.056 2.194.082 3.704.051 3.022.097 7.028.124 11.292l.102 15.728-1.347 1.234-1.318 1.208-5.964.226c-4.883.186-8.364.256-10.795.202-2.431-.053-3.778-.185-4.595-.588-.516-.254-1.017-.479-1.397-1-.38-.523-.586-1.243-.731-2.44-.291-2.393-.335-6.82-.448-15.82l-.206-16.569 1.29-1.291 1.284-1.283 9.971-.25c3.146-.078 5.337-.126 6.91-.128zm2.874 2.18l-18.144.202a2.348 2.348 0 0 0-2.319 2.37l.334 30.147a2.348 2.348 0 0 0 2.371 2.318l18.144-.2a2.348 2.348 0 0 0 2.318-2.371l-.334-30.147a2.348 2.348 0 0 0-2.37-2.318zm-23.91.23l.152 14.17c.04 3.716.067 7.107.08 9.577.007 1.234.01 2.239.007 2.94 0 .35-.003.625-.005.818-.003.096-.003.17-.006.228-.003.03-.003.054-.005.081 0 .014-.003.028-.006.053-.003.013-.005.028-.012.055a.383.383 0 0 1-.017.056c-.01.026-.06.114-.06.114a.556.556 0 0 1-.374.225.537.537 0 0 1-.399-.117c-.135-.11-.138-.164-.16-.208-.044-.09-.063-.154-.088-.241-.051-.174-.108-.41-.175-.716a86.466 86.466 0 0 1-.509-2.575c-.4-2.153-.903-5.067-1.391-8.027-.489-2.96-.963-5.963-1.304-8.294-.17-1.165-.307-2.162-.396-2.905a24.108 24.108 0 0 1-.096-.917c-.02-.239-.046-.347-.004-.576.138-.756.603-1.475 1.192-2.081.588-.606 1.305-1.1 2.066-1.288zm23.919.552a1.55 1.55 0 0 1 1.58 1.546l.334 30.147a1.55 1.55 0 0 1-1.546 1.58l-18.144.2a1.55 1.55 0 0 1-1.58-1.545l-.334-30.147a1.551 1.551 0 0 1 1.546-1.58zm-29.933.526l-.36 2.426c-.047.315.042 1.717.407 4.239s.98 6.245 1.9 11.538c.694 3.994 1.312 7.636 1.75 10.289.22 1.326.393 2.405.51 3.158.057.377.1.672.129.88l.03.25c.003.033.007.06.007.097 0 .018 0 .037-.003.076-.003.02-.003.044-.015.088a.538.538 0 0 1-.03.088 1.51 1.51 0 0 1-.108.156l-.303.148s-.217-.013-.28-.042c-.128-.057-.158-.107-.184-.137-.053-.062-.06-.084-.072-.105-.022-.042-.032-.067-.044-.096-.025-.06-.05-.131-.084-.224a38.603 38.603 0 0 1-.272-.803c-.229-.696-.552-1.704-.946-2.953-.789-2.497-1.861-5.954-3.028-9.77-2.459-8.041-3.69-11.963-3.9-14.255-.104-1.145.077-1.962.57-2.549.494-.586 1.177-.892 1.996-1.31zm-7.153 3.662l.416 2.003c.02.094.176.672.416 1.503.241.832.573 1.959.973 3.297.799 2.678 1.866 6.205 3.009 9.935a1181.54 1181.54 0 0 1 2.906 9.615c.368 1.239.662 2.247.862 2.95.1.352.176.628.226.823.025.097.045.173.058.236a1.014 1.014 0 0 1 .024.183c0 .022 0 .05-.01.105a.47.47 0 0 1-.034.11 1.47 1.47 0 0 1-.132.182.593.593 0 0 1-.435.125c-.115-.019-.17-.057-.208-.083-.077-.052-.095-.08-.114-.103-.04-.045-.055-.07-.075-.101a3.9 3.9 0 0 1-.13-.22c-.1-.18-.234-.435-.403-.762-.337-.654-.807-1.593-1.367-2.725a949.325 949.325 0 0 1-4.078-8.383c-1.48-3.076-2.961-6.185-4.088-8.586-.563-1.2-1.037-2.224-1.378-2.98-.17-.377-.308-.688-.408-.923-.1-.235-.154-.336-.198-.524a3.22 3.22 0 0 1 .299-2.238c.367-.704.976-1.343 1.8-1.94zm-6.714 5.242c.08 0 .162.01.246.031.333.085.596.384.7.705.554 1.719 1.365 3.467 6.462 13.896 1.53 3.132 2.912 5.99 3.905 8.073.496 1.041.894 1.889 1.167 2.482.137.297.242.53.313.695.036.083.063.148.085.205.01.029.02.053.03.092.007.02.013.04.019.091a.409.409 0 0 1 .003.119.47.47 0 0 1-.028.123c-.018.054-.123.196-.123.196l-.268.144s-.16.008-.21-.003c-.102-.022-.141-.05-.172-.07-.061-.039-.077-.058-.094-.074-.034-.033-.05-.053-.07-.076-.04-.047-.08-.101-.134-.172a31.34 31.34 0 0 1-.441-.607c-.375-.525-.908-1.286-1.561-2.229a910.217 910.217 0 0 1-5.049-7.382c-3.787-5.592-5.76-8.537-6.686-10.428-.463-.946-.674-1.65-.669-2.296.005-.646.235-1.176.515-1.717.388-.75.863-1.308 1.398-1.607.134-.074.277-.136.43-.168v.001c.076-.016.154-.025.234-.024z"/></g></svg>