<svg xmlns="http://www.w3.org/2000/svg" width="20" height="20">
  <path d="M7 0c-.265216 0-.519494.105433-.707031.292969C6.105433.480506 6 .734784 6 1v3h2V2h10v10h-2v2h3c.2652 0 .519531-.105469.707031-.292969S20 13.2652 20 13V1c0-.265216-.105469-.519494-.292969-.707031C19.519531.105433 19.2652 0 19 0H7zM1 6c-.265216 0-.519494.105433-.707031.292969C.105433 6.480506 0 6.734784 0 7v12c0 .2652.105433.519531.292969.707031C.480506 19.894531.734784 20 1 20h12c.2652 0 .519531-.105469.707031-.292969S14 19.2652 14 19V7c0-.265216-.105469-.519494-.292969-.707031C13.519531 6.105433 13.2652 6 13 6H1zm1 2h10v10H2V8z"/>
</svg>
