<svg width="66" height="67" viewBox="0 0 66 67" fill="none" xmlns="http://www.w3.org/2000/svg">
<path fill-rule="evenodd" clip-rule="evenodd" d="M26.9263 0L14.981 11.9452H0V13.5105H52.2878V66.6742H53.8532V51.2446L65.2351 39.8627L65.7884 39.3093L53.8532 27.3741V11.9452H38.8715L27.4796 0.55335L26.9263 0ZM26.9263 2.21417L36.6573 11.9452H32.6104L27.4796 6.81447L26.9263 6.26112L21.2421 11.9452H17.1952L26.9263 2.21417ZM26.9263 8.47453L30.3969 11.9452H23.4556L26.9263 8.47453ZM53.8532 29.5882L63.5742 39.3093L53.8532 49.0304V44.9835L58.974 39.8627L59.5273 39.3093L53.8532 33.6352V29.5882ZM53.8532 35.8486L57.3139 39.3093L53.8532 42.7701V35.8486Z" fill="#ACD8D0"/>
</svg>
