<svg xmlns="http://www.w3.org/2000/svg" width="380.423" height="380.423" viewBox="0 0 100.654 100.654"><g transform="translate(257.458 -163.518)"><rect transform="rotate(90)" ry=".794" rx=".794" y="168.052" x="174.764" height="78.159" width="78.161" fill="#fff" paint-order="stroke fill markers"/><path d="M-207.132 163.82a.792.792 0 0 0-.56.233l-49.23 49.23a.792.792 0 0 0 0 1.122l49.23 49.232c.312.31.812.31 1.123 0l49.23-49.23a.792.792 0 0 0 0-1.123l-49.231-49.231a.792.792 0 0 0-.562-.234zm-39.462 6.346a4.377 4.377 0 0 0-4.377 4.376 4.377 4.377 0 0 0 4.377 4.376 4.377 4.377 0 0 0 4.376-4.376 4.377 4.377 0 0 0-4.376-4.376zm78.845 0a4.377 4.377 0 0 0-4.376 4.376 4.377 4.377 0 0 0 4.376 4.376 4.377 4.377 0 0 0 4.377-4.376 4.377 4.377 0 0 0-4.377-4.376zm-78.845 78.845a4.377 4.377 0 0 0-4.377 4.377 4.377 4.377 0 0 0 4.377 4.376 4.377 4.377 0 0 0 4.376-4.376 4.377 4.377 0 0 0-4.376-4.377zm78.845 0a4.377 4.377 0 0 0-4.376 4.377 4.377 4.377 0 0 0 4.376 4.376 4.377 4.377 0 0 0 4.377-4.376 4.377 4.377 0 0 0-4.377-4.377z" fill="#fff" paint-order="stroke fill markers"/><rect ry=".794" rx=".794" y="175.008" x="-245.969" height="77.674" width="77.676" fill="#fff" paint-order="stroke fill markers"/><path style="line-height:normal;font-variant-ligatures:normal;font-variant-position:normal;font-variant-caps:normal;font-variant-numeric:normal;font-variant-alternates:normal;font-feature-settings:normal;text-indent:0;text-align:start;text-decoration-line:none;text-decoration-style:solid;text-decoration-color:#000;text-transform:none;text-orientation:mixed;shape-padding:0;isolation:auto;mix-blend-mode:normal" d="M-207.13 163.518l-.374.375-10.872 10.871h1.495l9.75-9.75 9.75 9.75h1.497l-11.246-11.246zm-.001 3.341l-.374.374-7.531 7.531h1.497l6.408-6.408 6.408 6.408h1.497l-7.905-7.905zm-39.326 2.598a5.014 5.014 0 0 0-5.006 5.006 5.014 5.014 0 0 0 5.006 5.006c.083 0 .164-.009.247-.013v-1.058c-.082.005-.164.012-.247.012a3.94 3.94 0 0 1-3.947-3.947 3.94 3.94 0 0 1 3.947-3.948 3.94 3.94 0 0 1 3.947 3.948c0 .102-.007.201-.015.301h1.058c.006-.1.016-.2.016-.301a5.014 5.014 0 0 0-5.006-5.006zm78.846 0a5.014 5.014 0 0 0-5.006 5.006c0 .102.01.201.016.301h1.057c-.007-.1-.015-.2-.015-.301a3.94 3.94 0 0 1 3.948-3.948 3.94 3.94 0 0 1 3.947 3.948 3.939 3.939 0 0 1-4.387 3.921v1.063c.145.012.291.022.44.022a5.013 5.013 0 0 0 5.005-5.006 5.013 5.013 0 0 0-5.005-5.006zm-39.436 5.479c-21.57 0-39.076 17.508-39.076 39.077 0 21.57 17.507 39.077 39.076 39.077 21.57 0 39.078-17.507 39.078-39.077 0-21.569-17.509-39.077-39.078-39.077zm-37.088 1.906v16.404l1.018.201c5.205-12.64 15.904-15.566 15.904-15.566l-.14-1.04h-16.782zm57.291 0l-.14 1.039s10.699 2.926 15.904 15.566l1.017-.2v-16.405h-16.78zm-20.203.211c20.425 0 36.961 16.535 36.961 36.96 0 20.426-16.536 36.962-36.96 36.962-20.426 0-36.962-16.536-36.962-36.962 0-20.425 16.536-36.96 36.961-36.96zm-36.03.847h13.128c-3.3 1.536-9.185 5.256-13.127 13.137V177.9zm58.83 0h13.126v13.137c-3.942-7.88-9.828-11.601-13.127-13.137zm16.196 24.697v1.497l9.75 9.75-9.75 9.751v1.497l11.248-11.247-11.248-11.248zm-78.16.002l-11.246 11.247 11.247 11.247v-1.498l-9.751-9.75 9.75-9.751v-1.495zm0 3.34l-7.905 7.906 7.906 7.905v-1.493l-6.41-6.41 6.41-6.411v-1.497zm78.16 0v1.497l6.41 6.41-6.41 6.41v1.497l7.907-7.907-7.907-7.907zm-75.066 28.053l-1.018.201v16.405h16.781l.14-1.04s-10.698-2.926-15.903-15.566zm72.037 0c-5.205 12.64-15.905 15.567-15.905 15.567l.141 1.039h16.781v-16.405l-1.017-.2zm-71.996 2.41c3.942 7.88 9.828 11.602 13.127 13.137h-13.127v-13.137zm71.955 0v13.137h-13.127c3.3-1.535 9.185-5.256 13.127-13.137zm-75.336 11.9a5.014 5.014 0 0 0-5.006 5.007 5.014 5.014 0 0 0 5.006 5.006 5.014 5.014 0 0 0 5.006-5.006c0-.13-.01-.257-.02-.384h-1.058a3.939 3.939 0 0 1-3.928 4.331 3.94 3.94 0 0 1-3.947-3.947 3.94 3.94 0 0 1 3.947-3.948c.083 0 .165.008.247.013v-1.059c-.083-.004-.164-.012-.247-.012zm78.846 0c-.149 0-.295.01-.44.023v1.062a3.94 3.94 0 0 1 4.387 3.922 3.939 3.939 0 0 1-3.947 3.947 3.94 3.94 0 0 1-3.929-4.331h-1.057c-.01.127-.02.254-.02.384a5.014 5.014 0 0 0 5.006 5.006 5.013 5.013 0 0 0 5.005-5.006 5.013 5.013 0 0 0-5.005-5.006zm-50.768 4.623l11.248 11.247 11.247-11.247h-1.496l-9.75 9.75-9.75-9.75h-1.499zm3.343 0l7.906 7.906 7.907-7.906h-1.497l-6.411 6.41-6.411-6.41h-1.494z" color="#000" font-weight="400" font-family="sans-serif" white-space="normal" overflow="visible"/><path style="line-height:normal;font-variant-ligatures:normal;font-variant-position:normal;font-variant-caps:normal;font-variant-numeric:normal;font-variant-alternates:normal;font-feature-settings:normal;text-indent:0;text-align:start;text-decoration-line:none;text-decoration-style:solid;text-decoration-color:#000;text-transform:none;text-orientation:mixed;shape-padding:0;isolation:auto;mix-blend-mode:normal" d="M-247.291 173.686V254.006h80.32v-80.32zm1.322 1.322h77.676v77.674h-77.676z" color="#000" font-weight="400" font-family="sans-serif" white-space="normal" overflow="visible"/><path d="M-198.218 193.21c-1.386-.008-35.08 11.768-35.926 12.556-.938.873-.75 2.037.526 3.25 2.229 2.121 14.045 11.867 14.71 12.134 1.874.752 3.057.427 19.992-5.5 9.133-3.196 16.99-6.01 17.458-6.251.858-.444 1.3-1.408 1.107-2.413-.134-.695-13.988-12.444-15.565-13.2-.654-.313-1.69-.573-2.302-.576zm.343 1.143c.473.047 1.512.708 1.512.708s13.277 10.678 13.702 11.245c.425.567.425 1.04.33 1.37-.094.331-1.18.804-1.18.804s-30.475 10.3-32.318 10.867c-1.842.567-2.645 0-3.212-.236-.567-.237-13.56-11.34-13.56-11.34s-.19-.708.236-1.228c0 0 34.018-12.237 34.49-12.19zm-.796 1.717a1.924 1.924 0 0 0-.685.158l.015-.007c-.042.016-.6.212-1.46.511-.86.3-2.055.713-3.469 1.202-2.828.978-6.537 2.26-10.226 3.532-7.377 2.547-14.673 5.063-14.673 5.063l-.04.014-.036.022c-.34.21-.547.526-.582.848a.948.948 0 0 0 .33.833c.936.78 3.648 3.003 6.192 5.059a363.063 363.063 0 0 0 3.447 2.757 71 71 0 0 0 1.174.908c.15.114.276.206.376.275.1.07.14.109.264.16l-.034-.017c.322.171.676.376 1.17.457.494.08 1.1.032 1.945-.224.866-.262 7.927-2.596 14.832-4.884 6.904-2.287 13.605-4.512 13.605-4.512l.017-.006.016-.006c.548-.24.97-.558 1.163-1.01.192-.452.08-.987-.26-1.448l-.003-.003-.003-.003c-.08-.104-.134-.143-.24-.236a19.12 19.12 0 0 0-.416-.353c-.34-.283-.802-.656-1.346-1.09a506.793 506.793 0 0 0-3.897-3.074c-2.8-2.19-5.552-4.317-5.552-4.317-.074-.067-.631-.553-1.41-.607a1.89 1.89 0 0 0-.214-.003zm.051.765c.046 0 .092 0 .136.004.537.045.942.422.942.422l.014.013.015.012s2.751 2.127 5.549 4.315a505.973 505.973 0 0 1 3.89 3.068c.542.433 1.002.804 1.335 1.081.167.139.302.253.399.338.094.084.164.163.135.125.236.32.248.508.17.69-.077.182-.318.41-.758.604-.026.01-6.689 2.222-13.58 4.504-6.903 2.287-14.055 4.65-14.81 4.877-.776.235-1.253.258-1.602.202-.35-.057-.598-.2-.935-.378l-.016-.009-.017-.007c.061.025-.028-.017-.116-.078-.087-.061-.207-.15-.354-.26-.293-.22-.69-.528-1.16-.898-.94-.74-2.17-1.724-3.44-2.75a703.568 703.568 0 0 1-6.184-5.051.183.183 0 0 1-.058-.162c.007-.068.055-.162.212-.266l14.608-5.04a17604.07 17604.07 0 0 0 13.695-4.735c.861-.3 1.36-.472 1.482-.518l.007-.003.008-.004a1.17 1.17 0 0 1 .433-.096zm-37.188 12.812c-.08.079-.063.469.037.866.232.925 14.883 13.237 16.44 13.815 2.271.844 3.538.506 21.184-5.664 9.244-3.232 17.197-6.101 17.675-6.376.805-.463 1.626-1.965 1.268-2.323-.086-.086-.535.121-.998.46-.462.34-8.47 3.313-17.796 6.607-15.174 5.36-17.16 5.992-18.909 6.014-1.507.02-2.206-.123-3.057-.626-.607-.358-4.388-3.41-8.401-6.784-4.014-3.374-7.363-6.069-7.443-5.99zm56.784 2.743l-.74.678c-1.002.916-34.29 12.593-36.458 12.789-2.929.264-3.586-.111-10.657-6.081-3.584-3.026-7.018-5.904-7.632-6.395l-1.115-.893v.877c0 .782.824 1.57 7.576 7.238 4.167 3.5 8.015 6.522 8.552 6.717 2.575.937 3.16.783 21.48-5.615 9.715-3.392 17.535-6.283 17.923-6.626.379-.334.775-1.076.88-1.649zm-.086 3.019l-.69.649c-.434.407-7.085 2.92-17.922 6.77-15.468 5.494-17.43 6.123-19.165 6.14-1.424.013-2.248-.149-3.123-.613-.655-.346-4.402-3.354-8.329-6.684-5.623-4.77-7.16-5.935-7.236-5.49-.054.31-.03.742.053.96.184.478 14.312 12.386 15.364 12.95a8.844 8.844 0 0 0 1.635.627c.491.126 1.546.163 2.344.082 1.416-.144 34.585-11.574 35.813-12.34.71-.444 1.256-1.496 1.256-2.419zm-56.388 3.377c-.12.018-.125.205-.123.509.003.455.102.97.222 1.144.12.173 3.544 3.103 7.61 6.51 5.071 4.25 7.777 6.32 8.626 6.597 2.405.788 3.68.443 21.393-5.786 9.286-3.266 17.205-6.148 17.598-6.406.664-.434 1.318-2.116.962-2.472-.087-.086-.453.118-.814.454-.361.337-1.408.87-2.325 1.187-.918.316-8.629 3.01-17.136 5.987-9.228 3.229-16.068 5.463-16.955 5.54-2.526.22-3.783-.486-9.584-5.383a1064.981 1064.981 0 0 1-7.444-6.332c-1.318-1.142-1.832-1.58-2.03-1.55zm56.287 3.126c-.123.019-.345.163-.597.4-.948.89-34.27 12.573-36.414 12.766-2.973.268-3.506-.048-11.695-6.945-6.828-5.75-8.107-6.65-7.61-5.352.187.486 14.3 12.39 15.369 12.961a8.843 8.843 0 0 0 1.635.628c.491.126 1.546.163 2.344.082 1.416-.144 34.585-11.574 35.813-12.34.612-.383 1.256-1.47 1.256-2.12 0-.047-.02-.073-.055-.08a.12.12 0 0 0-.046 0z"/></g></svg>