<?xml version="1.0" encoding="UTF-8" standalone="no"?>
<svg
   width="88"
   height="88"
   viewBox="0 0 88 88"
   fill="none"
   version="1.1"
   id="svg8"
   sodipodi:docname="hammer.svg"
   inkscape:version="1.1.2 (0a00cf5339, 2022-02-04)"
   xmlns:inkscape="http://www.inkscape.org/namespaces/inkscape"
   xmlns:sodipodi="http://sodipodi.sourceforge.net/DTD/sodipodi-0.dtd"
   xmlns="http://www.w3.org/2000/svg"
   xmlns:svg="http://www.w3.org/2000/svg">
  <defs
     id="defs12" />
  <sodipodi:namedview
     id="namedview10"
     pagecolor="#ffffff"
     bordercolor="#666666"
     borderopacity="1.0"
     inkscape:pageshadow="2"
     inkscape:pageopacity="0.0"
     inkscape:pagecheckerboard="0"
     showgrid="false"
     inkscape:zoom="9.9204546"
     inkscape:cx="29.938144"
     inkscape:cy="41.530355"
     inkscape:window-width="2556"
     inkscape:window-height="1377"
     inkscape:window-x="0"
     inkscape:window-y="30"
     inkscape:window-maximized="1"
     inkscape:current-layer="svg8" />
  <rect
     style="fill:#ffffff"
     id="rect153"
     width="67.91066"
     height="67.908958"
     x="10.04422"
     y="10.04496" />
  <path
     d="M166.302 0L165.064 1.23629L129.14 37.1605H134.08L166.298 4.94175L198.517 37.1605H203.462L166.302 0ZM166.297 11.0395L165.06 12.2758L140.176 37.1605H145.123L166.297 15.9864L187.471 37.1605H192.418L166.297 11.0395ZM36.3494 19.6236C27.2345 19.6236 19.808 27.0501 19.808 36.165C19.808 45.2799 27.2345 52.7063 36.3494 52.7063C36.6244 52.7063 36.8921 52.6787 37.1639 52.6654V49.1665C36.8931 49.1831 36.6245 49.2075 36.3494 49.2075C29.1244 49.2075 23.3051 43.3899 23.3051 36.165C23.3051 28.94 29.1244 23.1207 36.3494 23.1207C43.5743 23.1207 49.3919 28.94 49.3919 36.165C49.3919 36.5012 49.3671 36.8308 49.3424 37.1605H52.8395C52.8594 36.8292 52.8908 36.5011 52.8908 36.165C52.8908 27.0501 45.4643 19.6236 36.3494 19.6236ZM296.886 19.6236C287.771 19.6236 280.345 27.0501 280.345 36.165C280.345 36.5011 280.376 36.8292 280.396 37.1605H283.891C283.866 36.8308 283.842 36.5012 283.842 36.165C283.842 28.94 289.661 23.1207 296.886 23.1207C304.111 23.1207 309.928 28.94 309.928 36.165C309.928 43.3899 304.111 49.2075 296.886 49.2075C296.393 49.2075 295.909 49.1748 295.431 49.1221V52.6329C295.912 52.6752 296.395 52.7063 296.886 52.7063C306.001 52.7063 313.426 45.2799 313.426 36.165C313.426 27.0501 306.001 19.6236 296.886 19.6236ZM166.575 37.7274C95.3018 37.7274 37.4525 95.5818 37.4525 166.855C37.4525 238.128 95.3018 295.978 166.575 295.978C237.848 295.978 295.704 238.128 295.704 166.855C295.704 95.5818 237.848 37.7274 166.575 37.7274ZM44.0233 44.025V98.2323L47.3855 98.8965C64.5843 57.1281 99.9382 47.4589 99.9382 47.4589L99.4737 44.025H44.0233ZM233.335 44.025L232.869 47.4589C232.869 47.4589 268.224 57.1281 285.423 98.8965L288.785 98.2323V44.025H233.335ZM166.575 44.7234C234.068 44.7234 288.708 99.3617 288.708 166.855C288.708 234.348 234.068 288.988 166.575 288.988C99.0817 288.988 44.4416 234.348 44.4416 166.855C44.4416 99.3617 99.0817 44.7234 166.575 44.7234ZM47.5204 47.5238H90.8965C79.9953 52.5971 60.5477 64.8906 47.5204 90.9324V47.5238ZM241.912 47.5238H285.288V90.9324C272.261 64.8906 252.813 52.5971 241.912 47.5238ZM295.431 129.129V134.076L327.652 166.297L295.431 198.517V203.464L332.598 166.297L295.431 129.129ZM37.1639 129.138L0 166.302L37.1639 203.466V198.517L4.94346 166.297L37.1639 134.076V129.138ZM37.1639 140.172L11.0395 166.297L37.1639 192.421V187.484L15.9813 166.302L37.1639 145.119V140.172ZM295.431 140.174V145.121L316.612 166.302L295.431 187.483V192.43L321.559 166.302L295.431 140.174ZM47.3855 232.872L44.0233 233.536V287.744H99.4737L99.9382 284.31C99.9382 284.31 64.5843 274.64 47.3855 232.872ZM285.423 232.872C268.224 274.64 232.869 284.31 232.869 284.31L233.335 287.744H288.785V233.536L285.423 232.872ZM47.5204 240.836C60.5477 266.876 79.9957 279.172 90.8965 284.245H47.5204V240.836ZM285.288 240.836V284.245H241.912C252.813 279.172 272.261 266.876 285.288 240.836ZM36.3494 280.16C27.2345 280.16 19.808 287.587 19.808 296.702C19.808 305.816 27.2345 313.243 36.3494 313.243C45.4643 313.243 52.8908 305.816 52.8908 296.702C52.8908 296.273 52.8581 295.853 52.8259 295.433H49.3287C49.3687 295.85 49.3919 296.273 49.3919 296.702C49.3919 303.926 43.5743 309.744 36.3494 309.744C29.1244 309.744 23.3051 303.926 23.3051 296.702C23.3051 289.477 29.1244 283.657 36.3494 283.657C36.6245 283.657 36.8931 283.682 37.1639 283.698V280.201C36.8921 280.188 36.6244 280.16 36.3494 280.16ZM296.886 280.16C296.395 280.16 295.912 280.191 295.431 280.234V283.743C295.909 283.69 296.393 283.657 296.886 283.657C304.111 283.657 309.928 289.477 309.928 296.702C309.928 303.926 304.111 309.744 296.886 309.744C289.661 309.744 283.842 303.926 283.842 296.702C283.842 296.273 283.865 295.85 283.905 295.433H280.409C280.377 295.853 280.345 296.273 280.345 296.702C280.345 305.816 287.771 313.243 296.886 313.243C306.001 313.243 313.426 305.816 313.426 296.702C313.426 287.587 306.001 280.16 296.886 280.16ZM129.131 295.433L166.297 332.598L203.462 295.433H198.517L166.298 327.652L134.08 295.433H129.131ZM140.176 295.433L166.302 321.559L192.428 295.433H187.481L166.297 316.617L145.112 295.433H140.176Z"
     transform="scale(0.264583)"
     fill="#18934C"
     id="path2"
     style="fill:#000000" />
  <path
     d="M0 0V0.578872V70.2228H70.2228V0H0ZM1.15604 1.15604H69.0667V69.065H1.15604V1.15604Z"
     transform="translate(8.88818 8.88892)"
     fill="#18934C"
     id="path4"
     style="fill:#000000" />
  <path
     d="M26.8775 0.000730455C26.7593 -0.00210835 26.6293 0.00357307 26.4934 0.0135089C25.5798 0.0846683 25.1424 0.449391 20.7385 4.81303C16.1773 9.33264 15.9723 9.57739 15.9723 10.5089C15.9723 11.0442 16.5473 11.9832 16.6384 11.9832C16.7296 11.9832 19.3192 9.48144 22.3933 6.42381C25.4673 3.366 27.9824 0.768045 27.9824 0.650698C27.9824 0.562695 27.232 0.00569984 26.8775 0.000817088V0.000730455ZM29.9846 0.342038L23.1673 7.16354L16.3496 13.9851L25.6054 23.2492C30.696 28.3443 34.9183 32.5132 34.9888 32.5132C35.0592 32.5132 38.156 29.4706 41.87 25.7523L48.6227 18.9919L39.3034 9.66675L29.9846 0.342038ZM29.946 1.95232C30.1378 1.95232 30.3296 2.02575 30.4767 2.17283L46.7247 18.431C47.0187 18.7253 47.0187 19.1989 46.7247 19.4932L35.5004 30.7245C35.2064 31.0187 34.733 31.0187 34.439 30.7245L18.191 14.4663C17.8969 14.172 17.8969 13.6984 18.191 13.4041L29.4152 2.17283C29.5623 2.02572 29.7541 1.95232 29.946 1.95232H29.946ZM29.9069 3.28531C29.6657 3.28526 29.4244 3.37663 29.2418 3.55965L19.4904 13.3171C19.1251 13.6827 19.1251 14.2826 19.4904 14.6482L34.2748 29.4418C34.6401 29.8074 35.2397 29.807 35.605 29.4418L45.3563 19.6844C45.7216 19.3188 45.7216 18.7193 45.3563 18.3538L30.572 3.55965C30.3893 3.37685 30.148 3.28537 29.9069 3.28531H29.9069ZM29.9069 3.78165C30.0186 3.7817 30.1304 3.82565 30.2182 3.91319L45.0025 18.7068C45.1779 18.8824 45.1779 19.1538 45.0025 19.3293L35.2512 29.0868C35.0757 29.2623 34.804 29.2626 34.6286 29.0868L19.8447 14.2931C19.6693 14.1176 19.6693 13.8457 19.8447 13.6702L29.5956 3.91269C29.6833 3.82498 29.7951 3.78109 29.9069 3.78114L29.9069 3.78165ZM29.8863 4.32101L26.6532 7.55623L26.8032 7.75376C26.8032 7.75376 29.4492 6.24443 32.9099 7.68724L33.0467 7.48285L29.8863 4.32101ZM29.8863 4.67506L32.5004 7.29069C30.1345 6.47612 28.2006 6.93708 27.2797 7.28313L29.8863 4.67506ZM32.5443 9.8154C30.8293 9.8154 29.1144 10.4695 27.807 11.7777C25.1921 14.3943 25.1921 18.6424 27.807 21.2589C30.4219 23.8755 34.6673 23.8755 37.2822 21.2589C39.8971 18.6424 39.8971 14.3943 37.2822 11.7777C35.9747 10.4695 34.2594 9.81541 32.5443 9.8154ZM32.2106 10.1572L32.579 10.1601C33.4486 10.1648 34.3175 10.3476 35.1271 10.7082L35.2453 10.7601L34.7312 12.6799L32.2106 10.1572ZM31.8421 10.1963L31.869 10.3151L32.1231 10.5694L31.3935 11.2995L30.5637 10.4696L30.8124 10.3992C31.1061 10.3162 31.404 10.2544 31.7048 10.2144L31.8421 10.1963ZM30.2006 10.6056L30.7288 11.1342L30.7346 13.5567L33.3872 13.5874L32.2305 14.7449L26.4938 14.5586L26.5646 14.3625C26.8719 13.5089 27.3677 12.7071 28.0517 12.0227C28.6595 11.4145 29.3601 10.9552 30.1071 10.6447L30.2006 10.6056ZM23.4244 10.7547L20.2645 13.9166L23.4977 17.1518L23.6946 17.0017C23.6946 17.0017 22.1862 14.354 23.6282 10.8912L23.4244 10.7547ZM32.3679 10.8144L33.3477 11.7944L32.6176 12.525L31.6383 11.5445L32.2609 10.9215L32.3679 10.8144ZM35.5615 10.9176L35.7326 11.0169C36.1986 11.288 36.6381 11.6233 37.0374 12.0227C37.4402 12.4259 37.7772 12.8701 38.0494 13.3411L38.1486 13.5122L36.1093 14.0585L35.0137 12.9621L35.5615 10.9176ZM23.2323 11.301C22.4182 13.6684 22.8789 15.6034 23.2251 16.525L20.6184 13.9166L23.2323 11.301ZM31.0763 11.5352L32.5179 12.9704L32.7828 13.234L31.0797 13.2139L31.0763 11.5352ZM33.5926 12.0394L34.5719 13.0193L33.8418 13.7499L32.8625 12.7699L33.4851 12.1465L33.5926 12.0394ZM34.8167 13.2648L35.7961 14.2448L35.0665 14.9748L34.0866 13.9949L34.7097 13.3719L34.8167 13.2648ZM38.3055 13.8286L38.3578 13.9474C38.7143 14.7538 38.8951 15.6184 38.8998 16.4839L38.9022 16.8526L36.3928 14.3416L38.1804 13.8624L38.3055 13.8286ZM33.5335 13.9406L35.1207 15.5289L31.629 19.0227L30.0417 17.4345L33.4264 14.0477L33.5335 13.9406ZM36.0409 14.4897L37.0207 15.4697L36.2906 16.2003L35.3113 15.2198L35.9339 14.5968L36.0409 14.4897ZM26.3956 14.9025L31.5455 15.0692L31.8949 15.081L29.8003 17.1768L29.6953 17.0961C29.6388 17.0529 29.567 17.0069 29.4729 16.9606C29.2019 16.8272 28.7567 16.696 28.0279 16.6643C27.3072 16.633 26.8399 16.6719 26.5466 16.7205C26.4809 16.7315 26.4252 16.7433 26.3756 16.7548L26.1923 16.7969L26.1899 16.6091C26.1824 16.0765 26.241 15.5431 26.3668 15.0223L26.3956 14.9025ZM35.4584 15.6897L35.4892 18.3142L37.8476 18.3199H37.9102L38.4536 18.8636L38.4145 18.957C38.1041 19.7045 37.6452 20.4055 37.0374 21.0137C36.3428 21.7087 35.5269 22.2101 34.6589 22.5164L34.4639 22.5848L34.2787 16.8704L35.4584 15.6897ZM37.2656 15.7148L38.2449 16.6953L37.5148 17.4254L36.5355 16.4454L37.1581 15.8219L37.2656 15.7148ZM41.3471 15.7486L41.1497 15.8992C41.1497 15.8992 42.6581 18.5464 41.2162 22.0092L41.4204 22.1462L44.5803 18.9838L41.3471 15.7486ZM35.8117 16.265L37.5089 17.9726L35.8317 17.9688L35.8162 16.6387L35.8117 16.265ZM41.6198 16.3755L44.2265 18.9838L41.612 21.6004C42.4265 19.2326 41.9659 17.2971 41.6197 16.3755H41.6198ZM38.4897 16.9403L38.8519 17.3022L38.8416 17.377C38.8016 17.6717 38.7407 17.9639 38.6593 18.2518L38.5895 18.5007L37.7597 17.6704L38.3823 17.0474L38.4897 16.9403ZM27.5338 16.9999C27.6782 16.9999 27.8373 17.0037 28.0127 17.0112C28.7063 17.0414 29.1034 17.1652 29.3199 17.2718C29.3992 17.3109 29.454 17.3474 29.491 17.3764L29.5164 17.3959L29.5312 17.4233L29.6172 17.5088L29.8078 17.6996L31.3643 19.257L31.5822 19.4751L31.6408 19.5338L31.6672 19.549L31.6867 19.5735C31.7153 19.6104 31.7511 19.6649 31.7894 19.7427C31.896 19.9595 32.0202 20.3563 32.0503 21.0503C32.0808 21.7525 32.0421 22.1974 31.9981 22.461C31.9763 22.5912 31.9538 22.6765 31.9375 22.7276L31.8993 22.8469L31.7747 22.8317C31.273 22.7705 30.7771 22.6498 30.2984 22.4688L30.1572 22.4155L30.2099 22.2737C30.2212 22.2435 30.3897 21.7853 30.4474 21.2067C30.5075 20.6041 30.4532 19.8518 29.9265 19.3246C29.3308 18.7285 28.6238 18.5905 28.0196 18.6116C27.4155 18.6326 26.9232 18.8197 26.8043 18.8689L26.6601 18.9286L26.6049 18.7828C26.4203 18.2979 26.297 17.7948 26.2354 17.286L26.2199 17.1613L26.3396 17.1232C26.3907 17.1069 26.475 17.0845 26.6035 17.0631C26.8012 17.0301 27.1007 17 27.534 17L27.5338 16.9999ZM33.943 17.2063L34.1209 22.6811L33.9997 22.7095C33.4908 22.829 32.9704 22.8848 32.4505 22.8772L32.2629 22.8744L32.3054 22.691C32.3171 22.6408 32.3286 22.5842 32.3396 22.5174C32.3884 22.224 32.4271 21.7564 32.3958 21.0352C32.3641 20.3059 32.2335 19.8605 32.1001 19.5893C32.0546 19.4966 32.0088 19.4259 31.9662 19.3697L31.8866 19.2641L33.6962 17.4534L33.943 17.2063ZM27.9164 18.9691L28.3235 18.9999C28.7673 19.0331 29.2564 19.1881 29.6596 19.5916C29.9701 19.9022 30.0766 20.3421 30.0872 20.7715L30.0965 21.1505L27.9164 18.9691ZM27.5035 19.0557L30.0119 21.5657L29.9944 21.6465C29.9453 21.8709 29.8957 22.0269 29.8708 22.0993L29.8136 22.2641L29.6587 22.1849C29.0799 21.8891 28.5364 21.499 28.0519 21.0142C27.5712 20.5332 27.1836 19.9941 26.8888 19.4201L26.8121 19.2709L26.9684 19.2098C27.0453 19.1796 27.2008 19.1244 27.422 19.0743L27.5035 19.0557ZM48.437 21.0014C48.2767 21.0145 36.9899 32.2013 36.9899 32.3472C36.9899 32.4385 37.9119 33.0141 38.4267 33.0141C39.3084 33.0141 39.6418 32.7351 44.1815 28.197C48.7317 23.6484 49 23.3274 49 22.4386C49 21.9209 48.4714 20.9986 48.437 21.0014ZM23.1302 22.4987C22.9997 22.4987 22.6828 22.6887 22.426 22.9212C21.9764 23.3284 22.0263 23.4122 23.7714 25.1701L25.5834 26.9956L26.164 26.4499L26.7446 25.9041L25.0561 24.2014C24.1274 23.2649 23.2607 22.4987 23.1302 22.4987ZM21.5273 24.0728L21.022 24.6577L24.3392 28.1511L24.8607 27.6137L21.5273 24.0728ZM38.0411 25.1956C38.0411 25.1956 35.3956 26.7049 31.9349 25.2621L31.7981 25.4665L34.9585 28.6283L38.1916 25.3932L38.0411 25.1956ZM20.0837 25.2528C15.6561 29.7236 11.1346 34.207 6.762 38.8318L6.67258 38.9663C7.86771 40.2119 8.89171 41.3268 10.0753 42.5296C14.6435 38.0936 18.9655 33.406 23.5842 29.0186V28.8396C22.4004 27.5768 21.3375 26.5176 20.1663 25.3076L20.1525 25.3208L20.0837 25.2528ZM32.3435 25.6582C34.7098 26.4733 36.6441 26.0123 37.5652 25.6658L34.9585 28.2741L32.3435 25.6582ZM6.01431 39.5956L5.50901 40.1805L8.82624 43.6738L9.34768 43.1364L6.01431 39.5956ZM4.61031 40.7848L4.02925 41.3311L3.44869 41.8768L5.2583 43.6998L7.06795 45.5227L7.64898 44.977L8.22954 44.4308L6.41993 42.6078L4.61031 40.7848ZM1.42795 42.2998C0.992757 42.296 0.726684 42.7239 0.423705 43.5296L0 44.6562L2.14487 46.8279L4.29022 49L5.44011 48.5741C6.33566 48.2425 6.60536 48.0116 6.66085 47.5291C6.71747 47.0366 6.25001 46.43 4.38209 44.5716C2.82614 43.0237 1.98749 42.3047 1.42795 42.2998Z"
     transform="translate(22 17)"
     fill="#18934C"
     id="path6"
     style="fill:#000000" />
</svg>
