<svg width="60" height="61" viewBox="0 0 60 61" fill="none" xmlns="http://www.w3.org/2000/svg">
<path d="M2.66863 5.37464C4.14247 5.37464 5.33722 4.17149 5.33722 2.68732C5.33722 1.20315 4.14247 0 2.66863 0C1.1948 0 0 1.20315 0 2.68732C0 4.17149 1.1948 5.37464 2.66863 5.37464Z" transform="translate(9.11084 51.2119) scale(-1 1)" fill="white"/>
<path d="M2.66863 5.37464C4.14247 5.37464 5.33722 4.17149 5.33722 2.68732C5.33722 1.20315 4.14247 0 2.66863 0C1.1948 0 0 1.20315 0 2.68732C0 4.17149 1.1948 5.37464 2.66863 5.37464Z" transform="translate(56.1326 51.2119) scale(-1 1)" fill="white"/>
<path d="M2.66863 5.37464C4.14247 5.37464 5.33722 4.17149 5.33722 2.68732C5.33722 1.20315 4.14247 0 2.66863 0C1.1948 0 0 1.20315 0 2.68732C0 4.17149 1.1948 5.37464 2.66863 5.37464Z" transform="translate(56.1326 4.19037) scale(-1 1)" fill="white"/>
<path d="M2.66863 5.37464C4.14247 5.37464 5.33722 4.17149 5.33722 2.68732C5.33722 1.20315 4.14247 0 2.66863 0C1.1948 0 0 1.20315 0 2.68732C0 4.17149 1.1948 5.37464 2.66863 5.37464Z" transform="translate(9.11084 4.19037) scale(-1 1)" fill="white"/>
<path d="M41.9423 0H0V41.9423H41.9423V0Z" transform="translate(30 0.449066) scale(-0.996501 1.00349) rotate(45)" fill="white"/>
<path d="M2.98434 0C1.34002 0 0 1.34911 0 3.00495C0 4.66079 1.34002 6.0099 2.98434 6.0099C4.62865 6.0099 5.96837 4.66079 5.96837 3.00495C5.96837 1.34911 4.62865 0 2.98434 0ZM2.98434 0.635298C4.2877 0.635298 5.33749 1.69245 5.33749 3.00495C5.33749 4.31744 4.2877 5.3746 2.98434 5.3746C1.68098 5.3746 0.630876 4.31744 0.630876 3.00495C0.630876 1.69245 1.68098 0.635298 2.98434 0.635298Z" transform="translate(9.42676 50.8943) scale(-1 1)" fill="black"/>
<path d="M2.98434 0C1.34002 0 0 1.34911 0 3.00495C0 4.66079 1.34002 6.0099 2.98434 6.0099C4.62865 6.0099 5.96837 4.66079 5.96837 3.00495C5.96837 1.34911 4.62865 0 2.98434 0ZM2.98434 0.635298C4.2877 0.635298 5.33749 1.69245 5.33749 3.00495C5.33749 4.31744 4.2877 5.3746 2.98434 5.3746C1.68098 5.3746 0.630876 4.31744 0.630876 3.00495C0.630876 1.69245 1.68098 0.635298 2.98434 0.635298Z" transform="translate(56.4265 50.8943) scale(-1 1)" fill="black"/>
<path d="M2.98434 0C1.34002 0 0 1.34911 0 3.00495C0 4.66079 1.34002 6.0099 2.98434 6.0099C4.62865 6.0099 5.96837 4.66079 5.96837 3.00495C5.96837 1.34911 4.62865 0 2.98434 0ZM2.98434 0.635298C4.2877 0.635298 5.33749 1.69245 5.33749 3.00495C5.33749 4.31744 4.2877 5.3746 2.98434 5.3746C1.68098 5.3746 0.630876 4.31744 0.630876 3.00495C0.630876 1.69245 1.68098 0.635298 2.98434 0.635298Z" transform="translate(9.42676 3.87282) scale(-1 1)" fill="black"/>
<path d="M2.98434 0C1.34002 0 0 1.34911 0 3.00495C0 4.66079 1.34002 6.0099 2.98434 6.0099C4.62865 6.0099 5.96837 4.66079 5.96837 3.00495C5.96837 1.34911 4.62865 0 2.98434 0ZM2.98434 0.635298C4.2877 0.635298 5.33749 1.69245 5.33749 3.00495C5.33749 4.31744 4.2877 5.3746 2.98434 5.3746C1.68098 5.3746 0.630876 4.31744 0.630876 3.00495C0.630876 1.69245 1.68098 0.635298 2.98434 0.635298Z" transform="translate(56.4265 3.87282) scale(-1 1)" fill="black"/>
<path d="M30 0L29.777 0.224607L0 30.2103L30 60.4206L60 30.2103L30 0ZM30 0.898449L59.1078 30.2103L30 59.5222L0.892213 30.2103L30 0.898449Z" transform="translate(60) scale(-1 1)" fill="black"/>
<path d="M28.0084 0L27.7854 0.224607L0 28.2048L28.0084 56.4096L56.0169 28.2048L28.0084 0ZM28.0084 0.898439L55.1247 28.2048L28.0084 55.5112L0.892175 28.2048L28.0084 0.898439Z" transform="translate(58.0085 2.00526) scale(-1 1)" fill="black"/>
<path d="M47.0904 0H0V47.4205H47.0904V0Z" transform="translate(53.5452 6.49989) scale(-1 1)" fill="#FEFDFE"/>
<path d="M0 0V0.397061V48.2147H47.8788V0H0ZM0.788595 0.794123H47.0902V47.4206H0.788595V0.794123Z" transform="translate(53.9392 6.10271) scale(-1 1)" fill="black"/>
<path fill-rule="evenodd" clip-rule="evenodd" d="M0.607156 0L0 0.12098V9.9681H10.0041L10.0879 9.34428C10.0879 9.34428 3.70977 7.58777 0.607156 0ZM0.630876 1.57243C2.94804 6.19349 6.42941 8.39129 8.40469 9.33281H0.630876V1.57243Z" transform="translate(52.0583 42.3035) scale(-1 1)" fill="black"/>
<path fill-rule="evenodd" clip-rule="evenodd" d="M9.48069 0C6.37808 7.58777 0 9.34428 0 9.34428L0.0840962 9.9681H10.0879V0.12098L9.48069 0ZM9.45697 1.57243V9.33281H1.68316C3.65846 8.39129 7.13982 6.19349 9.45697 1.57243Z" transform="translate(17.9907 42.3035) scale(-1 1)" fill="black"/>
<path fill-rule="evenodd" clip-rule="evenodd" d="M0.607156 0L0 0.12098V9.9681H10.0041L10.0879 9.34428C10.0879 9.34428 3.70977 7.58777 0.607156 0ZM0.630876 1.57243C2.94804 6.19349 6.42941 8.39129 8.40469 9.33281H0.630876V1.57243Z" transform="translate(52.0583 18.1328) rotate(180)" fill="black"/>
<path fill-rule="evenodd" clip-rule="evenodd" d="M9.48069 0C6.37808 7.58777 0 9.34428 0 9.34428L0.0840962 9.9681H10.0879V0.12098L9.48069 0ZM9.45697 1.57243V9.33281H1.68316C3.65846 8.39129 7.13982 6.19349 9.45697 1.57243Z" transform="translate(17.9907 18.1328) rotate(180)" fill="black"/>
<path d="M80.9894 0C36.2928 -1.96523e-05 0 36.293 0 80.9899C0 125.687 36.2928 161.98 80.9894 161.98C125.686 161.98 161.98 125.687 161.98 80.9899C161.98 36.293 125.686 -1.96523e-05 80.9894 0ZM80.9894 5.20003C87.7863 5.20003 94.3736 6.09755 100.64 7.77111L102.278 8.20876L90.0896 29.3166H72.078L59.8624 8.159L61.5054 7.72541C67.7216 6.08056 74.2532 5.20003 80.9894 5.20003ZM54.8239 9.82431L66.0758 29.3166H25.4253L27.6744 27.0907C35.0494 19.7951 43.9155 14.0077 53.7831 10.2193L54.8239 9.82431ZM107.313 9.88219L108.353 10.2813C118.157 14.0707 126.97 19.8342 134.305 27.0907L136.553 29.3166H96.0918L106.757 10.8458L107.313 9.88219ZM23.104 31.8846L19.9846 34.5938H26.4001V45.9544H13.7164L14.7988 44.02C16.5752 40.8424 18.5707 37.8056 20.7705 34.9319L23.104 31.8846ZM31.6011 34.5938H47.198V45.9544H31.6011V35.8945V34.5938ZM52.394 34.5938H67.9909V45.9544H52.394V35.8945V34.5938ZM73.1909 34.5938H88.7878V45.9544H73.1909V35.8945V34.5938ZM93.9889 34.5938H109.586V45.9544H93.9889V35.8945V34.5938ZM114.782 34.5938H130.379V45.9544H114.782V35.8945V34.5938ZM135.579 34.5938H140.952L141.343 35.1086C143.49 37.9302 145.441 40.9068 147.181 44.02L148.263 45.9544H135.579V35.8945V34.5938ZM62.7523 50.1908V68.3752L13.1406 114.874L12.3811 113.254C7.77742 103.467 5.2 92.5307 5.2 80.9899C5.2 70.7346 7.23611 60.9558 10.9189 52.0369L11.2489 51.2306H19.6617L40.4779 71.9556L62.7523 50.1908ZM99.2274 50.4406L121.245 71.9556L141.681 51.6114L142.061 51.2306H150.731L151.061 52.0369C154.744 60.9558 156.78 70.7346 156.78 80.9899C156.78 92.7096 154.127 103.808 149.387 113.711L148.62 115.312L99.2274 69.02V50.4406ZM68.0336 51.2306H93.9462V109.501H68.0336V52.5324V51.2306ZM53.8562 51.6144L40.5125 64.6516L27.4866 51.6835L50.6555 51.6226L53.8562 51.6144ZM107.866 51.6144L134.239 51.6835L121.21 64.6516L110.157 53.8524L107.866 51.6144ZM62.7523 75.5015V109.428L61.6242 109.578C60.7467 109.696 59.7116 109.917 58.4885 110.334C54.9681 111.532 50.0197 114.244 43.5212 120.201C37.1139 126.074 33.4488 130.399 31.3472 133.342C30.8756 134.002 30.4904 134.584 30.1612 135.111L29.3093 136.477L28.1547 135.353C23.6011 130.927 19.5978 125.936 16.2681 120.485L15.7198 119.583L60.5651 77.5506L62.7523 75.5015ZM99.2274 76.1463L146.01 119.994L145.45 120.899C142.165 126.199 138.248 131.059 133.799 135.38L132.639 136.505L131.787 135.134C131.455 134.601 131.069 134.012 130.59 133.342C128.488 130.399 124.82 126.074 118.413 120.201C111.914 114.244 106.965 111.532 103.445 110.334C102.24 109.924 101.218 109.705 100.347 109.585L99.2274 109.432V79.1479V76.1463ZM63.8581 114.537V114.778H64.5334H67.7726H94.2072H97.9074H98.9665C98.9561 114.778 98.9732 114.779 99.0396 114.759L99.2965 114.686L99.5646 114.716C100.085 114.782 100.818 114.929 101.772 115.254C104.429 116.158 108.794 118.437 114.901 124.035C121.098 129.716 124.518 133.789 126.357 136.362V136.367C127.264 137.637 127.783 138.532 128.065 139.08L128.556 140.035L127.711 140.699C122.965 144.417 117.762 147.578 112.2 150.09L111.017 150.624L110.479 149.445C110.31 149.072 107.835 143.715 103.368 138.258C98.7173 132.576 91.7486 126.518 82.5714 126.518C72.2862 126.518 64.9566 131.446 59.9396 136.827C54.9226 142.207 52.3067 148.027 51.6994 149.488L51.1886 150.72L49.9691 150.174C44.324 147.644 39.0459 144.442 34.2371 140.672L33.3892 140.008L33.8848 139.052C34.1682 138.504 34.6798 137.622 35.5765 136.367C37.4149 133.793 40.8349 129.716 47.0325 124.035C53.1393 118.437 57.5054 116.158 60.162 115.254C61.1351 114.922 61.8792 114.776 62.403 114.712L63.8581 114.537ZM82.5714 132.095C87.6551 132.095 92.1841 134.836 95.8613 138.335L98.2141 140.576H63.8845L66.5409 138.289C70.523 134.86 75.8652 132.095 82.5714 132.095ZM60.0005 145.854H102.033L102.417 146.452C103.892 148.754 104.786 150.482 105.18 151.291L105.836 152.635L104.412 153.096C97.037 155.485 89.1644 156.78 80.9894 156.78C72.8793 156.78 65.0688 155.505 57.7442 153.153L56.3744 152.712L56.9492 151.395C57.336 150.508 58.1833 148.739 59.6207 146.46L60.0005 145.854Z" transform="translate(8.57153 8.57143) scale(0.264583)" fill="black"/>
</svg>
