<svg width="165" height="152" viewBox="0 0 165 152" fill="none" xmlns="http://www.w3.org/2000/svg">
<path d="M6.36171 12.811C9.87516 12.811 12.7233 9.94318 12.7233 6.40551C12.7233 2.86784 9.87516 0 6.36171 0C2.84826 0 0 2.86784 0 6.40551C0 9.94318 2.84826 12.811 6.36171 12.811Z" transform="translate(131.693 124.434)" fill="white"/>
<path d="M6.36171 12.811C9.87516 12.811 12.7233 9.94318 12.7233 6.40551C12.7233 2.86784 9.87516 0 6.36171 0C2.84826 0 0 2.86784 0 6.40551C0 9.94318 2.84826 12.811 6.36171 12.811Z" transform="translate(19.6501 124.434)" fill="white"/>
<path d="M99.9797 0H0V99.9797H99.9797V0Z" transform="translate(81.8966 3.43573) scale(0.99656 1.00343) rotate(45)" fill="white"/>
<path d="M7.11432 0C3.19446 0 0 3.21574 0 7.16262C0 11.1095 3.19446 14.3252 7.11432 14.3252C11.0342 14.3252 14.2279 11.1095 14.2279 7.16262C14.2279 3.21574 11.0342 0 7.11432 0ZM7.11432 1.5143C10.2214 1.5143 12.724 4.03415 12.724 7.16262C12.724 10.2911 10.2214 12.8109 7.11432 12.8109C4.00726 12.8109 1.50394 10.2911 1.50394 7.16262C1.50394 4.03415 4.00726 1.5143 7.11432 1.5143Z" transform="translate(130.941 123.677)" fill="#ACD8D0"/>
<path d="M7.11432 0C3.19446 0 0 3.21574 0 7.16262C0 11.1095 3.19446 14.3252 7.11432 14.3252C11.0342 14.3252 14.2279 11.1095 14.2279 7.16262C14.2279 3.21574 11.0342 0 7.11432 0ZM7.11432 1.5143C10.2214 1.5143 12.724 4.03415 12.724 7.16262C12.724 10.2911 10.2214 12.8109 7.11432 12.8109C4.00726 12.8109 1.50394 10.2911 1.50394 7.16262C1.50394 4.03415 4.00726 1.5143 7.11432 1.5143Z" transform="translate(18.8979 123.677)" fill="#ACD8D0"/>
<path d="M71.5165 0L70.9849 0.535376L0 72.0095L71.5165 144.019L143.033 72.0095L71.5165 0ZM71.5165 2.14155L140.906 72.0095L71.5165 141.877L2.12693 72.0095L71.5165 2.14155Z" transform="translate(10.38 2.36533)" fill="#ACD8D0"/>
<path d="M66.7689 0L66.2372 0.535376L0 67.2292L66.7689 134.458L133.538 67.2292L66.7689 0ZM66.7689 2.14153L131.411 67.2292L66.7689 132.317L2.12684 67.2292L66.7689 2.14153Z" transform="translate(15.1276 7.1451)" fill="#ACD8D0"/>
<path d="M112.258 0H0V113.032H112.258V0Z" transform="translate(25.7676 17.8585)" fill="#FEFDFE"/>
<path d="M0 0V0.946439V114.925H114.138V0H0ZM1.87992 1.89288H112.258V113.032H1.87992V1.89288Z" transform="translate(24.8277 16.9118)" fill="#ACD8D0"/>
<path fill-rule="evenodd" clip-rule="evenodd" d="M1.44739 0L0 0.288368V23.76H23.8485L24.0483 22.2731C24.0483 22.2731 8.84367 18.0863 1.44739 0ZM1.50394 3.74804C7.02778 14.7628 15.327 20.0015 20.0358 22.2457H1.50394V3.74804Z" transform="translate(29.3123 103.2)" fill="#ACD8D0"/>
<path fill-rule="evenodd" clip-rule="evenodd" d="M22.6009 0C15.2046 18.0863 0 22.2731 0 22.2731L0.200476 23.76H24.0483V0.288368L22.6009 0ZM22.5443 3.74804V22.2457H4.01245C8.72135 20.0015 17.0205 14.7628 22.5443 3.74804Z" transform="translate(110.525 103.2)" fill="#ACD8D0"/>
<path d="M45.4434 0.00752768C43.787 -0.0441906 41.0758 0.11291 41.0102 2.34996C40.4165 5.04939 42.69 7.11633 44.9962 7.92286C45.9115 8.3804 46.3445 8.69531 45.1063 8.20975C42.422 7.46541 38.8074 8.05641 37.5507 10.862C38.1168 9.18839 37.0719 7.39226 35.2911 7.24335C28.424 6.01424 21.3719 6.50689 14.4255 6.36641C9.76841 6.56188 4.99111 6.18535 0.414181 7.11321C-0.838334 8.37314 1.08951 10.0819 1.72425 11.2332C3.95658 14.1927 8.22753 13.0178 11.3728 13.3099C17.5716 13.5197 23.8392 12.7273 29.9972 13.5305C31.5522 14.1619 30.1723 14.6286 29.0237 14.2694C22.9292 14.282 16.7473 13.3349 10.6928 14.2529C7.85516 14.7242 7.8508 18.3871 9.01334 20.3944C11.0129 23.537 15.3405 22.3756 18.2227 21.3645C22.7091 19.6358 26.8413 17.1181 31.1332 14.9701C33.081 18.1417 35.857 21.0785 39.2742 22.6134C41.3794 22.4078 41.2382 19.3329 40.289 17.9632C39.5192 16.4233 37.5754 14.9289 37.4192 13.4418C38.4743 16.7881 42.9345 18.4184 45.6894 16.0615C46.3621 15.551 47.1054 14.7206 47.537 14.1804C46.6221 16.648 43.8671 17.0333 42.0294 18.418C40.3389 21.0593 41.1962 24.5127 40.9302 27.4794C40.1737 29.7121 41.6936 30.4527 43.1383 30.0215C41.9385 29.957 39.97 31.3842 41.5896 32.3757C45.197 33.603 49.2653 33.4132 52.9359 32.5524C54.4302 32.2103 53.9074 30.2531 52.5335 30.2026C50.2005 29.5805 54.9866 30.8129 53.7316 28.8591C53.8209 19.6398 53.6558 10.3475 54.492 1.20462C52.9232 -0.471957 50.1537 0.315219 48.1179 0.0149131C47.2265 0.00448331 46.3349 -0.00617496 45.4434 0.0075219V0.00752768ZM116.742 0.854147C117.164 10.4817 117.556 20.1106 117.959 29.739C118.898 29.8589 122.175 29.8112 119.829 30.0791C118.596 29.9726 116.496 31.4506 118.084 32.5391C121.1 33.5804 124.44 32.9148 127.564 32.8186C128.784 32.9724 130.658 31.4652 129.113 30.5028C127.564 29.962 127.631 30.0378 129.431 30.0705C130.387 29.2465 129.478 26.5516 129.752 25.043C129.792 22.4336 129.996 19.0026 127.312 17.5492C126.055 16.579 123.443 15.565 123.81 13.8625C125.3 16.2528 128.448 18.1292 131.154 16.5406C132.564 15.9461 133.861 14.3265 134.489 13.3486C133.75 15.6394 131.278 17.0189 130.751 19.496C130.093 20.7113 130.794 23.2288 132.481 22.4049C135.754 20.1196 138.972 17.2311 140.514 13.4906C147.047 12.5874 153.686 13.5254 160.262 13.4722C163.179 13.2453 167.156 14.3355 169.095 11.421C169.725 10.2439 171.48 8.5431 170.331 7.24851C166.758 6.22787 162.878 6.75612 159.192 6.51805C151.774 6.6542 144.284 6.0798 136.911 7.04739C135.451 7.26518 133.955 8.48377 134.256 10.076C132.395 7.33711 127.984 6.844 125.416 8.76503C124.848 9.22324 124.297 10.098 123.992 10.5411C125.017 7.53891 129.687 7.37105 129.721 3.75704C130.176 2.03911 129.072 0.0338003 127.152 0.186452C123.674 -0.0167577 120.188 0.0933495 116.706 0.0622321C116.718 0.3262 116.73 0.590167 116.742 0.854135L116.742 0.854147ZM78.892 11.3685C79.0139 13.8804 79.0794 16.3681 79.1402 18.8794C78.8659 17.2391 79.1526 14.8221 77.5305 13.8854C74.2736 14.1893 71.3597 16.1725 68.3104 17.2719C64.8986 18.787 61.5129 20.3609 58.1145 21.9065C58.0995 24.1342 58.0934 26.783 58.0748 28.7519C57.754 26.8856 58.3126 24.442 56.9263 22.9668C55.1568 22.6459 55.3241 25.2274 55.0354 26.3639C54.7914 31.0815 54.4206 35.9366 55.4136 40.5883C55.7897 41.2993 55.8632 41.5365 54.7879 41.3233C54.7879 46.0483 54.7879 50.7734 54.7879 55.4984C55.3705 55.7165 58.9874 55.0424 57.7312 55.7801C56.9875 56.2709 56.8649 57.671 56.858 58.1285C56.8543 56.6519 54.6833 55.4071 54.0646 57.1835C53.8579 59.0323 54.6916 60.8619 54.8922 62.7002C55.1432 63.7809 56.0273 64.5997 56.822 65.2342C55.6404 64.2811 54.9813 65.6724 55.0971 66.8194C54.4025 69.9018 55.3432 73.0958 57.4866 75.3847C59.9215 77.9734 61.458 81.3922 61.0533 84.9304C61.0263 85.956 60.8044 88.509 62.547 87.7919C64.771 86.1288 67.9211 85.0882 69.1451 82.4083C69.6373 79.5965 69.7446 76.5721 69.1244 73.775C68.7806 72.7102 67.3878 71.8267 66.8685 71.42C67.7578 72.1658 69.8771 72.5664 69.7757 70.8189C69.1835 68.2609 66.2499 67.1849 64.379 65.7029C61.9286 63.8135 58.2407 62.8606 57.1597 59.7123C58.059 61.5285 60.5812 62.7774 62.4301 63.8884C65.1536 65.7269 68.7981 66.7021 70.5226 69.6772C70.3577 71.2692 71.8263 72.9777 73.4453 72.1025C77.5973 70.8096 79.4263 66.3845 79.8129 62.3679C79.8005 60.5469 81.0183 57.8857 79.251 56.5661C76.2324 55.413 74.0215 58.5283 71.7548 59.9097C70.8319 60.316 68.9308 60.6638 70.7766 59.9526C71.9763 59.2552 74.4797 58.178 73.6406 56.4153C73.2628 55.5666 70.6124 55.3771 72.5494 55.3986C74.9282 55.0362 77.9653 55.8376 79.8862 54.0344C80.314 53.7932 79.9976 56.3349 80.1866 57.0171C80.5726 61.5148 80.3184 66.1671 81.4187 70.5571C83.2506 72.9189 86.9533 72.7462 89.4473 71.5805C91.556 70.2205 90.7232 67.1448 91.2174 65.0459C91.5672 61.5668 91.5072 56.9957 91.9133 54.1948C93.9161 55.9266 96.925 54.926 99.3206 55.2275C100.044 55.252 103.129 55.1368 101.075 55.2773C99.7339 55.3172 96.6397 55.8229 97.7734 57.8327C98.7332 59.0133 100.518 59.7022 101.592 60.326C98.2661 60.0915 96.8524 55.8483 93.6008 55.633C91.269 56.3586 91.9454 59.5539 91.9661 61.3981C92.1581 65.6982 93.9248 70.6645 98.3763 72.1069C100.541 73.1272 101.44 70.5317 101.637 68.8816C104.85 65.2732 110.058 64.2842 113.375 60.7386C110.396 64.6229 104.663 65.5767 102.168 70.0225C101.661 71.373 103.386 72.3734 104.449 71.5494C101.411 73.4921 102.406 77.5045 102.379 80.5117C102.321 84.3974 106.564 85.8327 109.167 87.6884C111.035 89.3118 110.165 85.0746 110.751 83.9393C110.919 82.4932 111.374 80.2306 111.846 79.2976C111.312 81.596 112.795 84.135 114.918 84.9541C116.751 84.2565 115.858 81.5945 116.083 80.0897C115.76 78.8153 116.688 76.0881 114.77 75.8949C113.99 75.8334 112.404 77.6925 113.349 76.4311C115.504 73.3196 116.855 69.4338 116.766 65.6349C116.474 64.3741 114.754 65.0203 114.309 65.3635C117.08 63.5568 117.755 59.6803 116.594 56.7524C115.229 55.1227 112.689 55.5452 110.809 55.6492C107.993 56.3162 106.605 60.0606 103.89 60.2698C105.674 59.857 109.384 57.0034 106.281 55.6862C105.472 55.3074 103.79 55.2079 103.465 55.1827C107.682 54.879 112.177 55.4183 116.183 53.8517C117.578 53.0996 116.505 51.3488 115.175 51.4435C108.243 50.6387 101.201 50.8843 94.2492 51.3185C93.3862 51.4521 92.3576 51.6125 91.8538 52.4232C92.1866 51.8819 91.3969 48.6641 92.4148 50.083C95.7006 51.2072 99.3617 50.6466 102.786 50.8476C107.275 50.656 111.907 51.0353 116.307 50.1118C117.35 48.5667 116.439 46.3884 116.36 44.6277C116.082 43.3766 116.073 41.1332 114.998 41.2523C116.347 38.3686 115.897 34.9299 116.114 31.8153C115.932 28.833 116.295 25.5858 115.085 22.8012C113.694 21.684 112.999 23.999 113.019 25.0697C112.899 26.2771 112.863 28.9958 112.879 26.2165C112.579 24.2243 113.943 21.1701 111.088 20.8082C105.743 18.4624 100.604 15.4194 94.9762 13.8307C93.1817 14.1397 93.3836 16.6385 93.0412 18.0194C92.8678 19.3919 92.7509 20.7708 92.6513 22.1505C92.741 18.2828 92.8415 14.4361 92.9965 10.5788C88.2837 10.5788 83.5709 10.5788 78.8581 10.5788C78.8694 10.842 78.8807 11.1053 78.892 11.3685H78.892ZM148.462 13.9645C145.668 14.0427 142.812 13.8087 140.127 14.7705C145.375 17.6667 150.447 21.6247 156.547 22.3738C159.171 22.884 161.877 21.1199 162.271 18.4246C162.824 16.7021 162.379 14.114 160.16 14.0621C156.264 13.8746 152.36 13.9581 148.462 13.9645ZM139.721 16.8697C138.063 16.807 138.111 18.9545 139.022 19.8495C141.858 23.7196 145.484 26.9726 149.105 30.0806C151.659 32.249 155.846 29.2544 154.941 26.0841C153.864 23.1351 150.484 21.9388 148.056 20.3418C145.391 19.0389 142.721 17.2186 139.721 16.8697ZM30.805 16.9125C26.4503 17.8188 22.6011 20.384 18.8425 22.6762C16.9421 23.799 15.0478 25.8573 15.8765 28.2484C16.5601 30.6202 20.1165 32.0237 21.9114 30.0444C25.6732 26.8734 29.4902 23.5009 32.0835 19.2646C32.7233 18.1807 32.1926 16.7944 30.805 16.9125ZM85.9821 18.9178C87.2141 19.1413 84.5359 19.1118 85.9821 18.9178V18.9178ZM35.3043 20.5482C32.0083 21.6362 29.64 24.5651 27.0495 26.765C24.7299 29.294 21.4263 31.7333 20.9905 35.3851C21.1151 38.0387 25.0265 39.1035 26.9115 37.5627C30.4452 34.2159 32.6642 29.7041 35.1527 25.5669C35.594 24.6202 37.9584 20.7101 35.3043 20.5482ZM135.741 20.753C133.821 20.9813 134.834 23.4137 135.436 24.4486C137.801 28.8112 140.142 33.3995 143.746 36.8669C145.1 38.4034 148.167 39.0193 149.108 36.7249C150.754 33.454 147.602 30.5255 145.573 28.3726C142.629 25.6969 139.905 22.4486 136.217 20.8166C136.062 20.7772 135.902 20.7501 135.741 20.753ZM38.9033 23.2552C36.1364 24.2994 34.7961 27.4104 33.1101 29.6551C30.8663 33.5894 27.7525 37.2884 26.808 41.815C26.4094 43.9279 29.1509 46.5925 30.9533 44.6853C34.3993 40.2363 36.2111 34.742 38.5824 29.6799C39.053 27.7622 41.1779 25.4013 39.692 23.4977C39.4757 23.3133 39.1845 23.2272 38.9033 23.2552ZM132.143 23.403C130.199 23.6502 130.742 26.1511 131.388 27.35C134.02 33.1595 136.538 39.1508 140.326 44.3082C141.576 46.2002 144.108 44.7254 144.438 42.9093C144.83 40.2922 142.705 38.0619 141.714 35.8033C139.108 31.6847 136.855 27.1374 133.277 23.7742C132.944 23.5485 132.552 23.3799 132.143 23.403ZM38.6639 30.9967C36.5439 32.8946 36.5599 36.232 36.2002 38.8829C36.026 40.8549 35.9293 42.8332 35.8668 44.8118C35.5664 43.4563 36.405 40.8799 34.6067 40.416C33.0042 41.2374 32.8315 43.5282 32.1826 45.075C30.9377 50.6463 30.7464 56.5748 31.9726 62.1627C32.1696 63.4923 33.7418 66.1315 35.1075 64.5177C35.7966 62.6169 35.7641 60.5383 35.8683 58.5411C35.7826 62.9858 36.9943 67.3364 37.0557 71.7483C36.3589 72.8139 36.025 74.0948 35.9557 75.3899C36.1561 71.5468 34.9759 67.8092 32.8679 64.6246C31.808 63.4045 31.9569 61.3909 30.8623 60.3282C29.2282 60.2595 29.5317 62.8136 28.9742 63.9716C26.2141 75.539 26.9592 88.0559 31.4945 99.0568C32.019 99.6573 32.7615 98.7635 32.7069 99.8102C33.9066 101.147 35.2429 98.9185 35.9351 98.1059C34.9766 100.155 34.0865 102.46 33.9759 104.645C34.7682 106.165 35.6442 107.639 36.5196 109.111C36.6587 108.053 37.1081 110.595 37.9927 111.207C39.0469 112.665 40.1381 114.094 41.2092 115.539C41.4094 110.512 41.1371 104.919 41.1658 100.261C41.8711 96.4294 42.2383 92.3493 41.3788 88.5313C40.1226 87.1227 38.8179 89.5322 37.9509 90.3259C36.0666 92.6791 34.2835 95.1531 32.972 97.8819C33.0659 94.2864 35.4396 91.3162 35.5161 87.7158C35.6294 87.0343 35.7633 84.5627 35.7317 86.6998C35.3782 87.8307 36.409 89.7939 37.3641 88.1742C39.1064 85.659 42.407 82.9927 41.3223 79.5328C40.7258 63.7391 41.9627 47.7698 39.8851 32.0319C39.7871 31.4556 39.3222 30.791 38.6639 30.9967ZM132.194 31.2333C130.413 31.7674 131.17 34.3189 130.762 35.7075C130.189 46.5621 129.234 57.5113 130.455 68.3507C130.597 69.5718 131.167 72.3203 132.925 71.3512C134.532 69.0935 134.046 65.9735 134.475 63.3472C134.935 53.9771 135.427 44.528 134.468 35.1788C134.015 33.8924 133.741 31.5593 132.195 31.2333H132.194ZM86.7561 33.1092C86.474 34.1006 84.1031 33.0137 85.7625 33.2076C85.9589 33.3075 86.7857 32.9748 86.7561 33.1092ZM41.0718 34.2575C41.0891 43.6717 41.59 53.1246 42.9004 62.4459C44.2066 63.6633 45.6109 61.4356 46.7352 60.8197C49.5283 58.5099 52.9643 56.0153 53.1063 52.0018C53.6864 46.144 53.9568 40.2538 54.2746 34.3766C50.235 33.5934 46.0163 33.6363 41.8966 33.4994C41.085 33.4504 40.9159 33.311 41.0718 34.2575ZM128.814 33.524C124.826 33.4263 120.867 34.0563 116.885 34.1059C117.06 40.4756 116.479 47.0483 118.194 53.2551C120.001 58.2619 125.118 60.8132 128.913 64.0711C129.841 57.5382 129.326 50.8811 129.603 44.2994C129.634 40.707 129.706 37.1124 129.546 33.5218L129.17 33.5229L128.814 33.524ZM58.0124 41.0157C57.2559 41.9638 57.0412 41.1205 57.5255 40.314C57.8544 38.778 57.9488 37.2023 58.0411 35.6372C58.0317 37.4301 58.0219 39.2229 58.0125 41.0157H58.0124ZM112.896 37.2565C113.051 38.6094 112.885 40.2769 113.81 41.3639C111.915 42.4038 113.308 36.1268 112.896 37.2565ZM79.6469 40.9018C79.674 41.8274 79.9522 42.7885 79.0308 41.9939C75.7396 41.134 72.1616 41.6489 68.8557 41.4327C72.1791 41.0807 75.8567 41.7408 78.9434 40.2312C79.5889 40.0088 79.6737 38.114 79.6169 39.7215C79.6271 40.1149 79.6369 40.5084 79.647 40.9018H79.6469ZM135.049 40.1454C134.948 42.7899 135.761 45.5213 135.654 48.1959C135.993 53.3114 135.653 58.5519 136.285 63.6385C137.273 65.222 138.782 63.2577 139.225 62.1982C140.84 57.9967 140.133 53.2961 139.806 48.9193C139.337 45.6315 138.165 42.2833 136.02 39.7417C135.591 39.7684 135.107 39.4579 135.049 40.1454ZM92.2321 40.2585C92.4849 41.4456 94.5044 41.0827 95.588 41.3639C94.4548 41.0077 91.4835 42.2915 92.2321 40.2585ZM86.2641 41.0038C86.9454 41.2025 87.1312 41.895 86.3177 41.3713C84.6199 40.8751 83.4308 43.3066 84.7029 44.4058C82.3114 43.6692 84.7968 40.926 86.2641 41.0038ZM79.912 49.8797C79.6903 50.2173 80.466 53.2069 79.7336 52.1371C77.3667 50.439 74.1246 51.4222 71.4193 50.971C68.435 50.862 65.1877 50.807 62.3774 50.6767C67.306 50.1413 72.2543 51.0239 77.1883 50.6346C78.4168 50.4963 79.6022 49.6786 79.865 48.409C79.8808 48.8992 79.8962 49.3894 79.912 49.8797ZM84.5237 54.6584C85.0361 55.5078 87.1101 54.5541 85.7978 55.6907C85.327 56.7783 84.4411 54.844 84.5237 54.6584ZM66.0535 55.5132C64.4746 55.5795 63.6834 57.6073 65.0797 58.5418C65.9613 59.3327 67.0116 59.9104 68.0737 60.4162C64.5975 60.3527 62.9974 56.7955 60.1244 55.4947C62.0137 55.5067 64.5339 55.4654 66.0535 55.5132V55.5132ZM51.9578 58.4834C48.536 61.1569 44.902 63.6984 41.9171 66.8512C42.1203 83.6047 42.5326 100.356 42.8379 117.108C44.3861 118.669 45.9339 120.23 47.4819 121.791C47.6333 106.716 47.5502 91.6035 48.0408 76.5537C48.5638 91.8838 48.0911 107.265 48.5923 122.611C50.0112 123.42 52.1742 125.8 53.1188 125.619C53.6265 105.418 53.3346 85.202 53.3112 64.9954C53.2977 62.5349 53.1778 60.0769 53.1121 57.6175C52.7274 57.9062 52.3425 58.1948 51.9578 58.4834ZM118.464 58.4893C116.81 59.0291 117.676 61.4625 117.337 62.7687C116.83 83.7873 116.978 104.816 116.828 125.839C118.679 124.434 121.074 123.191 122.314 121.325C122.348 116.69 122.382 112.055 122.416 107.42C122.678 111.713 122.393 116.079 123.017 120.33C125.103 120.125 126.077 117.694 127.608 116.491C128.983 115.12 130.229 113.621 129.682 111.516C129.705 105.966 129.731 100.415 129.753 94.8651C130.531 98.6405 132.025 102.426 134.587 105.317C136.059 105.674 136.285 103.179 137.031 102.207C137.809 100.458 139.278 98.3721 137.913 96.5132C136.158 93.5311 134.516 90.0198 131.463 88.1986C130.81 87.7561 129.836 88.8568 129.768 88.7265C129.594 81.7036 130.115 74.5902 129.007 67.6298C128.129 64.8605 125.179 63.4542 123.224 61.5204C121.711 60.4684 120.302 58.9104 118.464 58.4893ZM139.145 62.6196C136.075 67.5728 135.104 73.4566 135.224 79.2126C135.204 84.8219 135.224 90.9687 138.418 95.8093C140.176 96.4126 140.009 93.5818 140.536 92.483C143.305 82.1441 142.999 71.0815 140.069 60.8118C139.761 61.4144 139.453 62.017 139.145 62.6196ZM91.9149 71.7697C88.8721 72.1462 85.7921 73.5612 82.7326 72.3051C81.0877 71.9071 78.254 70.9553 77.4057 73.0334C77.3243 73.6599 77.8143 74.2657 76.932 73.6915C73.4632 72.7476 70.2094 76.3071 70.0799 79.6592C69.8911 80.7255 69.8619 82.3807 71.2269 82.636C66.9763 85.4423 61.6022 88.2398 60.4629 93.7316C59.5077 97.1633 59.1652 101.252 59.122 104.471C58.9337 103.125 57.7566 101.818 56.5599 101.732C59.227 97.4563 60.6493 92.362 60.8051 87.3327C60.9284 85.4637 58.6278 84.6531 57.4345 85.9663C53.4891 88.9327 54.1138 94.4594 53.8574 98.8223C53.9494 104.665 53.4104 110.607 54.3488 116.389C55.3959 118 56.8271 115.75 57.4356 114.829C58.762 112.91 59.3901 110.46 59.4165 108.219C60.0303 110.108 60.1224 112.545 61.6078 113.95C62.3119 114.505 63.4562 112.355 62.533 113.874C60.5225 116.456 61.2579 119.759 61.1495 122.809C62.7636 124.864 66.5781 124.628 67.7131 122.195C66.7821 123.595 68.7128 125.234 69.8471 123.992C72.435 120.143 73.3378 115.35 73.8742 110.798C73.8588 109.15 74.4297 106.401 72.4716 105.693C69.6291 105.713 67.5287 108.23 65.5703 110.012C64.3565 111.36 66.304 108.972 66.6924 108.352C68.8587 104.875 73.2212 103.886 76.213 101.285C79.6719 98.4986 83.5966 95.5162 85.0598 91.1303C85.7994 87.3066 85.6341 83.3045 85.2228 79.4559C84.5984 76.9458 81.3465 77.2444 79.68 76.9648C79.9451 76.4735 79.1489 75.5721 79.9987 76.1071C84.0086 77.3029 88.5921 77.0727 92.4451 75.7721C91.7469 76.613 92.8703 78.0487 93.0678 78.1974C91.211 77.302 87.9387 76.5054 86.8207 78.8599C86.0821 82.6749 86.185 86.6978 86.6893 90.5469C87.8133 95.015 91.7946 97.9268 95.0769 100.81C99.5378 104.175 104.289 107.169 107.874 111.526C108.726 112.748 110.871 113.21 111.501 111.539C113.147 107.246 112.72 102.436 112.37 97.9394C111.788 93.9911 110.955 89.4783 107.272 87.2194C105.317 85.6824 102.982 84.2226 101.108 82.8889C103.064 82.8322 101.852 80.3298 101.676 79.2491C101.653 76.1759 99.0742 73.9325 96.3841 72.9927C95.8074 72.5501 94.7719 73.4461 94.5982 73.0785C94.2248 72.0018 92.9211 71.7119 91.9149 71.7697V71.7697ZM132.835 74.3517C131.145 75.1045 131.299 77.5556 130.81 79.1069C130.316 81.7807 130.281 85.4248 132.738 87.1198C134.642 87.016 134.285 84.3383 134.473 82.9773C134.373 80.2299 134.823 77.1846 133.598 74.6542C133.406 74.4445 133.119 74.3173 132.835 74.3517ZM55.3504 75.4091C53.7673 79.6861 53.632 84.3059 53.5799 88.8182C55.5703 86.4216 58.4597 84.6227 59.9173 81.8308C60.2787 79.3978 57.9161 77.6047 56.8889 75.6302C56.6067 75.0927 55.5097 74.4702 55.3504 75.4091ZM112.612 85.1833C110.59 85.6545 111.265 88.4568 111.359 89.9706C111.981 92.9914 112.121 96.3495 113.766 99.0205C115.367 100.027 115.714 97.4123 115.707 96.3394C115.679 93.1561 116.456 89.5704 114.745 86.7057C114.195 86.0472 113.543 85.2107 112.612 85.1833ZM85.5944 93.1829C83.7926 93.6055 83.3048 95.8893 81.8819 96.8616C79.2226 99.9766 75.0254 102.529 74.8436 107.083C74.315 111.802 73.7281 116.671 74.7966 121.357C74.1854 120.083 72.1217 120.404 72.2837 121.944C72.5649 125.784 73.3699 129.495 73.5203 133.359C74.0595 135.52 77.0378 134.641 78.5608 135.264C79.0324 131.824 77.9642 128.443 76.7837 125.262C79.9028 128.828 85.1331 128.401 89.3814 127.941C92.2832 127.623 93.959 124.918 95.9626 123.124C94.4809 125.05 92.9331 127.584 92.5736 129.705C91.2065 127.89 88.4331 128.734 86.508 128.404C84.2104 128.569 81.3889 127.884 79.4949 129.493C78.4597 131.208 78.6171 134.652 81.1178 134.907C82.3791 135.147 84.7603 135.336 85.2059 135.596C83.5754 135.702 80.4609 134.993 80.2087 137.414C79.9119 142.714 80.1082 148.034 80.0464 153.341C83.8157 152.925 87.594 152.78 91.3817 152.528C91.6549 146.644 91.1015 140.595 91.9538 134.862C92.4323 133.97 92.5826 135.563 93.4034 134.995C94.9826 134.388 97.2737 134.885 98.4402 133.533C98.6834 133.074 98.5566 131.761 98.7376 133.012C98.9106 134.064 99.0671 135.805 99.9691 136.012C98.9145 136.811 98.5412 138.813 99.8267 139.128C98.8883 140.337 98.3695 143.572 100.647 143.443C102.687 142.724 104.404 140.862 105.225 138.883C105.099 137.83 105.13 137.891 106.049 138.698C106.758 139.26 107.778 140.198 108.248 140.605C106.821 139.536 103.584 140.23 103.779 142.33C103.72 143.031 105.741 143.428 104.509 143.324C102.526 143.626 99.505 142.9 98.3859 145.051C97.8114 147.137 100.398 147.738 101.925 147.423C105.309 146.855 108.812 147.074 112.106 146.123C113.536 145.519 112.594 143.626 111.246 143.755C110.217 143.498 108.412 143.45 107.819 143.354C109.06 143.386 109.818 141.769 108.734 140.991C109.603 142.166 111.586 142.14 111.712 140.437C112.107 138.593 109.829 136.437 109.529 135.684C111.232 136.556 111.837 134.249 111.619 132.98C111.375 131.778 112.275 128.991 110.361 129.259C106.805 130.442 102.885 128.878 99.3281 129.88C98.2032 131.155 98.786 129.002 98.6965 128.311C98.6564 127.769 99.7096 128.794 100.26 128.476C103.977 128.311 107.988 128.828 111.474 127.301C112.717 125.894 110.247 124.761 109.05 124.799C105.819 124.665 102.138 124.155 99.2627 125.947C98.3042 127.055 99.2266 124.374 99.6703 123.826C99.8063 121.544 98.2322 119.458 98.208 117.134C97.0768 112.201 98.0627 106.55 95.0659 102.192C92.4326 99.0359 89.7429 95.7528 86.3816 93.3692C86.1366 93.2526 85.8674 93.1715 85.5944 93.1829ZM114.185 102.026C112.501 102.908 112.984 105.398 112.743 107.01C112.769 109.558 112.655 112.717 114.552 114.626C116.376 114.824 115.857 112.192 116.002 111.056C115.796 108.214 116.517 105.031 115.155 102.42C114.929 102.13 114.552 101.947 114.185 102.026ZM131.144 102.809C129.996 103.959 130.634 106.127 130.253 107.655C130.485 109.132 129.211 111.572 131.036 112.235C132.256 110.57 133.749 108.829 134.331 106.857C133.642 105.4 133.071 103.13 131.321 102.729L131.144 102.809ZM98.59 105.255C96.4391 104.898 97.3842 107.402 97.313 108.833C97.9709 113.421 98.6418 118.169 100.612 122.394C101.164 124.238 104.078 125.252 104.529 122.956C106.081 124.084 108.918 124.92 110.295 123.157C111.224 120.559 110.899 117.498 109.914 114.947C107.708 110.702 103.873 107.248 99.5021 105.391C99.206 105.306 98.8992 105.246 98.59 105.255ZM59.6566 113.521C57.7813 114.22 57.1531 116.617 56.2706 118.267C55.2184 121.1 55.2699 124.177 54.9186 127.142C56.3086 127.693 57.7816 129.359 59.1809 129.113C59.9298 128.659 59.227 126.901 60.2529 128.014C63.701 129.094 67.4665 128.59 71.0088 128.267C72.3223 128.377 73.4796 126.662 72.1125 125.849C68.9386 124.01 64.9858 124.138 61.455 124.458C60.7642 124.489 59.3188 125.987 60.1134 124.435C60.9952 121.168 61.2455 117.582 60.5584 114.259C60.4232 113.869 60.0992 113.497 59.6566 113.521V113.521ZM112.275 113.659C110.732 114.561 111.555 116.91 111.302 118.383C111.052 121.818 112.094 125.106 112.748 128.429C114.74 127.529 116.401 126.442 115.609 123.976C115.559 120.483 115.589 116.309 112.894 113.723C112.699 113.64 112.481 113.597 112.275 113.659ZM60.8786 129.325C59.7181 130.514 60.5187 132.663 60.3888 134.216C60.2425 135.5 61.7134 136.545 62.7651 135.626C61.4289 137.131 59.2043 139.337 60.3139 141.506C60.9173 142.591 62.6638 141.199 62.6836 141.327C61.9107 141.953 62.1323 143.347 63.213 143.418C61.8921 143.504 58.9059 143.442 59.2909 145.481C60.8702 147.178 63.6677 146.624 65.7415 147.103C68.2409 147.44 71.7559 148.233 73.5159 145.782C73.7709 143.867 71.0784 143.69 69.7208 143.508C69.2544 143.253 66.6984 143.791 68.0193 143.031C68.8117 141.661 67.1268 140.094 65.9125 139.623C65.24 139.404 64.1078 140.078 65.3764 139.169C66.1333 138.409 66.4028 137.964 66.5984 139.129C67.9399 140.897 69.7649 142.602 71.8548 143.358C73.5732 143.035 72.9933 140.411 71.9165 139.552C71.4197 138.885 69.6886 137.924 71.2827 138.587C72.7352 139.167 73.2825 137.193 72.2359 136.402C71.9884 135.908 70.623 134.898 70.8612 134.86C72.9358 135.386 73.1048 132.211 72.1287 131.05C70.4328 129.37 67.7251 129.596 65.5383 129.624C64.3527 130.122 66.2062 131.536 66.8757 132.049C67.4304 132.544 68.3156 133.073 67.1829 132.634C66.2249 132.348 64.9354 133.668 64.7361 133.69C65.8116 132.442 65.7439 129.455 63.5222 129.795C62.2711 130.573 61.9758 128.972 60.8786 129.325ZM67.5692 136.884C68.0807 137.1 69.0091 137.472 67.9026 137.203C67.4548 137.141 67.0302 137.43 67.5692 136.884ZM84.9437 153.864C83.035 154.141 80.0288 153.537 79.0183 155.669C78.4969 158.082 81.1631 159.669 83.2878 159.256C85.9207 159.012 89.3035 159.622 91.2628 157.432C92.2865 156.084 91.3546 153.955 89.5921 154.06C88.0506 153.88 86.4942 153.851 84.9437 153.864Z" transform="translate(1.98846 2.15453) scale(0.940066)" fill="white"/>
<path d="M126.468 0.00409331C125.242 0.0326833 123.807 0.210489 122.132 0.526853L118.61 1.19232V12.2864C118.61 20.6816 118.277 23.3797 117.24 23.3797C116.486 23.3797 115.419 22.9531 114.869 22.4317C114.318 21.9104 109.718 19.7052 104.647 17.531C99.5748 15.3567 95.4247 13.1571 95.4247 12.6427C95.4247 12.1284 92.1049 11.7074 88.0475 11.7074C83.99 11.7074 80.6702 12.1123 80.6702 12.6073C80.6702 13.1022 78.6549 14.3649 76.1915 15.4133C73.728 16.4617 68.6952 18.683 65.0074 20.3496C61.3196 22.0162 57.8199 23.3797 57.2307 23.3797C56.5265 23.3797 56.4153 19.7455 56.9062 12.7744L57.653 2.16907L54.7325 1.05109C53.1261 0.436121 49.902 0.0748356 47.5682 0.248836C43.7682 0.532155 43.2214 0.933534 42.328 4.08783L41.33 7.60961L22.0946 6.85838C11.515 6.44511 2.07397 6.41025 1.11513 6.78074C-0.458096 7.38861 -0.415283 7.75555 1.55427 10.5406C2.75471 12.2381 3.73747 14.1498 3.73747 14.7892C3.73747 15.4287 4.92249 15.9523 6.37156 15.9523C8.59957 15.9523 9.00639 16.4459 9.00639 19.1525C9.00639 21.7655 9.68352 22.6783 12.695 24.1242C15.3258 25.3874 16.3836 26.5925 16.3836 28.327C16.3836 29.7342 17.4671 31.474 18.9553 32.4558C20.3698 33.3891 21.6743 35.186 21.8537 36.4494C22.0332 37.7127 23.4842 39.3744 25.0782 40.1412C27.0552 41.0923 27.9767 42.3479 27.9767 44.0926C27.9767 45.5642 28.8715 47.1332 30.0843 47.7867C31.862 48.7447 32.1918 50.0084 32.1918 55.8588C32.1918 56.2168 32.2016 56.528 32.2065 56.8607C29.4439 63.7435 27.9172 71.2608 27.9172 79.1375C27.9172 102.614 41.4347 122.917 61.0507 132.612C61.0628 132.99 61.0756 133.371 61.0948 133.756C61.2824 137.475 61.0311 141.94 60.536 143.678C59.9528 145.725 60.0475 147.338 60.8047 148.256C62.554 150.397 73.0399 150.089 74.9306 149.552C75.8455 148.546 76.3517 143.243 76.3361 137.697C77.6525 137.94 78.9835 138.14 80.3287 138.294C80.5227 144.564 80.5491 154.034 80.3363 158.145C80.0715 162.516 88.3815 161.648 92.3354 161.571L93.8548 160.902L94.7088 159.946C95.4876 155.841 94.9251 148.202 94.9284 144.283C94.934 141.819 94.9506 139.876 94.9791 138.147C96.687 137.917 98.3712 137.611 100.03 137.236C100.08 142.9 100.389 148.641 100.908 149.164C100.965 149.221 101.012 149.442 101.051 149.76C104.872 150.256 112.115 149.977 114.922 148.959C115.017 148.681 115.128 148.454 115.255 148.299C116.01 147.383 116.063 145.541 115.414 142.723C114.88 140.408 114.729 136.266 115.077 133.518C115.162 132.846 115.219 132.153 115.253 131.474C133.675 121.384 146.191 101.728 146.191 79.1375C146.191 72.1173 144.978 65.382 142.759 59.1269C142.813 58.2124 142.845 57.2229 142.846 56.0821C142.85 49.9247 143.127 48.9017 144.957 48.3168C146.445 47.8414 147.065 46.7115 147.065 44.4764C147.065 41.9114 147.666 41.0984 150.227 40.1996C152.497 39.4028 153.389 38.405 153.389 36.6623C153.389 35.2445 154.484 33.5127 156.023 32.4972C157.565 31.4801 158.658 29.75 158.658 28.327C158.658 26.5925 159.715 25.3874 162.346 24.1242C165.358 22.6783 166.035 21.7655 166.035 19.1525C166.035 16.5432 166.473 15.9502 168.406 15.9434C170.058 15.9377 171.496 14.6677 173.148 11.754C174.453 9.45424 175.52 7.23997 175.52 6.83324C175.52 6.4265 166.142 6.43185 154.679 6.84507L133.838 7.59631L132.811 4.08117C131.963 1.17742 130.149 -0.0816817 126.468 0.00409331H126.468ZM50.17 2.15724C53.7674 2.15724 56.2949 2.58133 55.9589 3.12882C55.6308 3.66332 55.3029 10.1096 55.2304 17.4541L55.0989 30.8077H49.4416H43.7849V25.5735C43.7849 21.3944 44.1818 20.2131 45.7537 19.7107C51.878 17.7535 52.618 10.8895 46.9595 8.52944C44.6871 7.58171 43.7849 6.48732 43.7849 4.68083C43.7849 2.30049 44.1483 2.15724 50.17 2.15724ZM119.527 2.15724H125.392C130.91 2.15724 131.257 2.31018 131.257 4.75181C131.257 6.53786 130.353 7.7808 128.359 8.73869C126.222 9.76488 125.374 11.0367 125.13 13.5818C124.851 16.4873 125.308 17.3259 128.021 18.8804C130.903 20.5321 131.244 21.2587 131.25 25.7672L131.257 30.8077H125.987C123.089 30.8077 120.713 30.6889 120.706 30.543C120.699 30.3971 120.431 23.9501 120.111 16.217L119.527 2.15724ZM20.659 8.53979C27.5233 8.56265 34.1975 8.76889 36.2248 9.17715C39.1109 9.75834 39.4033 10.1543 38.8817 12.7803C38.4689 14.8584 38.8997 16.3387 40.3379 17.7868C41.4609 18.9176 42.3793 20.639 42.3794 21.6117C42.3794 22.5844 42.0204 23.3797 41.5819 23.3797C40.0534 23.3797 34.4071 17.9651 33.745 15.8643C33.1171 13.8726 32.2789 13.7663 19.5068 14.0543C6.97383 14.3368 5.81431 14.1982 4.34331 12.2383C3.46723 11.071 2.73516 9.75758 2.71674 9.31986C2.69418 8.78394 11.8334 8.51041 20.659 8.53979ZM153.978 8.55088C162.885 8.52879 172.358 8.81165 172.358 9.3487C172.358 9.80247 171.66 11.1773 170.807 12.4039C169.331 14.5249 168.583 14.6093 155.526 14.1179C144.164 13.6902 141.796 13.8595 141.796 15.0991C141.796 15.9229 140.231 18.1234 138.32 19.9887C136.408 21.8541 134.512 23.3797 134.105 23.3797C132.484 23.3797 133.497 19.4933 135.587 17.6914C137.235 16.2706 137.655 15.0048 137.215 12.7914C136.73 10.3491 137.045 9.69331 138.946 9.18011C140.464 8.77009 147.05 8.56806 153.978 8.55088ZM130.997 9.7428C132.91 9.71028 134.949 10.4638 135.849 11.9107C136.701 13.2817 136.501 14.221 135.001 15.8895C132.658 18.4971 129.911 18.6907 127.643 16.4071C125.632 14.382 125.595 13.7149 127.357 11.2889C128.098 10.269 129.509 9.7681 130.997 9.7428ZM44.8446 10.1155C49.4895 10.1155 51.283 12.8855 48.5831 15.8895C46.2544 18.4803 43.4958 18.6928 41.2705 16.4522C38.5953 13.7585 40.65 10.1155 44.8446 10.1155ZM81.7328 12.7684H88.0475H94.3628L93.696 41.6844C93.3205 57.9772 92.5757 71.1801 91.9902 71.9275C91.4186 72.6571 89.6444 73.254 88.0475 73.254C86.4505 73.254 84.6764 72.6571 84.1048 71.9275C83.5192 71.1801 82.7744 57.9772 82.3989 41.6844L81.7328 12.7684ZM79.3528 15.9435C80.3057 15.9495 80.7229 18.8881 80.859 26.5635C80.9625 32.3998 81.0805 38.2491 81.1219 39.5623C81.1943 41.8591 80.8097 41.9618 70.9945 42.2522L60.7916 42.5539L60.7534 33.2322L60.7145 23.9105L69.3753 19.9229C74.1386 17.7297 78.6283 15.9389 79.3528 15.9435ZM97.0527 15.9523C97.7758 15.9523 101.974 17.6764 106.381 19.7839L114.395 23.6155V33.0481V42.4807H104.972C99.7894 42.4807 95.3179 42.1038 95.0355 41.6437C94.7531 41.1836 94.7959 35.2148 95.1302 28.3795C95.5653 19.4845 96.1117 15.9523 97.0527 15.9523ZM153.74 15.9523C163.667 15.9523 163.927 16.0139 163.927 18.3923C163.927 19.7347 163.358 21.406 162.663 22.1064C160.631 24.1516 156.431 23.5168 150.415 20.2549C147.33 18.5824 144.523 16.9301 144.178 16.583C143.834 16.236 148.136 15.9523 153.74 15.9523ZM17.9573 16.058C19.2994 16.0634 20.8968 16.1046 22.7952 16.1712L31.6653 16.4825L25.1083 19.931C16.1317 24.6526 11.114 24.2796 11.114 18.89C11.114 16.6871 12.1415 16.0347 17.9573 16.058ZM141.975 19.0001C143.189 19.059 145.625 20.0498 149.24 22.0324C154.75 25.0535 156.537 26.5896 156.543 28.307C156.546 29.5578 155.8 30.8705 154.883 31.2247C152.4 32.1839 152.588 32.2944 146.284 26.1945C141.321 21.3929 139.951 18.902 141.975 19.0001ZM32.8939 19.1111C34.8732 18.9934 33.589 21.3844 28.9284 26.1361C25.8359 29.2891 22.8152 31.8313 22.2158 31.7852C19.6743 31.5898 18.4926 30.4889 18.5095 28.3322C18.5231 26.5843 20.2785 25.0812 25.8309 22.0642C29.344 20.1554 31.7062 19.1816 32.8939 19.1111ZM88.0475 19.6656C87.178 19.6656 86.3153 20.7407 86.1301 22.0539C85.8709 23.8915 86.3124 24.4414 88.0475 24.4414C89.7825 24.4414 90.224 23.8915 89.9648 22.0539C89.7797 20.7407 88.9169 19.6656 88.0475 19.6656ZM88.0475 21.2575C88.6271 21.2575 89.1012 21.735 89.1012 22.3186C89.1012 22.9022 88.6271 23.3796 88.0475 23.3796C87.4678 23.3796 86.9937 22.9022 86.9937 22.3186C86.9937 21.735 87.4678 21.2575 88.0475 21.2575ZM37.4835 22.7467C38.9236 22.6658 37.2439 26.3629 32.3982 33.7261C28.8562 39.1082 27.9031 39.7421 25.0782 38.5944C22.2964 37.4641 24.001 33.9966 30.1606 28.2545C34.0527 24.6264 36.4982 22.802 37.4835 22.7467ZM137.928 22.797C139.019 22.9209 141.71 25.0016 145.981 29.0775C149.762 32.6863 151.298 34.9265 151.074 36.5056C150.466 40.7971 146.808 39.7634 143.215 34.2844C138.339 26.8486 136.529 22.986 137.732 22.7985C137.79 22.7893 137.856 22.7887 137.928 22.7969V22.797ZM116.503 24.4414C117.122 24.4414 117.556 28.155 117.556 33.4607C117.556 38.7664 117.122 42.4807 116.503 42.4807C115.883 42.4807 115.449 38.7664 115.449 33.4607C115.449 28.155 115.883 24.4414 116.503 24.4414ZM58.6612 24.9339C59.2563 24.947 59.5931 27.9754 59.5931 33.3986C59.5931 38.7461 59.1591 42.4807 58.5386 42.4807C57.9245 42.4807 57.4848 38.964 57.4848 34.0537C57.4848 29.4191 57.9589 25.3323 58.5386 24.9716C58.5805 24.9454 58.6216 24.933 58.6612 24.9339V24.9339ZM41.1552 25.4455C41.4935 25.4768 41.6766 25.8356 41.6766 26.5443C41.6766 27.1173 39.8406 31.5876 37.5966 36.4782C33.1573 46.1531 32.0201 47.4825 30.1371 45.198C28.7378 43.5003 29.7842 41.0056 35.9987 31.224C38.4141 27.4221 40.2908 25.3656 41.1552 25.4455ZM134.682 25.538C136.272 25.5811 146.011 41.1675 146.011 43.6689C146.011 44.6414 145.297 45.7128 144.425 46.0498C143.257 46.5013 141.593 44.1629 138.102 37.1644C133.059 27.0537 132.596 25.4814 134.682 25.538ZM87.4842 30.9896C86.8468 30.9724 86.2023 31.1801 85.7027 31.6832C84.8731 32.5185 84.9369 33.305 85.9318 34.5121C87.5776 36.5088 89.4967 36.0923 89.97 33.6352C90.2549 32.156 88.8865 31.0275 87.4842 30.9896ZM49.5811 31.8695C52.7691 31.8695 55.3773 32.3469 55.3773 32.9305C55.3773 33.5142 52.7691 33.9916 49.5811 33.9916C46.3931 33.9916 43.7849 33.5142 43.7849 32.9305C43.7849 32.3469 46.3931 31.8695 49.5811 31.8695ZM126.05 31.8695C128.914 31.8695 131.257 32.3469 131.257 32.9305C131.257 33.5142 128.621 33.9916 125.398 33.9916C121.761 33.9916 119.787 33.5894 120.191 32.9305C120.549 32.3469 123.186 31.8695 126.05 31.8695ZM87.5723 32.3804C88.3117 32.3774 89.1012 32.8235 89.1012 33.5235C89.1012 33.7809 88.3622 33.9916 87.4585 33.9916C86.5548 33.9916 86.1134 33.5059 86.4774 32.9128C86.703 32.5453 87.1287 32.3822 87.5723 32.3804ZM40.9944 33.1427C41.4639 33.0647 41.6577 35.4556 42.1253 42.0962C42.5316 47.8671 42.7354 59.0325 42.5776 66.9084C42.4199 74.7844 42.5818 81.7026 42.9375 82.2821C43.2932 82.8617 42.4456 84.7683 41.0546 86.5189L38.5255 89.7013L38.5203 82.0965C38.5165 77.9139 38.9513 74.3329 39.4844 74.1383C40.0656 73.9262 40.0836 71.8721 39.53 69.0091C38.0313 61.2588 38.3074 38.9769 39.9508 35.0415C40.4268 33.9018 40.7484 33.1836 40.9943 33.1427H40.9944ZM134.285 33.3217C134.523 33.2924 134.821 33.7694 135.219 34.5328C136.41 36.8227 136.661 41.1036 136.37 54.2424C136.14 64.6619 135.555 71.4734 134.827 72.2063C132.896 74.1492 132.164 64.2674 132.968 47.1308C133.454 36.7776 133.675 33.3966 134.285 33.3217ZM130.473 35.6005C130.79 35.6005 130.984 35.6129 131.024 35.6382C131.186 35.7393 131.186 42.2715 131.024 50.1542L130.73 64.4861L125.987 60.8283C120.724 56.7685 119.83 54.202 119.725 42.8482L119.664 36.3185L125.197 35.8867C127.48 35.7084 129.525 35.6004 130.473 35.6005V35.6005ZM44.5376 35.6441C45.5333 35.6207 47.6489 35.7139 49.9923 35.8963L55.6739 36.3384L55.0784 46.3907C54.4837 56.4272 54.4759 56.4483 50.4505 60.029C48.2332 62.0014 46.1243 63.6352 45.764 63.6595C45.0885 63.705 43.2997 36.1604 43.9487 35.7077C43.9986 35.6729 44.2057 35.652 44.5376 35.6441ZM137.468 40.8888L139.476 44.4956C140.797 46.8664 141.555 50.5036 141.688 55.1075C141.828 59.9786 141.404 62.7581 140.295 64.234C138.832 66.1821 138.698 65.605 138.667 57.2037C138.649 52.1699 138.372 46.4402 138.051 44.4704L137.468 40.8888ZM88.2296 41.7908C86.5959 41.7971 84.4453 44.0883 85.3502 45.5625C86.4021 47.2762 89.0724 46.9758 89.8018 45.062C90.1504 44.1473 89.8949 42.8547 89.2342 42.1894C88.956 41.9093 88.6066 41.7894 88.2296 41.7908ZM36.8219 42.5842C37.2774 42.608 37.321 45.454 37.3756 53.3573C37.4273 60.8596 37.0495 65.8259 36.4275 65.8259C33.555 65.8259 33.0419 50.7055 35.7057 44.5488C36.2314 43.3337 36.5833 42.5717 36.8219 42.5842ZM57.4848 43.5417H69.6044C81.7203 43.5417 81.724 43.5421 81.724 46.1075C81.724 51.6101 81.0019 52.0733 73.445 51.4134C69.5939 51.0772 64.5458 51.2689 62.2272 51.8401C58.6578 52.7193 59.8291 52.8952 69.868 52.9854C79.6572 53.0734 81.724 53.3696 81.724 54.6838C81.724 56.0064 79.6749 56.2758 69.6044 56.2758H57.4848V49.9088V43.5417ZM88.0475 43.5417C88.6271 43.5417 89.1012 44.0191 89.1012 44.6028C89.1012 45.1864 88.6271 45.6638 88.0475 45.6638C87.4678 45.6638 86.9937 45.1864 86.9937 44.6028C86.9937 44.0191 87.4678 43.5417 88.0475 43.5417ZM94.3709 43.5417H105.832H117.293L117.947 46.8343C118.307 48.6451 118.353 50.5304 118.051 51.0238C117.507 51.909 95.6995 51.9534 94.8232 51.0711C94.5746 50.8208 94.3709 49.0245 94.3709 47.0791V43.5417ZM106.579 53.0919C115.875 53.0919 118.682 53.4082 118.349 54.4184C118.042 55.3491 114.4 55.8345 106.141 56.0451C96.1397 56.3 94.3709 56.1006 94.3709 54.7186C94.3709 53.351 96.3142 53.0919 106.579 53.0919ZM87.7838 53.1754C85.9666 53.0929 85.1776 56.2151 86.6427 57.6903C87.5836 58.6377 87.5955 58.6332 89.1218 56.7815C90.2355 55.4303 90.1702 55.2755 88.7238 55.8343C87.7724 56.202 86.9937 56.014 86.9937 55.4166C86.9937 54.8191 87.5865 54.0894 88.3111 53.7951C89.0981 53.4753 88.8856 53.2255 87.7838 53.1754ZM71.1855 57.3368C75.7128 57.3368 76.6604 58.706 73.3628 60.483C70.9367 61.7903 71.1282 61.7919 68.8143 60.4349C65.7407 58.6324 66.7324 57.3368 71.1855 57.3368ZM105.086 57.3368C109.457 57.3368 110.342 58.7287 107.087 60.483C104.639 61.8019 104.946 61.821 101.979 60.1621C98.8516 58.4141 100.036 57.3368 105.086 57.3368ZM61.2476 57.4115C62.2544 57.4604 63.6218 58.3248 65.0596 59.9898C67.9539 63.3414 73.5464 63.608 76.1724 60.52C77.165 59.3527 78.8814 58.3979 79.9866 58.3979C81.7952 58.3979 81.9241 58.9418 81.2783 63.8436C80.7912 67.541 79.8176 69.9141 78.2447 71.2362C75.2405 73.7613 73.293 73.7656 73.293 71.2472C73.293 69.8511 71.2106 68.1569 66.4467 65.6766C61.1027 62.8942 59.6005 61.588 59.5968 59.7244C59.593 58.1291 60.2408 57.3626 61.2476 57.4115ZM114.446 57.6082C114.72 57.6035 115.007 57.6126 115.31 57.6341C118.263 57.8431 118.604 58.2193 118.608 61.2438C118.612 64.7508 117.675 65.6898 108.862 71.0314C105.573 73.0247 104.909 73.1465 104.909 71.7574C104.909 70.8394 107.518 68.6062 110.706 66.7946C115.067 64.3168 116.472 62.9341 116.38 61.2143C116.282 59.3806 116.162 59.3013 115.771 60.812C115.503 61.848 112.476 64.1227 109.043 65.8673C104.578 68.1371 102.802 69.6391 102.802 71.1467C102.802 73.7583 100.893 73.793 97.851 71.2362C96.294 69.9274 95.3051 67.5475 94.835 63.9789C93.9758 57.4572 95.5193 55.9842 99.117 59.893C102.457 63.5222 107.187 63.5786 109.966 60.0216C111.282 58.3367 112.532 57.6409 114.446 57.6082V57.6082ZM57.3725 58.3979C58.0141 58.3979 58.5386 59.4967 58.5386 60.8401C58.5386 62.7104 60.0182 64.1402 64.851 66.9417C68.3225 68.9541 71.1673 71.198 71.1737 71.9275C71.1884 73.6073 71.7563 73.8088 64.0719 69.4061C59.7632 66.9375 57.4848 64.9617 57.4848 63.6935C57.4848 62.6272 57.197 60.9995 56.8452 60.0763C56.4934 59.1531 56.7308 58.3979 57.3725 58.3979ZM54.579 60.52C54.8145 60.52 54.9718 78.4264 54.9286 100.312C54.9086 110.269 54.8353 119.275 54.7325 126.268C53.5425 125.439 52.3867 124.565 51.2649 123.65C51.1797 118.599 51.15 112.13 51.146 103.55C51.1358 81.8982 50.8013 70.7911 50.17 71.0691C50.1497 71.078 50.1286 71.0985 50.1076 71.1312C49.5084 72.0648 49.0794 85.5553 49.07 103.762C49.0658 111.604 49.0388 117.286 48.976 121.689C47.8041 120.625 46.6813 119.508 45.6009 118.351C45.5029 113.096 45.4487 110.02 45.2631 100.53L44.6345 68.3724L49.3931 64.4462C52.0102 62.2869 54.3436 60.52 54.579 60.52ZM120.455 60.5215C121.212 60.5226 125.469 63.768 129.448 67.3765C131.177 68.9447 131.317 71.5907 131.197 100.369C131.171 106.523 131.133 111.352 131.079 115.407C129.376 117.5 127.527 119.467 125.55 121.297C125.413 117.855 125.293 113.87 125.2 109.285C124.923 95.596 124.512 84.1971 124.287 83.954C124.063 83.7108 123.88 95.6533 123.88 110.493C123.88 115.581 123.87 119.471 123.849 122.812C122.525 123.944 121.148 125.015 119.724 126.022C119.668 120.224 119.664 112.057 119.664 100.322C119.664 78.4311 120.02 60.5207 120.455 60.5215H120.455ZM32.7059 62.197C33.1072 63.9914 33.7846 65.5314 34.8817 67.4164C37.299 71.5697 37.5511 73.0385 37.3726 81.9236C37.2415 88.4489 36.6573 92.6031 35.6543 94.1444C35.0523 95.0696 34.5956 97.127 34.2531 100.466C31.6256 93.8738 30.1731 86.6784 30.1731 79.1375C30.1731 73.2383 31.0623 67.5506 32.7059 62.197ZM141.923 64.0248C143.227 68.8401 143.935 73.9042 143.935 79.1375C143.935 85.514 142.894 91.6425 140.986 97.3697C140.728 96.5837 140.396 95.8028 139.974 94.9504C136.931 88.8117 137.272 72.1971 140.549 66.887C141.135 65.9383 141.583 65.0227 141.923 64.0248ZM117.863 66.887C119.251 66.887 117.075 75.1487 115.128 77.2712C113.904 78.6053 112.646 81.7244 112.331 84.2024L111.76 88.7076L108.376 86.5515C105.379 84.6425 104.987 83.8358 104.951 79.5064C104.91 74.6702 104.978 74.5746 111.129 70.7519C114.549 68.6262 117.579 66.887 117.863 66.887ZM58.0121 66.9055L64.5756 70.8754C71.0776 74.8079 71.1393 74.8909 71.1179 79.621C71.0984 83.8986 70.7163 84.6398 67.4521 86.7349L63.8083 89.0736V84.9144C63.8083 81.7867 63.007 79.8367 60.5764 77.0494C58.1877 74.31 57.4321 72.5041 57.6787 70.1249L58.0121 66.9055ZM81.666 73.8448C81.7895 73.84 81.9194 73.8403 82.0552 73.8456C82.7795 73.8738 83.6745 74.0483 84.6893 74.4045C87.152 75.269 88.9437 75.269 91.4063 74.4045C94.9919 73.146 97.4816 74.294 95.2058 76.1562C93.0023 77.9594 83.8666 78.2535 81.5177 76.5969C79.3875 75.0946 79.8141 73.9165 81.666 73.8448V73.8448ZM97.8796 74.9805C98.4583 74.938 99.1225 75.3146 100.284 76.0808C101.669 76.9946 102.802 78.365 102.802 79.1256C102.802 79.8862 103.09 81.2636 103.442 82.1868C104.354 84.5819 102.828 84.27 98.224 81.1198C94.4079 78.5088 94.2981 78.2766 95.9879 76.3965C96.8073 75.4848 97.3009 75.023 97.8796 74.9805ZM78.0193 75.6881C78.8474 75.7072 79.6396 76.0058 80.2722 76.6427C81.7455 78.1261 81.6136 78.4884 78.9159 80.3708C72.9268 84.5498 72.208 84.5093 73.0566 80.0395C73.5546 77.4164 75.9028 75.6394 78.0193 75.6881ZM135.006 76.4453C135.563 76.4538 135.999 78.574 135.999 82.277C135.999 88.2332 135.276 89.5647 133.838 86.2528C133.014 84.3535 133.032 83.0193 133.941 78.8247C134.294 77.1952 134.672 76.4402 135.006 76.4453ZM58.123 76.968L60.08 79.9582C62.03 82.938 62.0271 82.9576 59.234 85.7699L56.431 88.5922L56.536 85.4328C56.5938 83.6951 56.9745 81.0801 57.382 79.621L58.123 76.968ZM116.945 78.0047C117.453 78.0129 117.556 79.0224 117.556 81.613C117.556 86.4335 117.484 86.5514 115.66 84.7141C113.927 82.9699 114.072 80.1499 115.975 78.5592C116.401 78.2037 116.715 78.0009 116.945 78.0047ZM83.1281 79.224C83.5119 79.2338 83.9224 79.2771 84.3339 79.3563C86.8467 79.84 86.9937 80.2423 86.9937 86.6387C86.9937 92.9282 86.7229 93.7113 83.181 97.6588C81.0838 99.9961 77.0525 103.178 74.2227 104.728C71.3929 106.279 69.0604 107.83 69.0397 108.175C69.019 108.52 67.8582 110.211 66.46 111.934L63.9177 115.066L62.7089 111.934C61.1429 107.876 61.9891 96.9233 64.2011 92.6161C65.3154 90.4464 68.5133 87.7371 73.2453 84.9544C77.2716 82.5867 80.8149 80.2433 81.1197 79.7467C81.3101 79.4364 81.9467 79.2519 82.7543 79.2255C82.8755 79.2215 83.0001 79.2207 83.1281 79.2239V79.224ZM91.7471 79.411C93.2296 79.4056 96.311 80.6863 99.1133 82.4995C112.041 90.8647 111.954 90.7788 113.337 96.583C114.057 99.6056 114.42 104.455 114.142 107.36C113.487 114.228 112.338 115.119 109.195 111.197C107.784 109.436 104.228 106.426 101.291 104.506C98.3548 102.587 94.4108 99.2904 92.527 97.1804C89.4167 93.6969 89.1012 92.7197 89.1012 86.5559C89.1012 80.3245 89.2956 79.7408 91.4724 79.4295C91.5565 79.4175 91.6482 79.4114 91.7471 79.4111V79.411ZM114.72 87.2724C115.133 87.2552 115.708 87.6765 116.441 88.5656C117.145 89.4204 117.535 92.4804 117.351 95.7171C117.011 101.703 116.231 101.647 114.866 95.5382C113.68 90.2279 113.667 87.3163 114.72 87.2724ZM61.2322 87.489C61.9659 87.5311 62.3779 88.3557 62.2338 89.9217C61.8579 94.0061 60.2983 99.3313 58.8066 101.624C57.4131 103.765 57.4208 104.027 58.8808 104.027C61.1563 104.027 61.6238 111.157 59.5931 114.897C58.7237 116.499 57.6672 117.811 57.2454 117.815C56.8236 117.819 56.5321 111.944 56.5985 104.759C56.6998 93.7867 57.0291 91.3121 58.6539 89.2917C59.584 88.1352 60.4375 87.5431 61.0809 87.4913C61.1326 87.4871 61.1833 87.4862 61.2322 87.489V87.489ZM42.7781 90.2322C43.1358 90.2322 43.3352 93.0056 43.2209 96.3952C43.0662 100.984 42.3008 103.694 40.2241 107.006C39.6908 107.857 39.1716 108.636 38.7003 109.31C37.9996 108.174 37.3382 107.011 36.7161 105.823C37.2136 103.448 38.0649 100.835 39.0866 99.08C42.3702 93.4383 41.6815 93.0211 38.0262 98.4374C36.5562 100.616 35.3539 101.657 35.3539 100.753C35.3539 99.0759 41.5949 90.2322 42.7781 90.2322ZM133.139 90.2322C134.713 90.2322 139.044 96.5871 140.089 99.8719C139.22 102.125 138.212 104.309 137.078 106.413C136.547 105.712 135.93 104.798 135.208 103.649C132.437 99.2312 131.049 90.2322 133.139 90.2322ZM87.5812 95.2824C88.4056 95.1612 89.7324 96.4151 93.0087 99.8733C98.1597 105.31 98.3249 105.682 98.9635 113.288C99.3247 117.591 100.1 122.013 100.686 123.116C101.406 124.465 101.406 125.338 100.69 125.784C100.254 126.055 100.044 130.189 100.025 134.906C98.3848 135.291 96.7187 135.607 95.0275 135.846C95.2106 130.207 95.7361 128.898 97.2996 126.896C100.759 122.468 100.087 120.922 96.5623 125.202C93.9558 128.368 92.851 128.898 88.483 129.072C79.0762 129.449 76.1211 125.277 77.1462 113.067C77.7678 105.663 78.055 104.941 81.6815 101.663C83.8111 99.7377 86.0393 97.2895 86.6325 96.2222C86.9357 95.6767 87.2065 95.3375 87.5812 95.2824H87.5812ZM116.503 104.027C117.082 104.027 117.556 106.653 117.556 109.863C117.556 115.888 117.193 116.918 116.088 114.021C115.054 111.307 115.356 104.027 116.503 104.027ZM42.6379 104.557L42.6841 114.783C42.6841 114.85 42.6841 114.908 42.6841 114.973C41.5704 113.577 40.5223 112.127 39.5404 110.627C39.8677 109.914 40.183 109.246 40.4562 108.725L42.6379 104.557ZM133.564 104.696C133.575 104.693 133.586 104.696 133.597 104.702C134.04 104.978 134.912 106.475 135.915 108.473C134.96 110.083 133.928 111.641 132.826 113.143C133.019 108.271 133.27 104.757 133.564 104.696H133.564ZM100.7 107.383C102.471 107.454 106.303 109.972 108.927 112.982C111.477 115.906 112.287 117.833 112.287 120.976C112.287 124.608 111.995 125.1 109.915 124.969C108.611 124.888 107.196 124.32 106.77 123.709C106.264 122.981 105.99 123.056 105.979 123.923C105.95 126.333 103.823 125.302 102.696 122.332C101.293 118.634 99.3478 108.212 99.9482 107.608C100.114 107.44 100.372 107.37 100.7 107.383ZM74.1742 107.804C75.2154 107.76 75.4013 108.583 75.4013 111.365C75.4013 115.919 72.5015 125.25 71.0863 125.25C69.851 125.25 69.8501 125.26 71.7553 119.823C72.6482 117.274 72.9427 115.662 72.4096 116.24C71.8765 116.818 70.8912 119.022 70.2205 121.138C69.2542 124.186 68.4625 124.984 66.4049 124.984C64.0926 124.984 63.8083 124.535 63.8083 120.875C63.8083 117.667 64.62 115.863 67.5123 112.639C69.5493 110.369 72.1575 108.263 73.3084 107.96C73.648 107.871 73.934 107.815 74.1742 107.804ZM61.7616 115.7C62.6854 115.7 62.4454 124.343 61.4796 125.857C61.2191 126.265 61.057 127.932 61.0266 130.068C59.9397 129.505 58.8731 128.907 57.8285 128.276C58.0784 123.278 58.5226 121.008 59.3185 119.328C60.2636 117.332 61.3629 115.7 61.7616 115.7ZM114.501 115.7C114.881 115.7 115.734 117.016 116.396 118.625C116.836 119.693 117.12 122.754 117.261 127.68C116.6 128.098 115.928 128.497 115.249 128.888C115.192 127.889 115.067 127.065 114.872 126.621C113.842 124.278 113.55 115.7 114.501 115.7ZM75.4615 122.588C76.7992 122.339 79.8566 129.839 80.1547 134.27C80.1874 134.754 80.2154 135.377 80.2436 135.998C78.9141 135.838 77.599 135.633 76.2994 135.382C76.2075 132.286 75.9493 129.288 75.4961 127.101C74.9847 124.909 74.9137 122.9 75.3374 122.637C75.3768 122.612 75.4184 122.596 75.4615 122.588ZM66.2419 126.326C70.6101 126.344 74.3468 127.373 74.3468 128.557C74.3468 129.621 63.4666 129.858 62.4321 128.816C61.1179 127.493 62.925 126.311 66.2419 126.326ZM107.684 126.716C110.339 126.672 112.92 127.056 113.34 127.903C113.657 128.54 111.167 129.092 107.107 129.285C101.362 129.557 100.532 129.378 101.588 128.097C102.301 127.232 105.029 126.76 107.684 126.716ZM88.0475 130.556C94.0897 130.556 94.3709 130.674 94.3709 133.209C94.3709 134.668 94.0154 135.86 93.5807 135.859C93.146 135.859 92.7899 139.798 92.7899 144.614V153.37L87.7838 153.694L82.7785 154.017V146.531C82.7785 142.414 82.8965 138.687 83.0414 138.249C83.1863 137.812 85.2024 137.566 87.5209 137.705C90.7838 137.9 91.2599 137.737 89.6285 136.984C88.4692 136.449 86.2165 135.977 84.6225 135.936C82.2534 135.875 81.724 135.377 81.724 133.209C81.724 130.674 82.0052 130.556 88.0475 130.556ZM112.738 130.971C112.904 130.953 113.054 131.933 113.099 133.474C113.218 137.54 112.714 137.697 109.457 134.615L107.018 132.308L104.517 134.673L102.016 137.039L101.487 134.25C100.961 131.481 100.999 131.464 106.601 131.865C109.983 132.108 112.397 131.819 112.622 131.147C112.661 131.031 112.7 130.975 112.738 130.971ZM63.3485 131.072C63.4043 131.048 63.4629 131.118 63.5211 131.292C63.754 131.989 64.6256 132.295 65.4576 131.974C67.3044 131.26 67.4794 133.863 65.7051 135.649C63.639 137.73 62.8897 137.128 62.9968 133.474C63.0385 132.052 63.1813 131.143 63.3485 131.072ZM67.8817 131.691L70.9086 131.919C72.9385 132.072 73.9829 132.759 74.0766 134.004C74.2543 136.366 73.3785 136.305 70.3241 133.741L67.8817 131.691ZM107.286 133.751L110.41 136.827C112.129 138.519 113.372 140.73 113.174 141.742C112.87 143.295 112.279 143.078 109.387 140.356C107.503 138.582 105.721 137.52 105.429 137.996C105.136 138.473 105.492 139.073 106.22 139.329C107.178 139.667 106.988 140.427 105.537 142.073C104.432 143.326 103.129 144.351 102.639 144.351C101.305 144.351 101.566 141.789 103.066 140.163C104.119 139.02 104.119 138.883 103.066 139.483C100.612 140.877 101.73 138.152 104.517 135.944L107.286 133.751ZM69.1021 134.747C69.7389 134.783 70.4144 135.276 71.6092 136.152C75.1168 138.725 75.2092 140.918 71.7127 138.612C70.2636 137.655 69.0779 137.33 69.0779 137.887C69.0779 138.444 67.6547 139.92 65.9158 141.167C63.1626 143.141 62.7545 143.206 62.7545 141.665C62.7545 140.692 64.1303 138.602 65.8123 137.02C67.5278 135.407 68.2834 134.7 69.1021 134.747ZM69.7469 139.38C71.1781 139.294 74.3468 141.61 74.3468 143.014C74.3468 144.705 74.3366 144.703 71.2016 142.277C69.7612 141.163 68.8845 139.946 69.2541 139.574C69.3734 139.454 69.5424 139.393 69.7469 139.38ZM67.5578 141.733C68.0444 141.728 68.501 142.059 69.0669 142.746C70.1903 144.108 69.9733 144.351 67.6261 144.351C64.48 144.351 64.2753 144.04 66.3036 142.345C66.7831 141.944 67.1794 141.737 67.5578 141.733ZM108.598 142.228C109.399 142.228 110.348 142.706 110.706 143.29C111.077 143.894 110.169 144.351 108.598 144.351C107.027 144.351 106.12 143.894 106.491 143.29C106.849 142.706 107.797 142.228 108.598 142.228ZM67.9617 145.412C74.1089 145.412 77.0035 146.687 73.7278 147.953C72.8142 148.306 71.9872 148.509 71.8897 148.404C71.7922 148.299 69.46 148.033 66.7067 147.815C59.5515 147.247 60.5098 145.412 67.9617 145.412ZM108.149 145.431C111.321 145.467 114.395 145.826 114.395 146.473C114.395 147.057 113.032 147.534 111.365 147.534C109.699 147.534 106.968 147.809 105.298 148.145C102.17 148.775 100.325 147.933 101.312 146.325C101.707 145.682 104.977 145.395 108.149 145.431ZM87.598 156.023C92.6228 156.023 93.4206 156.292 93.121 157.88C92.8601 159.264 91.5542 159.817 87.999 160.051C83.0387 160.378 81.724 159.831 81.724 157.438C81.724 156.428 83.406 156.023 87.598 156.023Z" transform="scale(0.940066)" fill="url(#paint0_linear)"/>
<defs>
<linearGradient id="paint0_linear" x2="1" gradientUnits="userSpaceOnUse" gradientTransform="translate(175.52) scale(175.52 161.691) rotate(90)">
<stop stop-color="#4EA797"/>
<stop offset="1" stop-color="#27243E"/>
</linearGradient>
</defs>
</svg>
