<svg width="312" height="74" viewBox="0 0 312 74" fill="none" xmlns="http://www.w3.org/2000/svg">
<rect x="0.5" y="0.5" width="297" height="50" transform="translate(7 9)" fill="white" stroke="#ACD8D0"/>
<path d="M105.581 0C105.251 0.0300102 104.742 0.0749512 104.054 0.134968C103.396 0.194985 102.648 0.254379 101.81 0.314396C100.972 0.374414 100.089 0.449846 99.1609 0.539872C98.2332 0.599889 97.3352 0.675322 96.4673 0.765348C95.6293 0.825365 94.8658 0.884759 94.1775 0.944776C93.4891 0.974782 92.9801 1.00527 92.6509 1.03528H90.0935L91.1259 3.10585V3.73623C91.1557 4.09633 91.1701 4.5313 91.1701 5.04145V6.75157C91.1999 7.38175 91.2143 7.98204 91.2143 8.5522V10.5339C91.2143 11.9443 91.1696 13.3086 91.0797 14.6289C91.0199 15.9493 90.9446 17.2703 90.8548 18.5906C90.795 19.881 90.7214 21.1859 90.6315 22.5063C90.5718 23.8267 90.5413 25.1765 90.5413 26.5569V26.8285L95.7481 24.7579L96.0172 16.7456H101.135C101.165 16.8056 101.255 16.9099 101.405 17.06C101.554 17.21 101.705 17.3593 101.854 17.5093C102.034 17.6594 102.197 17.8102 102.347 17.9603C102.496 18.1103 102.602 18.2146 102.662 18.2747L102.797 18.3207H102.975H103.11L103.2 18.2747L103.964 11.2976H103.469C102.093 11.2976 100.851 11.373 99.7433 11.5231C98.666 11.6731 97.4398 11.7486 96.0632 11.7486C96.0632 11.6885 96.0483 11.5377 96.019 11.2976V10.7577C96.019 10.1876 96.0637 9.60333 96.1536 9.00316C96.2733 8.37298 96.3629 7.77269 96.4228 7.20253C96.3629 6.72239 96.467 6.3773 96.7363 6.16724C97.0056 5.92717 97.3498 5.76186 97.7688 5.67183C98.1878 5.5818 98.6072 5.55131 99.0262 5.58132H100.059C101.106 5.58132 101.943 5.74664 102.572 6.07673C103.23 6.37682 103.665 7.09748 103.875 8.23781C104.025 8.14778 104.174 7.90703 104.323 7.51692C104.473 7.12681 104.607 6.66135 104.727 6.12119C104.877 5.58104 104.997 5.01124 105.086 4.41107C105.206 3.78089 105.296 3.19664 105.356 2.65649C105.416 2.08632 105.461 1.59037 105.49 1.17025C105.55 0.720124 105.581 0.419979 105.581 0.269936L105.581 0ZM156.101 1.48624C156.041 1.51625 155.935 1.56119 155.786 1.6212C155.636 1.65121 155.471 1.69615 155.292 1.75617C155.142 1.78618 154.993 1.83112 154.844 1.89114C154.694 1.95116 154.604 1.9961 154.574 2.02611C153.317 2.62628 152.03 3.3309 150.714 4.14113C149.397 4.92136 148.214 5.85228 147.167 6.93259C146.119 7.98289 145.251 9.16743 144.563 10.4878C143.905 11.7782 143.575 13.2195 143.575 14.81C143.575 15.6802 143.799 16.4892 144.248 17.2394C144.727 17.9596 145.34 18.6209 146.088 19.221C146.866 19.8212 147.734 20.3461 148.692 20.7962C149.649 21.2163 150.622 21.5758 151.61 21.8759C152.598 22.176 153.54 22.4007 154.438 22.5508C155.366 22.7008 156.174 22.7762 156.863 22.7762C157.252 22.7762 157.641 22.5515 158.03 22.1014C158.449 21.6513 158.852 21.0654 159.241 20.3452C159.63 19.625 160.005 18.8305 160.364 17.9603C160.723 17.09 161.051 16.249 161.351 15.4387C161.65 14.5985 161.92 13.8345 162.16 13.1443C162.429 12.4541 162.653 11.9292 162.833 11.5691V11.4786C162.863 11.3886 162.877 11.3276 162.877 11.2976C162.877 11.0275 162.622 10.7884 162.114 10.5783C161.605 10.3683 161.006 10.1885 160.318 10.0384C159.659 9.85839 159.016 9.72356 158.388 9.63354C157.759 9.54351 157.341 9.49857 157.132 9.49857C156.922 9.49857 156.772 9.87256 156.682 10.6228C156.592 11.343 156.458 12.1535 156.278 13.0538C156.099 13.924 155.844 14.7346 155.515 15.4848C155.186 16.205 154.662 16.5645 153.944 16.5645C153.585 16.5645 153.166 16.4442 152.687 16.2041C152.208 15.934 151.744 15.605 151.295 15.2149C150.876 14.8247 150.517 14.4042 150.218 13.9541C149.949 13.474 149.814 13.0245 149.814 12.6044C149.814 11.9442 150.053 11.3279 150.531 10.7577C151.04 10.1876 151.655 9.67717 152.373 9.22704C153.121 8.74691 153.928 8.32798 154.796 7.96787C155.664 7.60777 156.458 7.30763 157.176 7.06756C157.924 6.79748 158.537 6.58722 159.016 6.43718C159.525 6.28714 159.779 6.19725 159.779 6.16724C159.779 5.98719 159.631 5.6421 159.331 5.13196C159.032 4.62181 158.688 4.09696 158.299 3.5568C157.94 3.01665 157.565 2.53515 157.176 2.11503C156.817 1.69491 156.548 1.48624 156.368 1.48624H156.101ZM11.0881 1.6212C10.4597 1.6212 9.7409 1.80097 8.93288 2.16108C8.15485 2.52118 7.34644 2.98664 6.50847 3.5568C5.70035 4.12697 4.90807 4.78665 4.12995 5.53686C3.35188 6.25707 2.64915 7.00663 2.02062 7.78686C1.42209 8.53707 0.927518 9.28823 0.538432 10.0384C0.179345 10.7586 0 11.4039 0 11.974C0 13.2644 0.494676 14.4794 1.48229 15.6198C2.4998 16.7601 3.71151 17.8258 5.11806 18.8161C6.55461 19.7764 8.03526 20.6608 9.56155 21.471C11.1177 22.2512 12.4495 22.927 13.5569 23.4971H13.6471C13.707 23.5271 13.7662 23.5416 13.8261 23.5416C14.1253 23.5416 14.3654 23.3618 14.545 23.0017C14.7246 22.6716 14.859 22.2816 14.9488 21.8315C15.0684 21.3813 15.1438 20.9464 15.1737 20.5262C15.2035 20.0761 15.2179 19.7599 15.2179 19.5799V18.8161C14.6792 18.516 13.9461 18.126 13.0183 17.6459C12.1206 17.1357 11.2369 16.5804 10.369 15.9802C9.53111 15.35 8.79798 14.6743 8.16946 13.9541C7.54093 13.2039 7.22724 12.4383 7.22724 11.6581C7.22724 10.7278 7.46732 9.94773 7.94616 9.31755C8.42499 8.65737 9.02372 8.10202 9.74199 7.65189C10.4902 7.17175 11.3129 6.76727 12.2107 6.43718C13.1086 6.10709 13.9617 5.79249 14.7697 5.4924L11.6264 1.71013C11.5966 1.71013 11.5215 1.69567 11.4015 1.66566C11.2818 1.63565 11.1778 1.6212 11.0879 1.6212L11.0881 1.6212ZM67.3804 2.07057C65.5848 2.07057 63.8032 2.19094 62.0375 2.43101C60.2719 2.64107 58.4919 2.74541 56.6962 2.74541V4.72706V6.93259C56.7265 7.95288 56.7567 9.07802 56.7865 10.3084C56.8163 11.5087 56.8307 12.7382 56.8307 13.9986C56.8605 15.2589 56.8749 16.3696 56.8749 17.3299V19.0861C56.8749 19.2061 56.8446 19.4757 56.7847 19.8959C56.7549 20.316 56.6955 20.7654 56.6057 21.2455C56.5459 21.6957 56.4851 22.1306 56.4252 22.5508C56.3954 22.9409 56.381 23.1816 56.381 23.2717C56.381 23.3017 56.3666 23.3915 56.3368 23.5416V23.8115C57.0251 23.8115 57.803 23.6622 58.6709 23.3622C59.5389 23.0621 60.3168 22.8518 61.0051 22.7318C62.7708 22.4617 64.5524 22.0412 66.3481 21.471C68.1437 20.9009 69.7589 20.1208 71.1953 19.1305C72.6618 18.1402 73.8447 16.9092 74.7425 15.4387C75.6702 13.9383 76.1344 12.123 76.1344 9.99239C76.1344 8.612 75.9087 7.42746 75.4599 6.43718C75.0409 5.41689 74.4438 4.59189 73.6657 3.96171C72.9175 3.30152 72.0035 2.82161 70.9261 2.52152C69.8488 2.22143 68.6674 2.07057 67.3805 2.07057H67.3804ZM171.517 2.29604C170.32 2.29604 169.227 2.44532 168.239 2.74541C167.251 3.04549 166.398 3.52541 165.68 4.18559C164.962 4.81577 164.393 5.64236 163.974 6.66265C163.585 7.65294 163.39 8.83747 163.39 10.2179C163.39 12.3185 163.734 14.1193 164.423 15.6198C165.111 17.0902 166.025 18.3357 167.162 19.356C168.329 20.3463 169.661 21.1263 171.157 21.6965C172.684 22.2667 174.27 22.6872 175.916 22.9573C176.574 23.0473 177.157 23.1966 177.666 23.4066C178.205 23.6167 178.789 23.7226 179.417 23.7226C179.417 23.6926 179.403 23.5867 179.373 23.4066V23.1367L179.777 18.5001L175.557 17.8253C174.659 17.5552 173.926 17.3145 173.357 17.1044C172.818 16.8643 172.37 16.6091 172.011 16.3391C171.652 16.069 171.353 15.7688 171.113 15.4387C170.904 15.1087 170.678 14.6897 170.439 14.1796L175.601 14.5845V14.1796C175.601 13.9395 175.617 13.519 175.647 12.9188C175.677 12.3186 175.826 11.2978 176.095 9.85742H175.557C175.018 9.85742 174.539 9.84297 174.12 9.81297C173.731 9.75295 173.342 9.70801 172.953 9.678C172.564 9.61798 172.159 9.55859 171.74 9.49857C171.351 9.43855 170.872 9.39202 170.304 9.36201C170.364 8.67182 170.394 8.13251 170.394 7.7424C170.424 7.35229 170.514 7.0666 170.663 6.88654C170.843 6.70649 171.112 6.60216 171.471 6.57215C171.86 6.54214 172.444 6.52769 173.222 6.52769L176.185 6.84208C176.275 6.87209 176.379 6.88654 176.499 6.88654C176.708 6.88654 177.038 6.99247 177.487 7.20253C177.936 7.41259 178.699 7.68224 179.777 8.01233C179.777 7.23211 179.805 6.60133 179.865 6.1212C179.955 5.61105 180 5.19212 180 4.86202V2.92642C179.162 2.92642 178.4 2.89593 177.712 2.83592C177.053 2.7759 176.394 2.70047 175.735 2.61044C175.107 2.52041 174.449 2.44498 173.761 2.38496C173.102 2.32495 172.355 2.29604 171.517 2.29604H171.517ZM49.5813 2.52152C49.4915 2.52152 49.2673 2.55042 48.9083 2.61044C48.5491 2.67046 48.1601 2.73144 47.7412 2.79146C47.3521 2.85147 46.9775 2.91087 46.6185 2.97088C46.2892 3.0309 46.0795 3.06139 45.9898 3.06139C45.7204 3.0914 45.2418 3.13634 44.5535 3.19636C43.8651 3.25638 43.132 3.31577 42.3539 3.37579C41.6057 3.4058 40.887 3.45074 40.1986 3.51076C39.5104 3.54077 39.0317 3.5568 38.7623 3.5568C39.4806 4.39704 39.9145 5.22204 40.0641 6.03227C40.2437 6.8425 40.3332 7.77184 40.3332 8.82214C40.3332 9.90245 40.274 10.9827 40.1543 12.063C40.0346 13.1133 39.9001 14.179 39.7505 15.2593L39.3911 18.4096C39.3013 19.4299 39.2565 20.4363 39.2565 21.4266V21.6965C39.2863 21.7565 39.3614 21.8464 39.4814 21.9664C39.6011 22.0865 39.7051 22.1619 39.7949 22.1919H40.0641H40.289C40.4685 22.1619 40.7966 22.056 41.2755 21.8759C41.7543 21.6959 42.2489 21.4856 42.7577 21.2455C43.2664 20.9755 43.7147 20.7058 44.1037 20.4357C44.4928 20.1356 44.688 19.866 44.688 19.6259V15.4848C45.4063 15.7249 45.989 16.2497 46.4379 17.06C46.8868 17.8402 47.3222 18.6652 47.7412 19.5354C48.1601 20.3757 48.6228 21.1268 49.1315 21.787C49.6403 22.4472 50.3142 22.7762 51.1522 22.7762C51.3916 22.7762 51.7357 22.6864 52.1846 22.5063C52.6635 22.2962 53.1421 22.0571 53.6209 21.787C54.1297 21.4869 54.5795 21.1868 54.9685 20.8867C55.3875 20.5866 55.6564 20.3314 55.7761 20.1213C55.1775 20.0013 54.5341 19.6562 53.8458 19.0861C53.1874 18.4859 52.5744 17.8102 52.0057 17.06C51.467 16.2797 51.0172 15.4997 50.6581 14.7194C50.299 13.9092 50.1197 13.219 50.1197 12.6489C50.1197 12.3188 50.2846 11.9432 50.6137 11.5231C50.9429 11.103 51.3015 10.6375 51.6906 10.1274C52.0796 9.61722 52.4398 9.06187 52.769 8.4617C53.0982 7.83152 53.2615 7.15738 53.2615 6.43718C53.2615 5.29685 52.9926 4.42691 52.4539 3.82674C51.9151 3.19656 50.9579 2.76159 49.5813 2.52152ZM136.819 2.52152C136.73 2.52152 136.506 2.55042 136.147 2.61044C135.787 2.67046 135.398 2.73144 134.979 2.79146C134.59 2.85147 134.216 2.91087 133.857 2.97088C133.528 3.0309 133.319 3.06139 133.23 3.06139C132.96 3.0914 132.48 3.13634 131.792 3.19636C131.103 3.25638 130.37 3.31577 129.592 3.37579C128.844 3.4058 128.127 3.45074 127.438 3.51076C126.75 3.54077 126.272 3.5568 126.002 3.5568C126.72 4.39704 127.154 5.22204 127.304 6.03227C127.483 6.8425 127.573 7.77184 127.573 8.82214C127.573 9.90245 127.512 10.9827 127.393 12.063C127.273 13.1133 127.138 14.179 126.989 15.2593L126.629 18.4096C126.54 19.4299 126.495 20.4363 126.495 21.4266V21.6965C126.525 21.7565 126.6 21.8464 126.72 21.9664C126.839 22.0865 126.945 22.1619 127.035 22.1919H127.304H127.527C127.707 22.1619 128.037 22.056 128.515 21.8759C128.994 21.6959 129.489 21.4856 129.998 21.2455C130.506 20.9755 130.955 20.7058 131.344 20.4357C131.733 20.1356 131.928 19.866 131.928 19.6259V15.4848C132.646 15.7249 133.229 16.2497 133.678 17.06C134.127 17.8402 134.56 18.6652 134.979 19.5354C135.398 20.3757 135.863 21.1268 136.371 21.787C136.88 22.4472 137.554 22.7762 138.392 22.7762C138.631 22.7762 138.976 22.6864 139.424 22.5063C139.903 22.2962 140.382 22.0571 140.861 21.787C141.37 21.4869 141.818 21.1868 142.207 20.8867C142.626 20.5866 142.896 20.3314 143.016 20.1213C142.417 20.0013 141.774 19.6562 141.086 19.0861C140.427 18.4859 139.813 17.8102 139.244 17.06C138.705 16.2797 138.257 15.4997 137.898 14.7194C137.539 13.9092 137.36 13.219 137.36 12.6489C137.36 12.3188 137.523 11.9432 137.852 11.5231C138.181 11.103 138.541 10.6375 138.93 10.1274C139.319 9.61722 139.678 9.06187 140.007 8.4617C140.336 7.83152 140.501 7.15738 140.501 6.43718C140.501 5.29685 140.232 4.42691 139.694 3.82674C139.155 3.19656 138.196 2.76159 136.819 2.52152ZM26.8113 2.70095C26.6018 3.27111 26.3313 3.88585 26.0021 4.54604C25.6729 5.17622 25.3288 5.82145 24.9696 6.48164C24.6404 7.14183 24.3122 7.80151 23.983 8.4617C23.6838 9.12189 23.4597 9.73821 23.31 10.3084L16.0367 22.4618C16.2762 22.5219 16.5611 22.5813 16.8903 22.6413C17.2195 22.6713 17.5636 22.7018 17.9228 22.7318C18.2819 22.7918 18.6261 22.8367 18.9553 22.8667C19.2845 22.8968 19.5838 22.9112 19.8531 22.9112H20.211L33.2754 22.3269H34.3078H36.0133H37.7188C38.2576 22.2969 38.6017 22.2664 38.7513 22.2364L37.7188 20.6612C37.4495 20.2711 37.1358 19.6403 36.7766 18.7701C36.4175 17.8998 36.0285 16.9095 35.6096 15.7992C35.2204 14.6889 34.8171 13.5043 34.3981 12.244C33.9791 10.9836 33.5742 9.75255 33.1851 8.55221C32.826 7.35187 32.4962 6.24117 32.197 5.22088C31.8977 4.20059 31.6592 3.36114 31.4796 2.70095L26.8113 2.70095ZM116.192 2.70095C115.893 2.73096 115.579 2.7759 115.25 2.83592C114.921 2.86593 114.621 2.91087 114.352 2.97088C114.083 3.0309 113.859 3.09029 113.679 3.15031C113.499 3.21033 113.41 3.27131 113.41 3.33133C112.302 3.87148 111.3 4.41079 110.403 4.95094C109.535 5.4911 108.786 6.10743 108.157 6.79762C107.529 7.48782 107.05 8.28233 106.721 9.18258C106.392 10.0828 106.227 11.1775 106.227 12.4679C106.197 12.5879 106.168 12.888 106.138 13.3682V14.81C106.138 15.14 106.183 15.4691 106.273 15.7992C106.362 16.1293 106.436 16.37 106.496 16.5201C106.705 17.4203 107.155 18.2453 107.844 18.9956C108.562 19.7458 109.385 20.4054 110.312 20.9756C111.24 21.5458 112.213 21.9968 113.231 22.3269C114.248 22.627 115.19 22.7762 116.057 22.7762C117.344 22.7762 118.542 22.4616 119.649 21.8315C120.786 21.1713 121.759 20.3302 122.567 19.3099C123.406 18.2596 124.049 17.1056 124.498 15.8452C124.977 14.5549 125.215 13.2789 125.215 12.0185C125.215 11.0282 124.962 9.99296 124.454 8.91265C123.975 7.83234 123.346 6.82757 122.567 5.89731C121.819 4.96704 120.966 4.20143 120.009 3.60126C119.051 3.00109 118.108 2.70095 117.18 2.70095H116.192ZM45.4513 6.12119C45.6908 6.12119 45.9741 6.15169 46.3033 6.2117C46.6326 6.27172 46.9478 6.37764 47.2471 6.52769C47.5764 6.64772 47.8597 6.81145 48.0991 7.02151C48.3385 7.20156 48.489 7.42786 48.5488 7.69794C48.5786 7.96801 48.5175 8.28261 48.3682 8.64271C48.2187 9.00282 48.0105 9.3479 47.7412 9.678C47.5017 9.97808 47.2168 10.2477 46.8876 10.4878C46.5883 10.6979 46.289 10.8038 45.9898 10.8038C45.9 10.8038 45.7799 10.7428 45.6302 10.6228C45.5106 10.4727 45.4513 10.3684 45.4513 10.3084V6.12119ZM132.69 6.12119C132.929 6.12119 133.214 6.15169 133.543 6.2117C133.872 6.27172 134.186 6.37764 134.485 6.52769C134.815 6.64772 135.1 6.81145 135.339 7.02151C135.578 7.20156 135.727 7.42786 135.787 7.69794C135.817 7.96801 135.758 8.28261 135.608 8.64271C135.458 9.00282 135.249 9.3479 134.979 9.678C134.74 9.97808 134.457 10.2477 134.127 10.4878C133.828 10.6979 133.529 10.8038 133.23 10.8038C133.14 10.8038 133.02 10.7428 132.87 10.6228C132.75 10.4727 132.69 10.3684 132.69 10.3084V6.12119ZM63.249 6.84208H63.8333H66.3924C67.1704 6.84208 67.8428 6.93197 68.4114 7.11202C68.98 7.29207 69.4297 7.6227 69.759 8.10284C70.0881 8.58298 70.253 9.31809 70.253 10.3084C70.253 12.7091 69.5791 14.404 68.2324 15.3943C66.9156 16.3846 64.9996 16.8805 62.4857 16.8805L62.2165 7.42641C62.2165 7.18635 62.2773 7.03707 62.397 6.97705C62.5467 6.88702 62.83 6.84208 63.249 6.84208ZM115.834 7.87737C115.894 7.87737 116.013 7.89182 116.192 7.92182H116.597C116.747 7.98184 116.941 8.08776 117.18 8.23781C117.45 8.38785 117.704 8.55317 117.944 8.73322C118.183 8.91327 118.407 9.10749 118.617 9.31755C118.826 9.4976 118.96 9.64847 119.02 9.7685C119.02 9.79851 119.065 9.93334 119.155 10.1734C119.245 10.4135 119.336 10.6831 119.426 10.9832C119.545 11.2833 119.649 11.569 119.739 11.8391C119.829 12.1091 119.874 12.2889 119.874 12.3789C119.874 13.7593 119.454 14.9439 118.617 15.9342C117.778 16.9244 116.807 17.69 115.7 18.2302C114.772 18.0501 113.978 17.75 113.32 17.3299C112.661 16.9098 112.123 16.4298 111.704 15.8897C111.315 15.3195 111.045 14.7192 110.895 14.0891C110.745 13.4589 110.717 12.8441 110.806 12.244C110.806 11.7338 110.971 11.2234 111.3 10.7133C111.63 10.1731 112.048 9.69321 112.556 9.27309C113.065 8.85297 113.604 8.52234 114.173 8.28227C114.772 8.01219 115.325 7.87736 115.834 7.87736V7.87737ZM28.113 9.678C28.5319 9.82804 28.7864 10.1282 28.8763 10.5783C28.9959 11.0284 29.1 11.4939 29.1898 11.974L30.4915 15.9802C30.5213 16.2203 30.3276 16.4 29.9087 16.5201C29.5197 16.6101 29.0411 16.6855 28.4724 16.7456C27.9337 16.8056 27.3943 16.8345 26.8556 16.8345H25.6885H24.8809H24.3409C24.0716 16.8045 23.9082 16.79 23.8484 16.79C23.8783 16.73 23.9518 16.5791 24.0717 16.3391C24.1914 16.099 24.281 15.9497 24.3409 15.8897C24.4008 15.7697 24.6105 15.4101 24.9696 14.81C25.3587 14.1798 25.778 13.5041 26.2269 12.7838C26.6759 12.0636 27.0808 11.404 27.44 10.8038C27.8291 10.1736 28.0531 9.79803 28.113 9.67799V9.678ZM115.429 10.6688C114.561 10.6688 113.978 11.0139 113.679 11.7041C113.38 12.3943 113.229 13.1888 113.229 14.0891L113.273 14.3145C113.333 14.4646 113.468 14.6139 113.677 14.7639C113.917 14.8839 114.261 14.9738 114.71 15.0338C115.189 15.0639 115.846 15.0045 116.684 14.8544C116.804 14.8244 116.924 14.704 117.044 14.494C117.193 14.2839 117.314 14.0592 117.403 13.8191C117.523 13.5491 117.613 13.2939 117.673 13.0538C117.762 12.8137 117.807 12.6339 117.807 12.5139C117.807 11.8237 117.538 11.3438 117 11.0737C116.461 10.8036 115.936 10.6688 115.427 10.6688H115.429Z" transform="translate(96 23)" fill="black"/>
<path d="M3.08447 6.2063C4.78796 6.2063 6.16889 4.81697 6.16889 3.10315C6.16889 1.38933 4.78796 0 3.08447 0C1.38097 0 0 1.38933 0 3.10315C0 4.81697 1.38097 6.2063 3.08447 6.2063Z" transform="translate(68.8514 60.2822)" fill="white"/>
<path d="M3.08447 6.2063C4.78796 6.2063 6.16889 4.81697 6.16889 3.10315C6.16889 1.38933 4.78796 0 3.08447 0C1.38097 0 0 1.38933 0 3.10315C0 4.81697 1.38097 6.2063 3.08447 6.2063Z" transform="translate(14.5028 60.2822)" fill="white"/>
<path d="M48.4549 0H0V48.4549H48.4549V0Z" transform="translate(44.7075 1.66444) scale(0.996972 1.00302) rotate(45)" fill="white"/>
<path d="M3.44937 0C1.54883 0 0 1.55787 0 3.46993C0 5.38199 1.54883 6.93986 3.44937 6.93986C5.3499 6.93986 6.89838 5.38199 6.89838 3.46993C6.89838 1.55787 5.3499 0 3.44937 0ZM3.44937 0.733603C4.95582 0.733603 6.1692 1.95434 6.1692 3.46993C6.1692 4.98552 4.95582 6.20625 3.44937 6.20625C1.94292 6.20625 0.729181 4.98552 0.729181 3.46993C0.729181 1.95434 1.94292 0.733603 3.44937 0.733603Z" transform="translate(68.4866 59.9155)" fill="#334C59"/>
<path d="M3.44937 0C1.54883 0 0 1.55787 0 3.46993C0 5.38199 1.54883 6.93986 3.44937 6.93986C5.3499 6.93986 6.89838 5.38199 6.89838 3.46993C6.89838 1.55787 5.3499 0 3.44937 0ZM3.44937 0.733603C4.95582 0.733603 6.1692 1.95434 6.1692 3.46993C6.1692 4.98552 4.95582 6.20625 3.44937 6.20625C1.94292 6.20625 0.729181 4.98552 0.729181 3.46993C0.729181 1.95434 1.94292 0.733603 3.44937 0.733603Z" transform="translate(14.1627 59.9155)" fill="#334C59"/>
<path d="M34.6747 0L34.4169 0.259363L0 34.885L34.6747 69.7699L69.3494 34.885L34.6747 0ZM34.6747 1.03747L68.3182 34.885L34.6747 68.7325L1.03124 34.885L34.6747 1.03747Z" transform="translate(10.0327 1.14587)" fill="#334C59"/>
<path d="M32.3728 0L32.115 0.259363L0 32.5692L32.3728 65.1383L64.7457 32.5692L32.3728 0ZM32.3728 1.03746L63.7145 32.5692L32.3728 64.1008L1.0312 32.5692L32.3728 1.03746Z" transform="translate(12.3346 3.46144)" fill="#334C59"/>
<path d="M54.4282 0H0V54.7582H54.4282V0Z" transform="translate(17.4934 8.65155)" fill="#FEFDFE"/>
<path d="M0 0V0.458502V55.6754H55.3394V0H0ZM0.911476 0.917004H54.428V54.7584H0.911476V0.917004Z" transform="translate(17.0378 8.1929)" fill="#334C59"/>
<path fill-rule="evenodd" clip-rule="evenodd" d="M0.701765 0L0 0.1397V11.5105H11.5629L11.6598 10.7902C11.6598 10.7902 4.28784 8.76188 0.701765 0ZM0.729181 1.81574C3.40741 7.15186 7.43126 9.68975 9.71434 10.7769H0.729181V1.81574Z" transform="translate(19.212 49.9954)" fill="#334C59"/>
<path fill-rule="evenodd" clip-rule="evenodd" d="M10.958 0C7.37193 8.76188 0 10.7902 0 10.7902L0.0972004 11.5105H11.6598V0.1397L10.958 0ZM10.9306 1.81574V10.7769H1.94543C4.22853 9.68975 8.25237 7.15186 10.9306 1.81574Z" transform="translate(58.5879 49.9954)" fill="#334C59"/>
<path d="M22.0332 0.00364678C21.2301 -0.0214081 19.9156 0.0546993 19.8837 1.13844C19.5959 2.44618 20.6982 3.44751 21.8163 3.83823C22.2601 4.05988 22.4701 4.21244 21.8697 3.97721C20.5682 3.61662 18.8157 3.90292 18.2064 5.26209C18.4809 4.45131 17.9743 3.58118 17.1108 3.50904C13.7813 2.9136 10.3622 3.15226 6.99416 3.08421C4.7362 3.1789 2.41993 2.99649 0.200815 3.44599C-0.406465 4.05636 0.528249 4.88419 0.836 5.44191C1.91834 6.87563 3.98911 6.30647 5.51408 6.44799C8.51958 6.54964 11.5584 6.16574 14.5441 6.55485C15.2981 6.86072 14.629 7.08684 14.0721 6.91283C11.1172 6.9189 8.11988 6.46007 5.18438 6.90482C3.80856 7.13314 3.80645 8.90761 4.37011 9.88006C5.33961 11.4025 7.43783 10.8399 8.83527 10.35C11.0105 9.51257 13.014 8.29286 15.0949 7.25227C16.0393 8.78875 17.3852 10.2115 19.042 10.955C20.0627 10.8555 19.9943 9.3658 19.5341 8.70229C19.1608 7.95629 18.2184 7.23231 18.1427 6.51186C18.6542 8.13301 20.8167 8.9228 22.1524 7.78098C22.4786 7.53366 22.839 7.13141 23.0482 6.86971C22.6046 8.0651 21.2689 8.25179 20.3779 8.92258C19.5583 10.2022 19.9739 11.8752 19.8449 13.3124C19.4781 14.394 20.2151 14.7528 20.9155 14.5439C20.3338 14.5126 19.3794 15.2041 20.1646 15.6844C21.9137 16.279 23.8862 16.187 25.6659 15.77C26.3904 15.6042 26.1369 14.6561 25.4708 14.6316C24.3396 14.3302 26.6602 14.9273 26.0517 13.9808C26.095 9.51449 26.0149 5.01285 26.4204 0.583576C25.6597 -0.22864 24.317 0.152708 23.3299 0.00722463C22.8977 0.00217194 22.4654 -0.00299146 22.0332 0.00364398V0.00364678ZM56.6023 0.413791C56.807 5.07786 56.9969 9.74258 57.1923 14.4071C57.6476 14.4651 59.2363 14.442 58.0988 14.5718C57.5009 14.5202 56.4827 15.2362 57.2528 15.7636C58.7149 16.268 60.3344 15.9456 61.849 15.899C62.4406 15.9735 63.3494 15.2433 62.6003 14.7771C61.8494 14.5151 61.8818 14.5518 62.7544 14.5677C63.2181 14.1684 62.7772 12.8629 62.91 12.1321C62.9296 10.868 63.0286 9.20581 61.7269 8.50169C61.1177 8.03171 59.851 7.54045 60.0289 6.71569C60.7516 7.87368 62.2777 8.78266 63.5897 8.0131C64.2734 7.72511 64.9023 6.94047 65.2069 6.46673C64.8483 7.5765 63.6497 8.24478 63.3946 9.44485C63.0756 10.0336 63.4152 11.2532 64.2331 10.854C65.8203 9.74692 67.3805 8.34761 68.1279 6.53551C71.2955 6.09796 74.5145 6.5524 77.7026 6.52659C79.1173 6.41668 81.0452 6.94483 81.9855 5.53289C82.2908 4.96266 83.1417 4.1387 82.5847 3.51154C80.8526 3.01709 78.9713 3.273 77.1839 3.15767C73.5872 3.22363 69.9558 2.94536 66.3811 3.41411C65.6732 3.51961 64.9477 4.10996 65.0936 4.88131C64.1913 3.55446 62.0529 3.31557 60.8079 4.24622C60.5322 4.4682 60.2653 4.89197 60.1172 5.10662C60.6143 3.65222 62.8784 3.5709 62.8951 1.8201C63.1156 0.987845 62.5801 0.0163746 61.6496 0.0903267C59.9633 -0.00811824 58.2729 0.0452231 56.5849 0.0301483C56.5907 0.158027 56.5965 0.285906 56.6024 0.413785L56.6023 0.413791ZM38.2507 5.50746C38.3098 6.72438 38.3415 7.9295 38.371 9.1461C38.238 8.35147 38.377 7.18054 37.5906 6.72679C36.0114 6.87399 34.5986 7.83477 33.1202 8.36738C31.466 9.10137 29.8244 9.86386 28.1767 10.6126C28.1694 11.6918 28.1665 12.975 28.1575 13.9289C28.0019 13.0247 28.2728 11.8409 27.6006 11.1263C26.7427 10.9708 26.8238 12.2214 26.6838 12.772C26.5655 15.0574 26.3858 17.4095 26.8672 19.663C27.0496 20.0074 27.0852 20.1224 26.5638 20.019C26.5638 22.3081 26.5638 24.5971 26.5638 26.8862C26.8463 26.9918 28.6 26.6653 27.9909 27.0227C27.6303 27.2604 27.5709 27.9387 27.5675 28.1603C27.5657 27.445 26.5131 26.8419 26.2131 27.7025C26.1129 28.5982 26.5172 29.4845 26.6144 30.3751C26.7361 30.8986 27.1647 31.2953 27.5501 31.6027C26.9771 31.1409 26.6576 31.815 26.7137 32.3707C26.377 33.8639 26.8331 35.4112 27.8723 36.5201C29.0529 37.7742 29.7978 39.4305 29.6016 41.1445C29.5885 41.6414 29.4809 42.8782 30.3258 42.5308C31.4041 41.7251 32.9314 41.221 33.5249 39.9227C33.7636 38.5605 33.8155 37.0953 33.5148 35.7403C33.3482 35.2244 32.6729 34.7964 32.4211 34.5994C32.8523 34.9607 33.8798 35.1548 33.8307 34.3082C33.5435 33.069 32.1212 32.5477 31.2141 31.8298C30.026 30.9144 28.2379 30.4528 27.7138 28.9276C28.1498 29.8075 29.3727 30.4125 30.2691 30.9507C31.5896 31.8414 33.3566 32.3138 34.1928 33.7551C34.1128 34.5263 34.8249 35.354 35.6098 34.93C37.6229 34.3037 38.5097 32.16 38.6972 30.2141C38.6911 29.3319 39.2816 28.0427 38.4247 27.4034C36.9612 26.8448 35.8892 28.354 34.7902 29.0232C34.3427 29.2201 33.421 29.3886 34.3159 29.044C34.8976 28.7062 36.1114 28.1843 35.7045 27.3304C35.5214 26.9192 34.2363 26.8274 35.1755 26.8378C36.3288 26.6623 37.8014 27.0505 38.7327 26.1769C38.9401 26.0601 38.7867 27.2915 38.8783 27.6219C39.0655 29.8008 38.9422 32.0546 39.4758 34.1814C40.3639 35.3255 42.1592 35.2419 43.3684 34.6771C44.3908 34.0183 43.987 32.5283 44.2266 31.5115C44.3962 29.826 44.3671 27.6116 44.564 26.2547C45.5351 27.0936 46.994 26.6089 48.1554 26.755C48.506 26.7668 50.0019 26.711 49.006 26.7791C48.3558 26.7984 46.8556 27.0434 47.4053 28.017C47.8706 28.589 48.7362 28.9227 49.2567 29.2249C47.6442 29.1113 46.9587 27.0557 45.3822 26.9514C44.2517 27.3029 44.5796 28.8509 44.5896 29.7443C44.6827 31.8275 45.5393 34.2334 47.6976 34.9322C48.7472 35.4265 49.1832 34.1691 49.2788 33.3697C50.8362 31.6216 53.3612 31.1424 54.9698 29.4248C53.5255 31.3065 50.7457 31.7686 49.5362 33.9224C49.2901 34.5766 50.1266 35.0613 50.6421 34.6621C49.1692 35.6032 49.6514 37.547 49.6384 39.0039C49.6101 40.8863 51.6674 41.5816 52.9297 42.4806C53.8353 43.2671 53.4132 41.2144 53.6973 40.6644C53.7791 39.9638 53.9993 38.8677 54.2285 38.4157C53.9696 39.5291 54.6887 40.7592 55.7179 41.156C56.6067 40.818 56.1737 39.5285 56.2829 38.7994C56.1259 38.1821 56.576 36.8609 55.6463 36.7673C55.2679 36.7375 54.4989 37.6381 54.9572 37.027C56.0019 35.5196 56.6569 33.6372 56.6137 31.7968C56.4724 31.186 55.6384 31.4991 55.4223 31.6654C56.7659 30.7901 57.0933 28.9121 56.5303 27.4937C55.8686 26.7042 54.6373 26.9089 53.7254 26.9593C52.36 27.2824 51.6874 29.0963 50.3711 29.1977C51.2358 28.9977 53.0347 27.6153 51.53 26.9772C51.1379 26.7936 50.3222 26.7455 50.165 26.7332C52.2096 26.5861 54.3887 26.8474 56.3313 26.0885C57.0076 25.7241 56.4874 24.8759 55.8425 24.9218C52.4816 24.5319 49.0672 24.6509 45.6966 24.8613C45.2782 24.9259 44.7794 25.0037 44.5352 25.3964C44.6965 25.1342 44.3136 23.5753 44.8072 24.2627C46.4003 24.8073 48.1754 24.5357 49.8356 24.6331C52.0123 24.5403 54.2581 24.724 56.3915 24.2767C56.8967 23.5281 56.4554 22.4728 56.4171 21.6199C56.2822 21.0138 56.278 19.927 55.7567 19.9847C56.4104 18.5877 56.1926 16.9218 56.2975 15.4129C56.2095 13.9681 56.3853 12.3951 55.7987 11.046C55.1243 10.5048 54.7874 11.6263 54.7971 12.145C54.7391 12.7299 54.7212 14.047 54.7291 12.7006C54.5835 11.7355 55.245 10.2558 53.8607 10.0805C51.2694 8.9441 48.7777 7.4699 46.0491 6.70028C45.179 6.84998 45.2769 8.06054 45.1109 8.72951C45.0268 9.39442 44.9701 10.0624 44.9218 10.7308C44.9653 8.85709 45.014 6.99356 45.0892 5.1249C42.8042 5.1249 40.5192 5.1249 38.2342 5.1249C38.2397 5.25242 38.2452 5.37994 38.2506 5.50746H38.2507ZM71.9813 6.76512C70.6269 6.803 69.2424 6.6896 67.9406 7.15556C70.4848 8.55864 72.9442 10.4761 75.9014 10.839C77.174 11.0861 78.4859 10.2315 78.6768 8.92581C78.9448 8.09135 78.7291 6.83754 77.6531 6.8124C75.7646 6.72154 73.8715 6.762 71.9813 6.76512ZM67.7433 8.1725C66.9395 8.14217 66.9631 9.1825 67.4047 9.61607C68.7794 11.4909 70.5375 13.0669 72.2932 14.5725C73.5315 15.623 75.5618 14.1723 75.1227 12.6364C74.6007 11.2078 72.9618 10.6283 71.7847 9.85457C70.4927 9.22339 69.1981 8.34157 67.7433 8.1725ZM14.9358 8.19328C12.8244 8.6323 10.9581 9.87504 9.13577 10.9855C8.21434 11.5294 7.29589 12.5266 7.69771 13.6849C8.02914 14.8339 9.75346 15.5139 10.6237 14.555C12.4476 13.0188 14.2983 11.385 15.5556 9.33273C15.8658 8.80766 15.6085 8.13606 14.9358 8.19328ZM41.6883 9.16473C42.2856 9.27298 40.9871 9.25871 41.6883 9.16473V9.16473ZM17.1172 9.95457C15.5192 10.4817 14.3709 11.9006 13.1149 12.9663C11.9902 14.1915 10.3885 15.3732 10.1772 17.1423C10.2376 18.4278 12.1341 18.9437 13.048 18.1972C14.7613 16.5759 15.8372 14.3901 17.0437 12.3859C17.2577 11.9273 18.4041 10.033 17.1172 9.95457ZM65.8139 10.0538C64.8828 10.1644 65.3739 11.3428 65.6658 11.8441C66.8126 13.9576 67.9475 16.1804 69.6952 17.8601C70.3514 18.6045 71.8387 18.9029 72.295 17.7914C73.0928 16.2068 71.5644 14.7881 70.581 13.7451C69.1533 12.4488 67.8326 10.8752 66.0446 10.0846C65.9694 10.0655 65.8917 10.0524 65.8139 10.0538ZM18.8622 11.266C17.5207 11.7718 16.8708 13.279 16.0534 14.3664C14.9655 16.2724 13.4557 18.0643 12.9978 20.2573C12.8045 21.2808 14.1337 22.5717 15.0077 21.6478C16.6785 19.4925 17.5569 16.8307 18.7066 14.3784C18.9348 13.4494 19.965 12.3057 19.2446 11.3835C19.1397 11.2941 18.9986 11.2524 18.8622 11.266ZM64.0693 11.3376C63.1268 11.4573 63.39 12.6689 63.7033 13.2497C64.9796 16.0641 66.2002 18.9666 68.0367 21.4651C68.643 22.3817 69.8706 21.6672 70.0306 20.7874C70.2204 19.5195 69.1903 18.4391 68.71 17.3449C67.4464 15.3496 66.3539 13.1467 64.6194 11.5174C64.4578 11.4081 64.2675 11.3264 64.0693 11.3376ZM18.7461 15.0164C17.7183 15.9358 17.726 17.5526 17.5516 18.8368C17.4671 19.7922 17.4203 20.7505 17.39 21.7091C17.2443 21.0524 17.6509 19.8042 16.779 19.5795C16.0021 19.9774 15.9183 21.0872 15.6037 21.8366C15.0001 24.5356 14.9074 27.4076 15.5019 30.1147C15.5974 30.7588 16.3597 32.0374 17.0218 31.2556C17.3559 30.3347 17.3402 29.3277 17.3907 28.3602C17.3491 30.5134 17.9366 32.6211 17.9664 34.7585C17.6286 35.2747 17.4667 35.8952 17.4331 36.5226C17.5302 34.6609 16.958 32.8501 15.936 31.3074C15.4221 30.7163 15.4943 29.7408 14.9635 29.226C14.1712 29.1927 14.3184 30.43 14.0481 30.991C12.7099 36.5949 13.0711 42.6586 15.2701 47.988C15.5243 48.279 15.8844 47.846 15.8579 48.353C16.4395 49.0008 17.0875 47.9211 17.4231 47.5274C16.9583 48.5199 16.5268 49.6365 16.4732 50.6953C16.8573 51.4318 17.2821 52.1455 17.7065 52.8589C17.7739 52.3461 17.9918 53.5776 18.4207 53.8744C18.9318 54.5804 19.4609 55.2729 19.9802 55.9728C20.0773 53.5374 19.9453 50.828 19.9592 48.5712C20.3011 46.7152 20.4792 44.7386 20.0624 42.889C19.4534 42.2066 18.8208 43.3739 18.4004 43.7583C17.4868 44.8984 16.6223 46.0969 15.9864 47.4188C16.0319 45.677 17.1828 44.2381 17.2199 42.4939C17.2749 42.1638 17.3398 40.9664 17.3245 42.0017C17.1531 42.5496 17.6528 43.5006 18.1159 42.716C18.9607 41.4975 20.561 40.2058 20.035 38.5296C19.7459 30.8784 20.3456 23.1421 19.3383 15.5178C19.2907 15.2387 19.0653 14.9167 18.7461 15.0164ZM64.0942 15.131C63.2306 15.3897 63.5974 16.6258 63.3999 17.2985C63.1219 22.557 62.6591 27.8614 63.2511 33.1125C63.3196 33.704 63.5961 35.0355 64.4485 34.5661C65.2275 33.4723 64.9919 31.9609 65.2001 30.6885C65.4231 26.1492 65.6618 21.5716 65.1966 17.0424C64.9769 16.4192 64.8439 15.2889 64.0943 15.131H64.0942ZM42.0636 16.0398C41.9268 16.52 40.7772 15.9935 41.5818 16.0874C41.677 16.1358 42.0779 15.9746 42.0636 16.0398ZM19.9136 16.596C19.922 21.1567 20.1648 25.7362 20.8002 30.2519C21.4335 30.8417 22.1144 29.7625 22.6595 29.4641C24.0137 28.3451 25.6796 27.1366 25.7485 25.1922C26.0298 22.3544 26.1609 19.5009 26.315 16.6537C24.3564 16.2743 22.3109 16.2951 20.3135 16.2288C19.92 16.205 19.838 16.1375 19.9136 16.596ZM62.4553 16.2407C60.5217 16.1934 58.602 16.4986 56.6714 16.5226C56.7564 19.6084 56.4746 22.7925 57.3062 25.7994C58.1823 28.225 60.6633 29.461 62.5031 31.0392C62.9534 27.8744 62.7035 24.6493 62.8381 21.4608C62.8526 19.7205 62.8876 17.9791 62.81 16.2396L62.6277 16.2402L62.4553 16.2407ZM28.1272 19.87C27.7604 20.3294 27.6563 19.9208 27.8912 19.5301C28.0506 18.786 28.0964 18.0226 28.1411 17.2645C28.1366 18.133 28.1318 19.0015 28.1273 19.87H28.1272ZM54.7374 18.0489C54.8128 18.7043 54.7319 19.5122 55.1806 20.0387C54.2617 20.5425 54.937 17.5016 54.7374 18.0489ZM38.6167 19.8149C38.6298 20.2633 38.7647 20.7289 38.318 20.3439C36.7222 19.9274 34.9874 20.1768 33.3846 20.0721C34.9959 19.9015 36.779 20.2213 38.2756 19.49C38.5885 19.3823 38.6297 18.4643 38.6022 19.2431C38.6071 19.4337 38.6118 19.6243 38.6167 19.8149H38.6167ZM65.4782 19.4484C65.4293 20.7296 65.8237 22.0528 65.7715 23.3485C65.9361 25.8267 65.7714 28.3654 66.0774 30.8297C66.5566 31.5968 67.2883 30.6452 67.503 30.1319C68.2859 28.0965 67.9434 25.8193 67.7849 23.6989C67.5574 22.1062 66.9893 20.4841 65.9489 19.2528C65.7412 19.2658 65.5064 19.1154 65.4782 19.4484ZM44.7186 19.5032C44.8412 20.0783 45.8203 19.9025 46.3457 20.0387C45.7963 19.8662 44.3556 20.4881 44.7186 19.5032ZM41.825 19.8643C42.1553 19.9606 42.2454 20.296 41.851 20.0423C41.0278 19.802 40.4513 20.9799 41.0681 21.5124C39.9086 21.1556 41.1136 19.8266 41.825 19.8643ZM38.7452 24.1642C38.6377 24.3278 39.0138 25.776 38.6587 25.2578C37.5111 24.4352 35.9392 24.9115 34.6276 24.6929C33.1806 24.6401 31.6062 24.6134 30.2436 24.5503C32.6332 24.2909 35.0324 24.7185 37.4246 24.5299C38.0203 24.4629 38.595 24.0668 38.7224 23.4517C38.7301 23.6892 38.7376 23.9267 38.7452 24.1642ZM40.9812 26.4793C41.2296 26.8907 42.2352 26.4287 41.5989 26.9793C41.3707 27.5062 40.9412 26.5692 40.9812 26.4793ZM32.0259 26.8934C31.2604 26.9255 30.8768 27.9078 31.5538 28.3606C31.9812 28.7437 32.4905 29.0236 33.0054 29.2686C31.32 29.2379 30.5442 27.5146 29.1512 26.8844C30.0672 26.8902 31.2892 26.8702 32.0259 26.8933V26.8934ZM25.1916 28.3323C23.5326 29.6274 21.7707 30.8587 20.3234 32.3861C20.422 40.5023 20.6219 48.6173 20.7699 56.7329C21.5205 57.4892 22.271 58.2453 23.0215 59.0017C23.095 51.6986 23.0547 44.3773 23.2925 37.0864C23.5461 44.5131 23.3169 51.9647 23.5599 59.3986C24.2479 59.7907 25.2966 60.9437 25.7546 60.8563C26.0007 51.0698 25.8592 41.2761 25.8479 31.487C25.8413 30.295 25.7832 29.1042 25.7513 27.9128C25.5648 28.0526 25.3782 28.1924 25.1916 28.3323ZM57.4372 28.3351C56.6352 28.5966 57.055 29.7755 56.8906 30.4083C56.6449 40.5907 56.7168 50.778 56.644 60.9626C57.5411 60.2821 58.7027 59.6798 59.304 58.7761C59.3204 56.5306 59.3368 54.2851 59.3531 52.0397C59.4803 54.1192 59.3422 56.2342 59.6444 58.2939C60.656 58.1946 61.1282 57.0167 61.8704 56.4341C62.5372 55.7698 63.1411 55.0435 62.876 54.0238C62.8873 51.335 62.8997 48.6462 62.9104 45.9574C63.2875 47.7864 64.012 49.6201 65.2542 51.0206C65.9679 51.1936 66.0774 49.9851 66.4392 49.5141C66.8165 48.6668 67.5286 47.6563 66.8671 46.7558C66.0161 45.3111 65.2199 43.6101 63.7396 42.7278C63.4231 42.5134 62.9507 43.0467 62.9178 42.9835C62.8332 39.5813 63.0863 36.1352 62.549 32.7632C62.1233 31.4217 60.6931 30.7404 59.7451 29.8035C59.0116 29.2939 58.3284 28.5391 57.4372 28.3351ZM67.4642 30.3361C65.9757 32.7356 65.5052 35.586 65.563 38.3745C65.5534 41.0919 65.563 44.0698 67.1117 46.4148C67.9641 46.7071 67.8833 45.3357 68.1387 44.8034C69.4812 39.7947 69.333 34.4354 67.9121 29.4602C67.7628 29.7522 67.6135 30.0441 67.4642 30.3361ZM44.5648 34.7688C43.0895 34.9512 41.5962 35.6367 40.1128 35.0282C39.3152 34.8354 37.9413 34.3743 37.53 35.381C37.4906 35.6845 37.7282 35.978 37.3004 35.6998C35.6185 35.2425 34.0409 36.967 33.9781 38.5909C33.8866 39.1074 33.8724 39.9093 34.5343 40.033C32.4734 41.3925 29.8677 42.7478 29.3154 45.4082C28.8522 47.0707 28.6862 49.0516 28.6652 50.6112C28.5739 49.959 28.0032 49.3259 27.423 49.284C28.7161 47.2127 29.4057 44.7447 29.4813 42.3083C29.5411 41.4029 28.4256 41.0102 27.847 41.6464C25.9341 43.0835 26.237 45.7608 26.1127 47.8745C26.1573 50.7048 25.896 53.5837 26.3509 56.3847C26.8586 57.1649 27.5526 56.0749 27.8476 55.6289C28.4907 54.6992 28.7952 53.5123 28.808 52.4269C29.1056 53.3417 29.1503 54.5222 29.8704 55.203C30.2118 55.4721 30.7666 54.4304 30.319 55.1661C29.3442 56.417 29.7008 58.0173 29.6483 59.4946C30.4308 60.4903 32.2803 60.3759 32.8306 59.1973C32.3792 59.8756 33.3153 60.6698 33.8653 60.0681C35.12 58.2033 35.5577 55.8815 35.8178 53.676C35.8103 52.8778 36.0871 51.5462 35.1378 51.2029C33.7596 51.2126 32.7412 52.4322 31.7917 53.2952C31.2032 53.9483 32.1474 52.7915 32.3357 52.491C33.386 50.8068 35.5012 50.3277 36.9518 49.0676C38.6288 47.7176 40.5317 46.2728 41.2411 44.1481C41.5997 42.2957 41.5196 40.3568 41.3201 38.4924C41.0174 37.2764 39.4408 37.421 38.6327 37.2856C38.7613 37.0476 38.3752 36.6109 38.7872 36.8701C40.7314 37.4494 42.9538 37.3378 44.8218 36.7078C44.4833 37.1151 45.028 37.8107 45.1238 37.8827C44.2235 37.4489 42.6369 37.063 42.0949 38.2037C41.7368 40.0518 41.7867 42.0007 42.0312 43.8654C42.5761 46.03 44.5065 47.4406 46.0979 48.8373C48.2608 50.4674 50.5644 51.918 52.3024 54.0288C52.7157 54.6205 53.7556 54.8446 54.0612 54.0352C54.859 51.9551 54.6519 49.6251 54.4825 47.4467C54.2004 45.534 53.7962 43.3478 52.0107 42.2534C51.063 41.5088 49.9307 40.8016 49.0221 40.1555C49.9704 40.1281 49.3826 38.9158 49.2973 38.3922C49.2864 36.9034 48.036 35.8166 46.7317 35.3613C46.4521 35.1469 45.95 35.5809 45.8658 35.4029C45.6848 34.8813 45.0526 34.7408 44.5648 34.7688V34.7688ZM64.4051 36.0197C63.5854 36.3843 63.6602 37.5718 63.4231 38.3233C63.1834 39.6186 63.1666 41.384 64.3581 42.2052C65.2811 42.1549 65.1078 40.8577 65.1988 40.1983C65.1507 38.8673 65.3687 37.3921 64.7746 36.1662C64.6819 36.0646 64.5426 36.003 64.4051 36.0197ZM26.8366 36.5319C26.069 38.6039 26.0034 40.842 25.9781 43.028C26.9432 41.8669 28.3441 40.9955 29.0508 39.6429C29.226 38.4642 28.0805 37.5956 27.5825 36.639C27.4457 36.3787 26.9138 36.0771 26.8366 36.5319ZM54.5996 41.267C53.6192 41.4953 53.9468 42.8529 53.9924 43.5862C54.2936 45.0497 54.3619 46.6765 55.1593 47.9705C55.9354 48.4582 56.1038 47.1913 56.1003 46.6716C56.0868 45.1294 56.4637 43.3924 55.6339 42.0046C55.3674 41.6856 55.051 41.2803 54.5996 41.267ZM41.5003 45.1424C40.6267 45.3472 40.3902 46.4535 39.7003 46.9246C38.411 48.4336 36.3759 49.6701 36.2878 51.8763C36.0315 54.1626 35.747 56.521 36.265 58.7915C35.9687 58.1743 34.9681 58.3299 35.0466 59.0755C35.183 60.9361 35.5733 62.734 35.6462 64.6055C35.9076 65.6527 37.3517 65.2266 38.0901 65.5286C38.3187 63.8619 37.8008 62.224 37.2285 60.6832C38.7408 62.4108 41.2766 62.2037 43.3364 61.9809C44.7434 61.827 45.5559 60.5164 46.5273 59.6472C45.8089 60.5806 45.0585 61.8082 44.8842 62.8356C44.2213 61.9562 42.8766 62.3652 41.9433 62.2055C40.8293 62.2853 39.4613 61.9535 38.543 62.7328C38.041 63.5636 38.1174 65.2322 39.3298 65.3556C39.9414 65.4718 41.0959 65.5634 41.3119 65.6894C40.5214 65.7409 39.0114 65.3974 38.8891 66.5703C38.7452 69.1377 38.8403 71.715 38.8104 74.286C40.6379 74.0843 42.4698 74.014 44.3063 73.8923C44.4387 71.0415 44.1704 68.1112 44.5836 65.3337C44.8157 64.9018 44.8885 65.6737 45.2865 65.3982C46.0522 65.1041 47.163 65.3448 47.7286 64.69C47.8465 64.4677 47.785 63.8314 47.8728 64.4375C47.9566 64.9471 48.0325 65.7908 48.4699 65.8911C47.9585 66.2782 47.7776 67.2482 48.4008 67.4006C47.9459 67.9861 47.6943 69.5536 48.7985 69.4911C49.7878 69.1428 50.62 68.2407 51.0181 67.282C50.9573 66.7717 50.9723 66.8015 51.4179 67.1921C51.7616 67.4644 52.2561 67.9189 52.4839 68.1163C51.7919 67.5984 50.2227 67.9343 50.317 68.9516C50.2886 69.2911 51.2685 69.4838 50.671 69.4334C49.7094 69.5794 48.2449 69.2281 47.7023 70.2698C47.4237 71.2807 48.6776 71.5714 49.4184 71.4189C51.0591 71.1439 52.7574 71.2497 54.3546 70.7892C55.0476 70.4965 54.5909 69.5798 53.9373 69.6419C53.4385 69.5178 52.5632 69.4944 52.2757 69.4477C52.8775 69.4634 53.2452 68.6799 52.7193 68.3029C53.1411 68.8723 54.1024 68.8598 54.1634 68.0346C54.355 67.1411 53.2504 66.0966 53.1049 65.732C53.9306 66.1544 54.2242 65.0368 54.1185 64.4221C54 63.8396 54.4365 62.4896 53.5083 62.6196C51.7842 63.1925 49.8837 62.4349 48.1591 62.9205C47.6137 63.5382 47.8963 62.4951 47.8529 62.16C47.8334 61.8974 48.3441 62.3943 48.6109 62.2403C50.413 62.1603 52.3576 62.4108 54.048 61.6711C54.6505 60.9896 53.4532 60.4403 52.8727 60.4589C51.3063 60.394 49.5216 60.1471 48.1274 61.0149C47.6626 61.5517 48.1099 60.2529 48.325 59.9875C48.3909 58.8819 47.6277 57.8712 47.616 56.7454C47.0675 54.3557 47.5455 51.6181 46.0926 49.5068C44.8158 47.9779 43.5117 46.3874 41.882 45.2327C41.7632 45.1762 41.6327 45.1369 41.5003 45.1424ZM55.3622 49.4266C54.546 49.854 54.78 51.06 54.6634 51.8408C54.6757 53.0755 54.6206 54.6056 55.5402 55.5304C56.4246 55.6265 56.1731 54.3513 56.2434 53.801C56.1434 52.4243 56.4933 50.882 55.8329 49.6175C55.7234 49.4769 55.5401 49.388 55.3622 49.4266ZM63.5851 49.8059C63.0285 50.3629 63.3376 51.4132 63.1532 52.1532C63.2655 52.8691 62.6479 54.0512 63.5327 54.3723C64.1242 53.5658 64.8482 52.7223 65.13 51.7667C64.7959 51.0611 64.5191 49.9612 63.6709 49.7672L63.5851 49.8059ZM47.8012 50.9909C46.7584 50.8177 47.2166 52.0309 47.1821 52.7242C47.501 54.9466 47.8263 57.2467 48.7818 59.2937C49.0491 60.1871 50.4621 60.6782 50.6809 59.5659C51.4334 60.1127 52.809 60.5177 53.4762 59.6633C53.9268 58.405 53.7691 56.9218 53.2918 55.6862C52.222 53.6297 50.3626 51.9562 48.2434 51.0568C48.0999 51.0155 47.9511 50.9864 47.8012 50.9909ZM28.9244 54.9952C28.0152 55.3337 27.7106 56.4949 27.2827 57.2942C26.7725 58.6671 26.7975 60.1574 26.6272 61.5937C27.3011 61.8608 28.0153 62.668 28.6937 62.5485C29.0569 62.3289 28.7161 61.4772 29.2135 62.0164C30.8853 62.5396 32.711 62.2953 34.4285 62.1389C35.0654 62.192 35.6264 61.3615 34.9637 60.9676C33.4248 60.0767 31.5083 60.1384 29.7964 60.2934C29.4614 60.3088 28.7607 61.0342 29.1459 60.2823C29.5735 58.6996 29.6948 56.9623 29.3616 55.3527C29.2961 55.1639 29.139 54.9836 28.9244 54.9952V54.9952ZM54.4361 55.0618C53.6885 55.499 54.0872 56.6373 53.9644 57.3508C53.8432 59.0148 54.3487 60.6076 54.6658 62.2173C55.6317 61.7812 56.4369 61.2547 56.053 60.06C56.0285 58.3678 56.0432 56.346 54.7363 55.093C54.6421 55.0531 54.5363 55.0321 54.4361 55.0618ZM29.5169 62.6515C28.9542 63.2273 29.3424 64.2686 29.2794 65.021C29.2085 65.643 29.9216 66.1493 30.4316 65.7041C29.7837 66.4329 28.7051 67.5016 29.2431 68.5526C29.5356 69.0781 30.3825 68.404 30.392 68.4659C30.0173 68.7692 30.1248 69.4442 30.6487 69.4789C30.0083 69.5205 28.5604 69.4905 28.7471 70.4783C29.5128 71.3004 30.8692 71.0319 31.8747 71.2641C33.0865 71.4274 34.7907 71.8112 35.6441 70.6241C35.7677 69.6963 34.4622 69.6107 33.804 69.5226C33.5779 69.3988 32.3386 69.6596 32.9791 69.2912C33.3633 68.6274 32.5463 67.8685 31.9576 67.6406C31.6315 67.534 31.0826 67.8609 31.6977 67.4203C32.0646 67.0523 32.1953 66.8364 32.2901 67.4009C32.9405 68.2575 33.8254 69.0836 34.8387 69.4499C35.6719 69.2935 35.3907 68.0219 34.8686 67.6062C34.6277 67.2829 33.7884 66.8171 34.5613 67.1384C35.2656 67.4195 35.5309 66.4631 35.0235 66.0799C34.9035 65.8408 34.2415 65.3515 34.357 65.333C35.3628 65.5875 35.4447 64.0497 34.9715 63.4872C34.1492 62.6733 32.8364 62.7829 31.7761 62.7966C31.2013 63.0375 32.1 63.7226 32.4246 63.9712C32.6935 64.2109 33.1227 64.467 32.5735 64.2545C32.109 64.1161 31.4838 64.7556 31.3872 64.7663C31.9087 64.1617 31.8758 62.7144 30.7986 62.8789C30.1921 63.2562 30.0489 62.4805 29.5169 62.6515ZM32.7608 66.3134C33.0088 66.4179 33.4589 66.5982 32.9225 66.4682C32.7054 66.438 32.4995 66.5779 32.7608 66.3134ZM41.1848 74.5396C40.2594 74.6737 38.8018 74.3808 38.3119 75.4136C38.0591 76.5828 39.3518 77.3517 40.382 77.1517C41.6585 77.0332 43.2987 77.3287 44.2486 76.2679C44.7449 75.6149 44.2931 74.5832 43.4386 74.6345C42.6912 74.5472 41.9366 74.5331 41.1848 74.5396Z" transform="translate(5.96411 1.04376) scale(0.940066)" fill="white"/>
<path d="M61.318 0.001983C60.7232 0.0158334 60.0276 0.101971 59.2155 0.255234L57.5079 0.577618V5.95212C57.5079 10.0192 57.3462 11.3263 56.8436 11.3263C56.4782 11.3263 55.9609 11.1196 55.6939 10.867C55.4269 10.6145 53.1968 9.54618 50.7377 8.49287C48.2787 7.43956 46.2665 6.37396 46.2665 6.12477C46.2665 5.87559 44.6569 5.67165 42.6897 5.67165C40.7224 5.67165 39.1128 5.86778 39.1128 6.10758C39.1128 6.34738 38.1357 6.95908 36.9413 7.46697C35.7469 7.97486 33.3068 9.05097 31.5188 9.85834C29.7307 10.6657 28.0339 11.3263 27.7482 11.3263C27.4068 11.3263 27.3529 9.56569 27.5909 6.18853L27.953 1.05081L26.537 0.509201C25.7581 0.211279 24.1949 0.0362541 23.0634 0.120549C21.221 0.257802 20.9558 0.45225 20.5226 1.98035L20.0388 3.68648L10.7125 3.32254C5.58302 3.12233 1.00556 3.10545 0.540671 3.28493C-0.222107 3.57941 -0.201349 3.75717 0.753586 5.1064C1.33562 5.92875 1.81211 6.85486 1.81211 7.16464C1.81211 7.47442 2.38666 7.7281 3.08924 7.7281C4.16949 7.7281 4.36673 7.96722 4.36673 9.27841C4.36673 10.5443 4.69504 10.9865 6.15515 11.687C7.43069 12.2989 7.94357 12.8827 7.94357 13.723C7.94357 14.4047 8.46888 15.2476 9.19044 15.7232C9.87627 16.1753 10.5087 17.0459 10.5957 17.6579C10.6828 18.2699 11.3863 19.0749 12.1591 19.4464C13.1177 19.9072 13.5645 20.5154 13.5645 21.3607C13.5645 22.0736 13.9983 22.8336 14.5863 23.1502C15.4482 23.6143 15.6082 24.2265 15.6082 27.0608C15.6082 27.2342 15.6129 27.385 15.6153 27.5461C14.2758 30.8805 13.5356 34.5223 13.5356 38.3381C13.5356 49.7114 20.0896 59.5474 29.6004 64.2438C29.6062 64.4271 29.6124 64.6115 29.6217 64.798C29.7127 66.5996 29.5908 68.7627 29.3508 69.6047C29.068 70.5967 29.1139 71.3777 29.4811 71.8227C30.3292 72.8597 35.4133 72.7107 36.33 72.4507C36.7736 71.9631 37.019 69.3938 37.0114 66.7072C37.6497 66.825 38.295 66.9218 38.9473 66.9963C39.0413 70.034 39.0541 74.6218 38.9509 76.6134C38.8225 78.7309 42.8516 78.3101 44.7687 78.2729L45.5054 77.9488L45.9194 77.4856C46.297 75.4972 46.0243 71.7964 46.0259 69.8977C46.0286 68.7043 46.0366 67.7627 46.0505 66.9254C46.8786 66.8136 47.6951 66.6654 48.4993 66.4841C48.5237 69.2279 48.6733 72.0092 48.9251 72.2626C48.9527 72.2903 48.9754 72.3971 48.9946 72.5513C50.847 72.7914 54.3589 72.6561 55.7199 72.163C55.7658 72.0286 55.8194 71.9184 55.8812 71.8435C56.2475 71.3995 56.2729 70.5074 55.9581 69.1419C55.6996 68.0206 55.6261 66.0141 55.7947 64.683C55.8359 64.3574 55.8639 64.0217 55.8802 63.6926C64.8123 58.8046 70.8803 49.2823 70.8803 38.3381C70.8803 34.9372 70.2922 31.6743 69.2166 28.644C69.2428 28.201 69.2582 27.7216 69.2585 27.1689C69.2604 24.186 69.3948 23.6904 70.2822 23.4071C71.0034 23.1768 71.3044 22.6294 71.3044 21.5466C71.3044 20.304 71.5957 19.9101 72.8372 19.4747C73.9378 19.0887 74.3703 18.6053 74.3703 17.7611C74.3703 17.0742 74.9012 16.2352 75.6474 15.7433C76.3949 15.2505 76.9249 14.4124 76.9249 13.723C76.9249 12.8827 77.4378 12.2989 78.7133 11.687C80.1734 10.9865 80.5017 10.5443 80.5017 9.27841C80.5017 8.01434 80.7142 7.72705 81.6514 7.7238C82.4526 7.72103 83.1496 7.10577 83.9508 5.69421C84.5831 4.5801 85.1004 3.5074 85.1004 3.31036C85.1004 3.11332 80.5535 3.11591 74.9959 3.31609L64.891 3.68003L64.3932 1.97712C63.9819 0.570402 63.1024 -0.0395707 61.318 0.001983H61.318ZM24.3249 1.04507C26.069 1.04507 27.2945 1.25053 27.1316 1.51576C26.9725 1.7747 26.8135 4.89757 26.7784 8.45561L26.7146 14.9248H23.9717H21.229V12.3891C21.229 10.3645 21.4215 9.79221 22.1836 9.54885C25.153 8.60069 25.5118 5.2754 22.7682 4.13208C21.6665 3.67296 21.229 3.14278 21.229 2.26763C21.229 1.11447 21.4052 1.04508 24.3249 1.04507ZM57.9526 1.04507H60.796C63.4715 1.04508 63.6397 1.11916 63.6397 2.30202C63.6397 3.16727 63.2016 3.76941 62.2344 4.23345C61.1983 4.73059 60.7873 5.34672 60.6689 6.57969C60.5338 7.98728 60.7554 8.39352 62.0707 9.14659C63.4682 9.94679 63.6334 10.2988 63.6365 12.4829L63.6398 14.9248H61.0848C59.6796 14.9248 58.5275 14.8672 58.5242 14.7965C58.5209 14.7259 58.3909 11.6026 58.2354 7.85634L57.9526 1.04507ZM10.0165 4.1371C13.3446 4.14818 16.5806 4.24809 17.5636 4.44587C18.9629 4.72743 19.1046 4.91927 18.8517 6.1914C18.6516 7.19813 18.8605 7.91529 19.5578 8.61681C20.1023 9.16461 20.5476 9.99856 20.5476 10.4698C20.5476 10.941 20.3735 11.3263 20.1609 11.3263C19.4198 11.3263 16.6823 8.70319 16.3612 7.68547C16.0568 6.72056 15.6504 6.6691 9.45783 6.80859C3.38125 6.94547 2.81906 6.87833 2.10585 5.92884C1.68108 5.36336 1.32614 4.72706 1.31721 4.515C1.30627 4.25538 5.73741 4.12286 10.0165 4.1371ZM74.6558 4.14247C78.9744 4.13177 83.5676 4.2688 83.5676 4.52898C83.5676 4.7488 83.229 5.41482 82.8153 6.00908C82.0999 7.03658 81.737 7.07749 75.4063 6.83939C69.8975 6.63221 68.7494 6.71422 68.7494 7.31473C68.7494 7.71385 67.9909 8.77986 67.0642 9.68354C66.1375 10.5872 65.2179 11.3263 65.0205 11.3263C64.2347 11.3263 64.7256 9.44353 65.739 8.5706C66.538 7.8823 66.7419 7.26906 66.5287 6.19678C66.2935 5.01363 66.4459 4.69592 67.3675 4.4473C68.1039 4.24867 71.2969 4.1508 74.6558 4.14247ZM63.5137 4.7199C64.4412 4.70414 65.4299 5.06917 65.8661 5.77015C66.2793 6.4343 66.1823 6.88938 65.4552 7.69765C64.3189 8.96091 62.9873 9.05471 61.8876 7.9484C60.9125 6.96738 60.8946 6.64416 61.7488 5.46891C62.1079 4.9748 62.7923 4.73215 63.5137 4.7199ZM21.7428 4.90043C23.9949 4.90043 24.8645 6.24236 23.5554 7.69765C22.4264 8.95279 21.0889 9.05574 20.0099 7.97025C18.7129 6.6653 19.7091 4.90043 21.7428 4.90043ZM39.628 6.18567H42.6897H45.7517L45.4284 20.194C45.2463 28.0871 44.8852 34.4832 44.6013 34.8453C44.3242 35.1987 43.464 35.4879 42.6897 35.4879C41.9154 35.4879 41.0552 35.1987 40.7781 34.8453C40.4942 34.4832 40.1331 28.0871 39.951 20.194L39.628 6.18567ZM38.4741 7.7238C38.9361 7.72674 39.1384 9.15031 39.2044 12.8687C39.2545 15.6961 39.3117 18.5298 39.3318 19.1659C39.3669 20.2786 39.1805 20.3284 34.4216 20.4691L29.4747 20.6152L29.4562 16.0993L29.4373 11.5835L33.6365 9.65166C35.946 8.58916 38.1228 7.7216 38.4741 7.7238ZM47.0559 7.7281C47.4065 7.7281 49.4418 8.56333 51.5787 9.58431L55.4642 11.4405V16.0101V20.5798H50.8955C48.3827 20.5798 46.2147 20.3972 46.0778 20.1743C45.9409 19.9514 45.9616 17.0598 46.1237 13.7484C46.3347 9.43926 46.5996 7.7281 47.0559 7.7281ZM74.5404 7.7281C79.3539 7.7281 79.4799 7.75794 79.4799 8.91017C79.4799 9.56047 79.204 10.3701 78.8667 10.7094C77.8819 11.7002 75.8453 11.3927 72.9283 9.81249C71.4326 9.00226 70.0718 8.20178 69.9047 8.03364C69.7376 7.86551 71.8238 7.7281 74.5404 7.7281ZM8.70657 7.77932C9.35728 7.78192 10.1318 7.80187 11.0522 7.83412L15.3529 7.98493L12.1737 9.65559C7.82143 11.943 5.38858 11.7622 5.38858 9.15124C5.38858 8.08406 5.88679 7.76802 8.70657 7.77932ZM68.8362 9.20461C69.4249 9.23314 70.6059 9.71313 72.3589 10.6736C75.0302 12.1372 75.8969 12.8813 75.8995 13.7133C75.9013 14.3192 75.5393 14.9552 75.0948 15.1268C73.8912 15.5915 73.9821 15.645 70.9255 12.6899C68.5195 10.3638 67.855 9.15706 68.8362 9.20461ZM15.9485 9.25835C16.9082 9.20137 16.2856 10.3596 14.0259 12.6616C12.5265 14.1891 11.0619 15.4206 10.7713 15.3983C9.53907 15.3037 8.96611 14.7703 8.97432 13.7255C8.98088 12.8788 9.83201 12.1506 12.5241 10.689C14.2274 9.76426 15.3727 9.29253 15.9485 9.25835ZM42.6897 9.527C42.2681 9.527 41.8499 10.0478 41.76 10.684C41.6344 11.5742 41.8484 11.8406 42.6897 11.8406C43.5309 11.8406 43.745 11.5742 43.6193 10.684C43.5295 10.0478 43.1112 9.527 42.6897 9.527ZM42.6897 10.2982C42.9707 10.2982 43.2006 10.5295 43.2006 10.8122C43.2006 11.095 42.9707 11.3263 42.6897 11.3263C42.4087 11.3263 42.1788 11.095 42.1788 10.8122C42.1788 10.5295 42.4087 10.2982 42.6897 10.2982ZM18.1738 11.0196C18.872 10.9805 18.0576 12.7715 15.7082 16.3386C13.9909 18.946 13.5288 19.2531 12.1591 18.697C10.8104 18.1495 11.6369 16.4696 14.6233 13.6879C16.5104 11.9302 17.6961 11.0464 18.1738 11.0196ZM66.8744 11.044C67.4032 11.104 68.7079 12.112 70.7785 14.0866C72.6117 15.8349 73.3565 16.9201 73.248 17.6851C72.9532 19.7642 71.1796 19.2634 69.4376 16.6091C67.0734 13.0068 66.1958 11.1355 66.779 11.0447C66.8073 11.0403 66.8392 11.04 66.8744 11.044V11.044ZM56.4861 11.8406C56.7867 11.8406 56.997 13.6397 56.997 16.21C56.997 18.7804 56.7867 20.5798 56.4861 20.5798C56.1855 20.5798 55.9752 18.7804 55.9752 16.21C55.9752 13.6397 56.1855 11.8406 56.4861 11.8406ZM28.4418 12.0792C28.7303 12.0856 28.8936 13.5527 28.8936 16.1799C28.8936 18.7705 28.6832 20.5798 28.3824 20.5798C28.0846 20.5798 27.8714 18.8761 27.8714 16.4973C27.8714 14.2521 28.1013 12.2722 28.3824 12.0975C28.4027 12.0848 28.4226 12.0788 28.4418 12.0792V12.0792ZM19.954 12.3271C20.1181 12.3422 20.2068 12.516 20.2068 12.8594C20.2068 13.137 19.3166 15.3026 18.2287 17.6719C16.0763 22.3589 15.5249 23.0029 14.6119 21.8962C13.9335 21.0737 14.4408 19.8652 17.4539 15.1265C18.625 13.2847 19.5349 12.2884 19.954 12.3271ZM65.3003 12.3719C66.0713 12.3928 70.7934 19.9436 70.7934 21.1554C70.7934 21.6265 70.4473 22.1455 70.0244 22.3088C69.4578 22.5276 68.6509 21.3947 66.9584 18.0043C64.5133 13.1062 64.2891 12.3445 65.3003 12.3719ZM42.4166 15.0129C42.1075 15.0046 41.7951 15.1052 41.5528 15.3489C41.1506 15.7536 41.1815 16.1346 41.6639 16.7194C42.4619 17.6867 43.3924 17.4849 43.6218 16.2946C43.7599 15.578 43.0965 15.0313 42.4166 15.0129ZM24.0393 15.4392C25.585 15.4392 26.8496 15.6704 26.8496 15.9532C26.8496 16.2359 25.585 16.4672 24.0393 16.4672C22.4936 16.4672 21.229 16.2359 21.229 15.9532C21.229 15.6704 22.4936 15.4392 24.0393 15.4392ZM61.115 15.4392C62.5036 15.4392 63.6397 15.6704 63.6397 15.9532C63.6397 16.2359 62.3615 16.4672 60.7992 16.4672C59.0357 16.4672 58.0784 16.2724 58.2745 15.9532C58.4482 15.6704 59.7264 15.4392 61.115 15.4392ZM42.4593 15.6867C42.8178 15.6852 43.2006 15.9014 43.2006 16.2405C43.2006 16.3652 42.8423 16.4672 42.4041 16.4672C41.966 16.4672 41.7519 16.2319 41.9285 15.9446C42.0378 15.7665 42.2442 15.6875 42.4593 15.6867ZM19.8761 16.056C20.1037 16.0182 20.1977 17.1764 20.4244 20.3935C20.6214 23.1892 20.7202 28.5983 20.6437 32.4138C20.5672 36.2293 20.6457 39.5808 20.8182 39.8616C20.9906 40.1423 20.5797 41.066 19.9053 41.9141L18.679 43.4558L18.6765 39.7717C18.6747 37.7454 18.8855 36.0105 19.144 35.9163C19.4257 35.8136 19.4345 34.8184 19.166 33.4314C18.4394 29.6768 18.5733 18.8824 19.3701 16.9759C19.6009 16.4237 19.7568 16.0758 19.876 16.056H19.8761ZM65.1077 16.1427C65.2235 16.1285 65.368 16.3596 65.5606 16.7294C66.1384 17.8388 66.2596 19.9126 66.1189 26.2777C66.0073 31.3254 65.7235 34.6253 65.3705 34.9803C64.4347 35.9216 64.0795 31.1343 64.4693 22.8325C64.7049 17.8169 64.812 16.179 65.1077 16.1427ZM63.2598 17.2467C63.4131 17.2467 63.5073 17.2527 63.5269 17.2649C63.6053 17.3139 63.6053 20.4784 63.5269 24.2972L63.3841 31.2403L61.0848 29.4683C58.5329 27.5015 58.0996 26.2582 58.0484 20.7578L58.0189 17.5945L60.7017 17.3853C61.8082 17.2989 62.8 17.2466 63.2598 17.2467V17.2467ZM21.594 17.2678C22.0768 17.2564 23.1025 17.3016 24.2387 17.3899L26.9934 17.6042L26.7047 22.4739C26.4163 27.3362 26.4126 27.3464 24.4609 29.081C23.3858 30.0366 22.3633 30.828 22.1886 30.8398C21.8611 30.8619 20.9938 17.5179 21.3084 17.2986C21.3327 17.2817 21.4331 17.2716 21.594 17.2678ZM66.6512 19.8085L67.625 21.5559C68.2651 22.7044 68.6326 24.4664 68.697 26.6968C68.7652 29.0566 68.5595 30.4032 68.0219 31.1181C67.3124 32.0619 67.2476 31.7823 67.2326 27.7123C67.2237 25.2737 67.0894 22.4979 66.9339 21.5437L66.6512 19.8085ZM42.778 20.2456C41.9859 20.2486 40.9432 21.3586 41.3819 22.0728C41.8919 22.903 43.1866 22.7574 43.5403 21.8303C43.7093 21.3871 43.5854 20.7609 43.265 20.4386C43.1302 20.303 42.9608 20.2449 42.778 20.2456ZM17.853 20.6299C18.0739 20.6414 18.095 22.0202 18.1215 25.8489C18.1466 29.4834 17.9634 31.8894 17.6618 31.8894C16.2691 31.8894 16.0203 24.5643 17.3118 21.5817C17.5667 20.993 17.7373 20.6239 17.853 20.6299ZM27.8714 21.0938H33.7476C39.622 21.0938 39.6238 21.094 39.6238 22.3368C39.6238 25.0025 39.2737 25.2269 35.6097 24.9072C33.7425 24.7443 31.2949 24.8372 30.1708 25.1139C28.4402 25.5399 29.0081 25.6251 33.8754 25.6688C38.6217 25.7114 39.6238 25.8549 39.6238 26.4916C39.6238 27.1323 38.6302 27.2628 33.7476 27.2628H27.8714V24.1783V21.0938ZM42.6897 21.0938C42.9707 21.0938 43.2006 21.3251 43.2006 21.6078C43.2006 21.8905 42.9707 22.1218 42.6897 22.1218C42.4087 22.1218 42.1788 21.8905 42.1788 21.6078C42.1788 21.3251 42.4087 21.0938 42.6897 21.0938ZM45.7556 21.0938H51.3124H56.8692L57.1864 22.6889C57.3608 23.5661 57.3834 24.4794 57.2366 24.7185C56.9732 25.1473 46.3998 25.1688 45.9749 24.7414C45.8544 24.6201 45.7556 23.7499 45.7556 22.8074V21.0938ZM51.6745 25.7204C56.1819 25.7204 57.5426 25.8736 57.3812 26.363C57.2325 26.8139 55.4667 27.049 51.4623 27.151C46.6132 27.2745 45.7556 27.1779 45.7556 26.5084C45.7556 25.8459 46.6978 25.7204 51.6745 25.7204ZM42.5619 25.7608C41.6808 25.7208 41.2982 27.2334 42.0086 27.948C42.4648 28.407 42.4706 28.4049 43.2106 27.5078C43.7505 26.8532 43.7189 26.7782 43.0176 27.0489C42.5563 27.227 42.1788 27.136 42.1788 26.8466C42.1788 26.5571 42.4662 26.2036 42.8175 26.061C43.1991 25.9061 43.096 25.7851 42.5619 25.7608ZM34.5142 27.7768C36.7092 27.7768 37.1687 28.4401 35.5698 29.301C34.3936 29.9343 34.4864 29.9351 33.3645 29.2777C31.8743 28.4045 32.3551 27.7768 34.5142 27.7768ZM50.9506 27.7768C53.0702 27.7768 53.4993 28.4511 51.9209 29.301C50.7342 29.9399 50.8831 29.9492 49.4442 29.1455C47.9281 28.2987 48.5025 27.7768 50.9506 27.7768ZM29.6958 27.813C30.184 27.8367 30.847 28.2555 31.544 29.062C32.9473 30.6857 35.6588 30.8149 36.9321 29.3189C37.4133 28.7534 38.2455 28.2908 38.7814 28.2908C39.6583 28.2908 39.7208 28.5544 39.4077 30.929C39.1715 32.7202 38.6994 33.8699 37.9368 34.5103C36.4803 35.7337 35.536 35.7357 35.536 34.5157C35.536 33.8393 34.5264 33.0186 32.2166 31.817C29.6256 30.4691 28.8972 29.8363 28.8954 28.9335C28.8936 28.1606 29.2077 27.7893 29.6958 27.813ZM55.4892 27.9083C55.6218 27.906 55.7611 27.9104 55.9079 27.9208C57.3395 28.0221 57.505 28.2043 57.5069 29.6696C57.5087 31.3685 57.0544 31.8234 52.7814 34.4111C51.1868 35.3768 50.8652 35.4358 50.8652 34.7629C50.8652 34.3181 52.1301 33.2362 53.6758 32.3586C55.7899 31.1583 56.4712 30.4884 56.4266 29.6552C56.3791 28.7669 56.3209 28.7285 56.1315 29.4604C56.0016 29.9623 54.5336 31.0642 52.8694 31.9094C50.7043 33.009 49.8433 33.7366 49.8433 34.467C49.8433 35.7322 48.9177 35.749 47.4429 34.5103C46.688 33.8763 46.2085 32.7234 45.9806 30.9946C45.564 27.8351 46.3124 27.1215 48.0567 29.0151C49.6763 30.7733 51.9697 30.8006 53.3169 29.0775C53.9551 28.2612 54.561 27.9241 55.4892 27.9083V27.9083ZM27.817 28.2908C28.1281 28.2908 28.3824 28.8231 28.3824 29.474C28.3824 30.38 29.0997 31.0727 31.4429 32.4299C33.1261 33.4048 34.5054 34.4918 34.5085 34.8453C34.5156 35.659 34.791 35.7567 31.0652 33.6238C28.9761 32.4279 27.8714 31.4707 27.8714 30.8563C27.8714 30.3397 27.7319 29.5512 27.5613 29.104C27.3907 28.6567 27.5058 28.2908 27.817 28.2908ZM26.4626 29.3189C26.5767 29.3189 26.653 37.9936 26.632 48.596C26.6224 53.42 26.5868 57.7829 26.537 61.1704C25.96 60.769 25.3996 60.3454 24.8557 59.902C24.8144 57.4553 24.8 54.3214 24.798 50.1646C24.7931 39.6756 24.6309 34.2947 24.3249 34.4294C24.315 34.4337 24.3048 34.4436 24.2946 34.4595C24.0041 34.9118 23.7961 41.4473 23.7915 50.2674C23.7895 54.0665 23.7764 56.819 23.7459 58.9521C23.1778 58.4368 22.6334 57.8958 22.1095 57.3351C22.062 54.7891 22.0357 53.2991 21.9458 48.7017L21.641 33.123L23.9482 31.2209C25.2171 30.1749 26.3484 29.3189 26.4626 29.3189ZM58.4023 29.3196C58.7694 29.3202 60.8336 30.8924 62.7628 32.6405C63.6012 33.4002 63.6691 34.6821 63.6105 48.624C63.598 51.605 63.5796 53.9443 63.5532 55.9088C62.7276 56.9228 61.8311 57.8756 60.8729 58.7622C60.8064 57.0946 60.7482 55.1644 60.7031 52.9432C60.5685 46.3115 60.3693 40.7893 60.2605 40.6715C60.1517 40.5537 60.0629 46.3392 60.0629 53.5282C60.0629 55.9932 60.0583 57.8775 60.048 59.4962C59.406 60.0445 58.7387 60.5633 58.0481 61.0515C58.0206 58.2424 58.0189 54.2862 58.0189 48.6011C58.0189 37.9959 58.1916 29.3192 58.4023 29.3196H58.4023ZM15.8574 30.1313C16.052 31.0006 16.3804 31.7467 16.9123 32.6599C18.0844 34.6719 18.2066 35.3835 18.1201 39.6878C18.0565 42.8491 17.7732 44.8616 17.2869 45.6083C16.995 46.0564 16.7736 47.0532 16.6076 48.6705C15.3336 45.4772 14.6294 41.9913 14.6294 38.3381C14.6294 35.4803 15.0605 32.7249 15.8574 30.1313ZM68.811 31.0168C69.4435 33.3496 69.7865 35.8029 69.7865 38.3381C69.7865 41.4272 69.282 44.3962 68.357 47.1707C68.2319 46.79 68.0708 46.4116 67.866 45.9987C66.3907 43.0248 66.556 34.9759 68.1451 32.4034C68.4291 31.9438 68.6462 31.5002 68.811 31.0168ZM57.1455 32.4034C57.8188 32.4034 56.7639 36.4058 55.8196 37.434C55.226 38.0803 54.6161 39.5914 54.4637 40.7918L54.1867 42.9744L52.5457 41.9299C51.0928 41.005 50.9026 40.6143 50.8851 38.5169C50.8657 36.1739 50.8983 36.1276 53.8805 34.2757C55.5388 33.246 57.008 32.4034 57.1455 32.4034ZM28.1271 32.4123L31.3094 34.3355C34.4619 36.2407 34.4918 36.2809 34.4814 38.5724C34.4719 40.6447 34.2867 41.0037 32.704 42.0187L30.9373 43.1517V41.1368C30.9373 39.6215 30.5488 38.6769 29.3704 37.3266C28.2122 35.9995 27.8459 35.1246 27.9654 33.972L28.1271 32.4123ZM39.5956 35.7741C39.6555 35.7718 39.7185 35.7719 39.7844 35.7745C40.1355 35.7881 40.5695 35.8727 41.0615 36.0453C42.2555 36.464 43.1242 36.464 44.3182 36.0453C46.0567 35.4356 47.2638 35.9917 46.1604 36.8939C45.092 37.7674 40.6626 37.9099 39.5237 37.1073C38.4909 36.3796 38.6978 35.8088 39.5956 35.7741V35.7741ZM47.4568 36.3243C47.7373 36.3037 48.0594 36.4861 48.6225 36.8573C49.294 37.3 49.8433 37.9639 49.8433 38.3324C49.8433 38.7009 49.9829 39.3681 50.1535 39.8154C50.596 40.9757 49.8561 40.8246 47.6238 39.2985C45.7735 38.0336 45.7203 37.9211 46.5396 37.0103C46.9369 36.5686 47.1762 36.3449 47.4568 36.3243ZM37.8275 36.6671C38.2291 36.6763 38.6132 36.821 38.9199 37.1295C39.6342 37.8482 39.5702 38.0237 38.2623 38.9356C35.3585 40.9601 35.0099 40.9405 35.4214 38.7751C35.6628 37.5043 36.8013 36.6435 37.8275 36.6671ZM65.4574 37.0339C65.7274 37.038 65.9391 38.0652 65.9391 39.8591C65.9391 42.7446 65.5881 43.3896 64.8912 41.7851C64.4916 40.8651 64.5004 40.2187 64.9411 38.1866C65.1123 37.3972 65.2953 37.0314 65.4574 37.0339ZM28.1808 37.2872L29.1297 38.7357C30.0751 40.1793 30.0737 40.1888 28.7195 41.5512L27.3605 42.9185L27.4114 41.3879C27.4394 40.5461 27.624 39.2792 27.8216 38.5724L28.1808 37.2872ZM56.7008 37.7894C56.9467 37.7934 56.997 38.2824 56.997 39.5374C56.997 41.8727 56.9621 41.9298 56.0773 41.0397C55.2375 40.1948 55.3075 38.8286 56.2304 38.058C56.4368 37.8857 56.589 37.7875 56.7008 37.7894ZM40.3045 38.38C40.4906 38.3848 40.6897 38.4058 40.8892 38.4442C42.1075 38.6785 42.1788 38.8733 42.1788 41.9721C42.1788 45.0191 42.0475 45.3984 40.3302 47.3108C39.3134 48.4431 37.3588 49.9843 35.9868 50.7356C34.6148 51.4869 33.4838 52.2381 33.4738 52.4052C33.4638 52.5723 32.9009 53.3918 32.223 54.2263L30.9904 55.7437L30.4043 54.2263C29.6451 52.2605 30.0553 46.9545 31.1278 44.8678C31.6681 43.8167 33.2186 42.5042 35.5129 41.1561C37.465 40.0091 39.183 38.8738 39.3307 38.6333C39.4231 38.4829 39.7317 38.3936 40.1233 38.3808C40.182 38.3788 40.2425 38.3784 40.3045 38.38V38.38ZM44.4834 38.4707C45.2022 38.468 46.6962 39.0884 48.0549 39.9669C54.3229 44.0194 54.2807 43.9778 54.9512 46.7896C55.3004 48.2539 55.4762 50.6032 55.3418 52.0104C55.024 55.3377 54.4668 55.7692 52.9431 53.8692C52.2591 53.0163 50.5348 51.5579 49.111 50.6281C47.6872 49.6983 45.7749 48.1012 44.8616 47.079C43.3536 45.3914 43.2006 44.9181 43.2006 41.932C43.2006 38.9132 43.2948 38.6304 44.3503 38.4796C44.391 38.4738 44.4355 38.4708 44.4834 38.4707V38.4707ZM55.622 42.2791C55.8219 42.2708 56.1009 42.4749 56.4562 42.9056C56.7978 43.3197 56.9865 44.8021 56.8973 46.3702C56.7324 49.2699 56.3546 49.2428 55.6928 46.2835C55.1175 43.7109 55.1111 42.3004 55.622 42.2791ZM29.6883 42.384C30.0441 42.4044 30.2438 42.8039 30.174 43.5625C29.9917 45.5413 29.2355 48.121 28.5123 49.2315C27.8367 50.2689 27.8404 50.396 28.5483 50.396C29.6516 50.396 29.8782 53.8502 28.8936 55.662C28.4721 56.4377 27.9599 57.0736 27.7554 57.0755C27.5508 57.0773 27.4095 54.2311 27.4417 50.7506C27.4908 45.435 27.6505 44.2361 28.4383 43.2574C28.8892 42.6971 29.303 42.4102 29.615 42.3851C29.64 42.3831 29.6646 42.3827 29.6883 42.384V42.384ZM20.7409 43.713C20.9143 43.713 21.011 45.0566 20.9556 46.6986C20.8806 48.9217 20.5095 50.2345 19.5026 51.8392C19.244 52.2513 18.9923 52.6289 18.7638 52.9554C18.4241 52.4049 18.1034 51.8414 17.8018 51.2661C18.0429 50.1155 18.4557 48.8496 18.9511 47.9993C20.5431 45.2662 20.2092 45.064 18.4369 47.688C17.7242 48.7432 17.1413 49.2479 17.1413 48.8095C17.1413 47.9973 20.1672 43.713 20.7409 43.713ZM64.5523 43.713C65.3153 43.713 67.4151 46.7916 67.9219 48.3829C67.5005 49.4747 67.0119 50.5323 66.4621 51.5519C66.2048 51.212 65.9052 50.7693 65.5556 50.2126C64.2118 48.0725 63.5389 43.713 64.5523 43.713ZM42.4636 46.1595C42.8633 46.1008 43.5066 46.7083 45.0951 48.3836C47.5926 51.0176 47.6727 51.1978 47.9823 54.8825C48.1574 56.9669 48.5334 59.1092 48.8176 59.6434C49.1663 60.2971 49.1665 60.72 48.8194 60.9358C48.6082 61.0671 48.5061 63.0701 48.4968 65.3554C47.7017 65.5418 46.8939 65.695 46.074 65.8106C46.1627 63.0786 46.4175 62.4444 47.1756 61.4749C48.853 59.3295 48.5269 58.5808 46.8181 60.6543C45.5543 62.1877 45.0187 62.4444 42.9009 62.5291C38.34 62.7116 36.9072 60.6904 37.4042 54.7751C37.7056 51.1886 37.8449 50.8385 39.6032 49.2505C40.6357 48.3179 41.716 47.1319 42.0036 46.6148C42.1506 46.3505 42.2819 46.1862 42.4636 46.1595H42.4636ZM56.4861 50.396C56.7671 50.396 56.997 51.6683 56.997 53.2233C56.997 56.142 56.8207 56.6411 56.2853 55.2375C55.7838 53.9228 55.9301 50.396 56.4861 50.396ZM20.6729 50.6528L20.6953 55.6065C20.6953 55.639 20.6953 55.6672 20.6953 55.6989C20.1554 55.0225 19.6472 54.3197 19.1711 53.5933C19.3298 53.2477 19.4827 52.9244 19.6151 52.6717L20.6729 50.6528ZM64.7584 50.7198C64.7635 50.7187 64.7688 50.7198 64.7741 50.7231C64.9891 50.8567 65.4118 51.5816 65.8981 52.5495C65.435 53.3295 64.935 54.0844 64.4003 54.8123C64.4939 52.4517 64.6159 50.7493 64.7585 50.7198H64.7584ZM48.8243 52.0215C49.6832 52.056 51.5409 53.2761 52.8131 54.7339C54.0494 56.1504 54.442 57.0841 54.442 58.6068C54.442 60.3661 54.3004 60.6045 53.2924 60.5414C52.66 60.5019 51.9739 60.227 51.7674 59.9307C51.5219 59.5783 51.3891 59.6143 51.384 60.0346C51.3697 61.2019 50.3386 60.7027 49.7921 59.2637C49.1116 57.4721 48.1686 52.4233 48.4598 52.1304C48.5402 52.0495 48.6653 52.0152 48.8243 52.0215ZM35.9633 52.2257C36.4681 52.2041 36.5582 52.603 36.5582 53.9508C36.5582 56.157 35.1522 60.6772 34.4661 60.6772C33.8671 60.6772 33.8667 60.682 34.7905 58.048C35.2234 56.8135 35.3661 56.0324 35.1077 56.3125C34.8492 56.5925 34.3715 57.6603 34.0463 58.6852C33.5778 60.162 33.1939 60.5486 32.1963 60.5486C31.0752 60.5486 30.9373 60.3308 30.9373 58.5581C30.9373 57.0037 31.3309 56.1296 32.7332 54.568C33.7209 53.4682 34.9855 52.4481 35.5435 52.3013C35.7081 52.258 35.8468 52.2307 35.9633 52.2257ZM29.945 56.0506C30.3929 56.0506 30.2766 60.2379 29.8083 60.9713C29.682 61.1692 29.6034 61.9765 29.5886 63.0116C29.0617 62.7384 28.5445 62.449 28.0381 62.1433C28.1592 59.7222 28.3746 58.6224 28.7605 57.8083C29.2187 56.8416 29.7517 56.0506 29.945 56.0506ZM55.5155 56.0506C55.7 56.0506 56.1135 56.6882 56.4345 57.4677C56.6475 57.9853 56.7853 59.4682 56.8539 61.8546C56.5335 62.0569 56.2073 62.2504 55.8783 62.4396C55.8505 61.9557 55.7902 61.5565 55.6957 61.3417C55.1961 60.2065 55.0545 56.0506 55.5155 56.0506ZM36.5874 59.3877C37.236 59.2669 38.7183 62.9003 38.8629 65.0469C38.8788 65.2814 38.8923 65.5832 38.906 65.8844C38.2614 65.8068 37.6238 65.7073 36.9937 65.5857C36.9491 64.0859 36.8239 62.6338 36.6042 61.5741C36.3562 60.5124 36.3218 59.5391 36.5272 59.4113C36.5464 59.3994 36.5665 59.3916 36.5874 59.3877ZM32.1173 61.1984C34.2352 61.2075 36.0469 61.7059 36.0469 62.2794C36.0469 62.795 30.7717 62.9095 30.2701 62.4048C29.6329 61.7638 30.5091 61.1915 32.1173 61.1984ZM52.2103 61.3875C53.4975 61.3662 54.7491 61.5523 54.9529 61.9624C55.1064 62.2712 53.8993 62.5387 51.9305 62.6319C49.1452 62.7638 48.7429 62.6772 49.2548 62.0566C49.6006 61.6374 50.9231 61.4088 52.2103 61.3875ZM42.6897 63.2477C45.6193 63.2477 45.7556 63.3049 45.7556 64.5329C45.7556 65.2398 45.5833 65.8174 45.3725 65.8171C45.1617 65.8167 44.989 67.7252 44.989 70.0582V74.3001L42.5619 74.457L40.1351 74.6135V70.987C40.1351 68.9924 40.1923 67.1869 40.2625 66.9748C40.3328 66.7627 41.3103 66.644 42.4344 66.7112C44.0164 66.8057 44.2472 66.7269 43.4562 66.3619C42.8942 66.1026 41.8019 65.8738 41.0291 65.854C39.8805 65.8244 39.6238 65.5835 39.6238 64.5329C39.6238 63.3049 39.7601 63.2477 42.6897 63.2477ZM54.661 63.4486C54.7412 63.44 54.8139 63.9149 54.8358 64.6615C54.8936 66.631 54.6494 66.7072 53.0698 65.2142L51.8874 64.0966L50.6747 65.2425L49.4624 66.3884L49.2057 65.0373C48.9508 63.6961 48.9693 63.6875 51.6855 63.8821C53.325 63.9995 54.4957 63.8599 54.6047 63.5342C54.6235 63.4782 54.6425 63.4506 54.661 63.4486ZM30.7144 63.4977C30.7415 63.4862 30.7699 63.5201 30.7981 63.6045C30.9111 63.942 31.3336 64.0905 31.737 63.9347C32.6324 63.589 32.7173 64.8498 31.857 65.7153C30.8553 66.7232 30.492 66.4315 30.5439 64.6615C30.5641 63.9723 30.6334 63.5322 30.7144 63.4977ZM32.9123 63.7975L34.3799 63.9082C35.3641 63.9823 35.8705 64.3152 35.9159 64.9183C36.0021 66.0624 35.5775 66.0327 34.0965 64.7908L32.9123 63.7975ZM52.0174 64.7958L53.5323 66.286C54.3654 67.1054 54.9682 68.1769 54.8721 68.667C54.7247 69.419 54.4384 69.3142 53.0364 67.9953C52.1226 67.1358 51.2588 66.6213 51.1169 66.8523C50.975 67.0833 51.1477 67.3739 51.5007 67.4981C51.9649 67.6614 51.873 68.0297 51.1693 68.8274C50.6339 69.4342 50.0018 69.9307 49.7643 69.9307C49.1176 69.9307 49.2441 68.6899 49.9712 67.9018C50.4821 67.348 50.4821 67.2821 49.9712 67.5723C48.7816 68.248 49.3238 66.9276 50.6751 65.8583L52.0174 64.7958ZM33.5041 65.278C33.8128 65.2957 34.1403 65.5344 34.7196 65.9589C36.4203 67.2053 36.4651 68.2678 34.7698 67.1503C34.0672 66.6872 33.4923 66.5293 33.4923 66.7993C33.4923 67.0693 32.8023 67.7843 31.9592 68.3883C30.6243 69.3446 30.4264 69.3759 30.4264 68.6297C30.4264 68.1584 31.0935 67.1458 31.909 66.3795C32.7407 65.5978 33.1071 65.2552 33.5041 65.278ZM33.8167 67.5229C34.5106 67.481 36.0469 68.6029 36.0469 69.2831C36.0469 70.1023 36.042 70.1013 34.522 68.9263C33.8236 68.3864 33.3986 67.797 33.5778 67.6167C33.6356 67.5585 33.7175 67.5288 33.8167 67.5229ZM32.7553 68.6627C32.9912 68.6602 33.2126 68.8204 33.487 69.153C34.0317 69.8133 33.9264 69.9307 32.7884 69.9307C31.263 69.9307 31.1638 69.78 32.1472 68.9589C32.3797 68.7648 32.5718 68.6646 32.7553 68.6627ZM52.6536 68.9023C53.042 68.9023 53.5021 69.1339 53.6758 69.4167C53.8556 69.7094 53.4153 69.9307 52.6536 69.9307C51.8919 69.9307 51.4519 69.7094 51.6318 69.4167C51.8055 69.1339 52.2652 68.9023 52.6536 68.9023ZM32.9511 70.4447C35.9316 70.4447 37.335 71.0627 35.7468 71.6759C35.3039 71.8469 34.9029 71.9453 34.8556 71.8944C34.8083 71.8434 33.6776 71.7148 32.3426 71.6089C28.8734 71.3337 29.3381 70.4447 32.9511 70.4447ZM52.4361 70.454C53.974 70.4714 55.4642 70.6452 55.4642 70.9587C55.4642 71.2415 54.8032 71.4728 53.9952 71.4728C53.1872 71.4728 51.8635 71.606 51.0535 71.769C49.537 72.0742 48.6424 71.6661 49.1209 70.8871C49.3122 70.5757 50.8981 70.4367 52.4361 70.454ZM42.4718 75.5853C44.908 75.5853 45.2948 75.7155 45.1496 76.4851C45.0231 77.1553 44.3899 77.4234 42.6662 77.5368C40.2612 77.695 39.6238 77.43 39.6238 76.2709C39.6238 75.7817 40.4393 75.5853 42.4718 75.5853Z" transform="translate(5) scale(0.940066)" fill="url(#paint0_linear)"/>
<path fill-rule="evenodd" clip-rule="evenodd" d="M11.8693 0L6.60373 5.19558H0V5.87639H23.0488V29H23.7389V22.2889L28.7561 17.3383L29 17.0976L23.7389 11.9064V5.19558H17.1348L12.1132 0.24068L11.8693 0ZM11.8693 0.963055L16.1588 5.19558H14.3749L12.1132 2.96396L11.8693 2.72328L9.36367 5.19558H7.57977L11.8693 0.963055ZM11.8693 3.686L13.3992 5.19558H10.3394L11.8693 3.686ZM23.7389 12.8694L28.024 17.0976L23.7389 21.3258V19.5656L25.9962 17.3383L26.2401 17.0976L23.7389 14.6296V12.8694ZM23.7389 15.5924L25.2644 17.0976L23.7389 18.6029V15.5924Z" transform="translate(283 2)" fill="#ACD8D0"/>
<path fill-rule="evenodd" clip-rule="evenodd" d="M11.8693 0L6.60373 5.19558H0V5.87639H23.0488V29H23.7389V22.2889L28.7561 17.3383L29 17.0976L23.7389 11.9064V5.19558H17.1348L12.1132 0.24068L11.8693 0ZM11.8693 0.963055L16.1588 5.19558H14.3749L12.1132 2.96396L11.8693 2.72328L9.36367 5.19558H7.57977L11.8693 0.963055ZM11.8693 3.686L13.3992 5.19558H10.3394L11.8693 3.686ZM23.7389 12.8694L28.024 17.0976L23.7389 21.3258V19.5656L25.9962 17.3383L26.2401 17.0976L23.7389 14.6296V12.8694ZM23.7389 15.5924L25.2644 17.0976L23.7389 18.6029V15.5924Z" transform="translate(283 67) scale(1 -1)" fill="#ACD8D0"/>
<path fill-rule="evenodd" clip-rule="evenodd" d="M11.8693 0L6.60373 5.19558H0V5.87639H23.0488V29H23.7389V22.2889L28.7561 17.3383L29 17.0976L23.7389 11.9064V5.19558H17.1348L12.1132 0.24068L11.8693 0ZM11.8693 0.963055L16.1588 5.19558H14.3749L12.1132 2.96396L11.8693 2.72328L9.36367 5.19558H7.57977L11.8693 0.963055ZM11.8693 3.686L13.3992 5.19558H10.3394L11.8693 3.686ZM23.7389 12.8694L28.024 17.0976L23.7389 21.3258V19.5656L25.9962 17.3383L26.2401 17.0976L23.7389 14.6296V12.8694ZM23.7389 15.5924L25.2644 17.0976L23.7389 18.6029V15.5924Z" transform="translate(29 67) rotate(-180)" fill="#ACD8D0"/>
<path fill-rule="evenodd" clip-rule="evenodd" d="M11.8693 0L6.60373 5.19558H0V5.87639H23.0488V29H23.7389V22.2889L28.7561 17.3383L29 17.0976L23.7389 11.9064V5.19558H17.1348L12.1132 0.24068L11.8693 0ZM11.8693 0.963055L16.1588 5.19558H14.3749L12.1132 2.96396L11.8693 2.72328L9.36367 5.19558H7.57977L11.8693 0.963055ZM11.8693 3.686L13.3992 5.19558H10.3394L11.8693 3.686ZM23.7389 12.8694L28.024 17.0976L23.7389 21.3258V19.5656L25.9962 17.3383L26.2401 17.0976L23.7389 14.6296V12.8694ZM23.7389 15.5924L25.2644 17.0976L23.7389 18.6029V15.5924Z" transform="translate(29 2) scale(-1 1)" fill="#ACD8D0"/>
<path fill-rule="evenodd" clip-rule="evenodd" d="M34.058 7L29.0069 2.17589H16.2735V1.5542H51.7265V2.17589H39.1091L34.2881 6.78023L34.058 7ZM34.058 6.1206L38.1884 2.17589H36.5054L34.2881 4.29349L34.058 4.51327L31.6106 2.17589H29.9277L34.058 6.1206ZM34.058 3.63417L35.5849 2.17589H32.5311L34.058 3.63417ZM0 0.621679V0H68V0.621679H0Z" transform="translate(122 61)" fill="#ACD8D0"/>
<path fill-rule="evenodd" clip-rule="evenodd" d="M34.058 7L29.0069 2.17589H16.2735V1.5542H51.7265V2.17589H39.1091L34.2881 6.78023L34.058 7ZM34.058 6.1206L38.1884 2.17589H36.5054L34.2881 4.29349L34.058 4.51327L31.6106 2.17589H29.9277L34.058 6.1206ZM34.058 3.63417L35.5849 2.17589H32.5311L34.058 3.63417ZM0 0.621679V0H68V0.621679H0Z" transform="translate(122 8) scale(1 -1)" fill="#ACD8D0"/>
<defs>
<linearGradient id="paint0_linear" x2="1" gradientUnits="userSpaceOnUse" gradientTransform="translate(85.1004) scale(85.1004 78.3311) rotate(90)">
<stop stop-color="#4EA797"/>
<stop offset="1" stop-color="#27243E"/>
</linearGradient>
</defs>
</svg>
