<svg xmlns="http://www.w3.org/2000/svg" viewBox="0 0 100.654 100.654">
  <rect width="78.161003" height="78.158997" x="11.246008" y="-89.405998" fill="#fff" paint-order="stroke fill markers" rx=".794" ry=".794" transform="rotate(90)"/>
  <path fill="#fff" d="M50.326.302a.792.792 0 0 0-.56.233L.536 49.765a.792.792 0 0 0 0 1.122l49.23 49.232c.312.31.812.31 1.123 0l49.23-49.23a.792.792 0 0 0 0-1.123L50.888.535a.792.792 0 0 0-.562-.234zM10.864 6.648a4.377 4.377 0 0 0-4.377 4.376 4.377 4.377 0 0 0 4.377 4.376 4.377 4.377 0 0 0 4.376-4.376 4.377 4.377 0 0 0-4.376-4.376zm78.845 0a4.377 4.377 0 0 0-4.376 4.376 4.377 4.377 0 0 0 4.376 4.376 4.377 4.377 0 0 0 4.377-4.376 4.377 4.377 0 0 0-4.377-4.376zM10.864 85.493a4.377 4.377 0 0 0-4.377 4.377 4.377 4.377 0 0 0 4.377 4.376 4.377 4.377 0 0 0 4.376-4.376 4.377 4.377 0 0 0-4.376-4.377zm78.845 0a4.377 4.377 0 0 0-4.376 4.377 4.377 4.377 0 0 0 4.376 4.376 4.377 4.377 0 0 0 4.377-4.376 4.377 4.377 0 0 0-4.377-4.377z" paint-order="stroke fill markers"/>
  <rect width="77.676003" height="77.674004" x="11.489006" y="11.489996" fill="#fff" paint-order="stroke fill markers" rx=".794" ry=".794"/>
  <path d="M50.328 0l-.374.375-10.872 10.871h1.495l9.75-9.75 9.75 9.75h1.497zm-.001 3.341l-.374.374-7.531 7.531h1.497l6.408-6.408 6.408 6.408h1.497zM11.001 5.939a5.014 5.014 0 0 0-5.006 5.006 5.014 5.014 0 0 0 5.006 5.006c.083 0 .164-.009.247-.013V14.88c-.082.005-.164.012-.247.012a3.94 3.94 0 0 1-3.947-3.947 3.94 3.94 0 0 1 3.947-3.948 3.94 3.94 0 0 1 3.947 3.948c0 .102-.007.201-.015.301h1.058c.006-.1.016-.2.016-.301a5.014 5.014 0 0 0-5.006-5.006zm78.846 0a5.014 5.014 0 0 0-5.006 5.006c0 .102.01.201.016.301h1.057c-.007-.1-.015-.2-.015-.301a3.94 3.94 0 0 1 3.948-3.948 3.94 3.94 0 0 1 3.947 3.948 3.939 3.939 0 0 1-4.387 3.921v1.063c.145.012.291.022.44.022a5.013 5.013 0 0 0 5.005-5.006 5.013 5.013 0 0 0-5.005-5.006zm-39.436 5.479c-21.57 0-39.076 17.508-39.076 39.077 0 21.57 17.507 39.077 39.076 39.077 21.57 0 39.078-17.507 39.078-39.077 0-21.569-17.509-39.077-39.078-39.077zm-37.088 1.906v16.404l1.018.201c5.205-12.64 15.904-15.566 15.904-15.566l-.14-1.04H13.323zm57.291 0l-.14 1.039s10.699 2.926 15.904 15.566l1.017-.2V13.324h-16.78zm-20.203.211c20.425 0 36.961 16.535 36.961 36.96 0 20.426-16.536 36.962-36.96 36.962-20.426 0-36.962-16.536-36.962-36.962 0-20.425 16.536-36.96 36.961-36.96zm-36.03.847h13.128c-3.3 1.536-9.185 5.256-13.127 13.137V14.382zm58.83 0h13.126v13.137c-3.942-7.88-9.828-11.601-13.127-13.137zm16.196 24.697v1.497l9.75 9.75-9.75 9.751v1.497l11.248-11.247zm-78.16.002L.001 50.328l11.247 11.247v-1.498l-9.751-9.75 9.75-9.751zm0 3.34l-7.905 7.906 7.906 7.905v-1.493l-6.41-6.41 6.41-6.411v-1.497zm78.16 0v1.497l6.41 6.41-6.41 6.41v1.497l7.907-7.907zM14.341 70.474l-1.018.201V87.08h16.781l.14-1.04s-10.698-2.926-15.903-15.566zm72.037 0c-5.205 12.64-15.905 15.567-15.905 15.567l.141 1.039h16.781V70.675l-1.017-.2zm-71.996 2.41c3.942 7.88 9.828 11.602 13.127 13.137H14.382zm71.955 0v13.137H73.21c3.3-1.535 9.185-5.256 13.127-13.137zm-75.336 11.9a5.014 5.014 0 0 0-5.006 5.007 5.014 5.014 0 0 0 5.006 5.006 5.014 5.014 0 0 0 5.006-5.006c0-.13-.01-.257-.02-.384h-1.058a3.939 3.939 0 0 1-3.928 4.331 3.94 3.94 0 0 1-3.947-3.947 3.94 3.94 0 0 1 3.947-3.948c.083 0 .165.008.247.013v-1.059c-.083-.004-.164-.012-.247-.012zm78.846 0c-.149 0-.295.01-.44.023v1.062a3.94 3.94 0 0 1 4.387 3.922 3.939 3.939 0 0 1-3.947 3.947 3.94 3.94 0 0 1-3.929-4.331h-1.057c-.01.127-.02.254-.02.384a5.014 5.014 0 0 0 5.006 5.006 5.013 5.013 0 0 0 5.005-5.006 5.013 5.013 0 0 0-5.005-5.006zm-50.768 4.623l11.248 11.247 11.247-11.247h-1.496l-9.75 9.75-9.75-9.75zm3.343 0l7.906 7.906 7.907-7.906h-1.497l-6.411 6.41-6.411-6.41z" color="#000" font-family="sans-serif" font-weight="400" overflow="visible" style="line-height:normal;font-variant-ligatures:normal;font-variant-position:normal;font-variant-caps:normal;font-variant-numeric:normal;font-variant-alternates:normal;font-feature-settings:normal;text-indent:0;text-align:start;text-decoration-line:none;text-decoration-style:solid;text-decoration-color:#000;text-transform:none;text-orientation:mixed;shape-padding:0;isolation:auto;mix-blend-mode:normal" white-space="normal"/>
  <path d="M10.167 10.168v80.32h80.32v-80.32zm1.322 1.322h77.676v77.674H11.489z" color="#000" font-family="sans-serif" font-weight="400" overflow="visible" style="line-height:normal;font-variant-ligatures:normal;font-variant-position:normal;font-variant-caps:normal;font-variant-numeric:normal;font-variant-alternates:normal;font-feature-settings:normal;text-indent:0;text-align:start;text-decoration-line:none;text-decoration-style:solid;text-decoration-color:#000;text-transform:none;text-orientation:mixed;shape-padding:0;isolation:auto;mix-blend-mode:normal" white-space="normal"/>
  <path d="M28.921548 24.402591c-.09885.01284-.354572.249534-.832369.76643-.17893.193655-.369636.392406-.42364.441853-.210877.193094-.977829 1.273574-1.236114 1.741229-.149798.271146-.32383.577024-.386614.6799-.06285.102788-.114087.25172-.114087.330582 0 .07888-.03177.160239-.07025.180839-.063.03381-.203679.513768-.517492 1.766652-.137106.547658-.140411 2.928827-.0059 3.591575.05517.271154.139267.683065.186613.915529.158738.779385.232958 1.093195.312171 1.322017.04335.124974.139454.41782.21373.650203.07427.232383.172721.517458.21868.633609.04571.116232.113771.306202.150753.422434.08196.257394.234447.628753.38049.926375.05989.12206.109999.264516.111424.316805 0 .05229.05642.15654.122513.231735.0658.0752.119834.194664.119834.265245 0 .07058.03488.183171.07748.250433.04269.06726.131854.233111.198064.368688.132533.271316.42767.871011.537346 1.091739.670834 1.349941 1.80208 3.285171 1.903257 3.256032.0534-.0153.269948-.247276.481254-.515274.211386-.267997.423235-.525957.470925-.573551.04749-.04767.20309-.237968.345394-.422838 1.001423-1.300243 3.806288-3.979487 5.245265-5.010681.290823-.208424.528952-.419357.528952-.468327 0-.04913-.266378-.288394-.59152-.532271-1.337234-1.002703-2.888477-2.434395-3.770609-3.479997-.130745-.154841-.28527-.307011-.343864-.338012-.05871-.03076-.106494-.09543-.106494-.143347 0-.04816-.108842-.19693-.241578-.33097-.132793-.1342-.242792-.267244-.244629-.295638 0-.02816-.140887-.250328-.309132-.493047-.803716-1.159834-1.559807-2.757101-1.808977-3.821529-.03618-.154939-.106681-.424385-.156095-.598668-.151062-.532554-.281766-1.474324-.317898-2.289032-.01898-.426066-.06144-.79871-.09465-.828584-.0076-.0071-.01875-.0096-.03241-.0081zm42.771999.006c-.01967 0-.03254.0078-.03966.02506-.02193.0556-.05472.433893-.07212.840609-.03383.782971-.165768 1.727979-.314862 2.253718-.04921.174299-.119874.443713-.156136.598651-.108785.464798-.385119 1.223737-.619364 1.70096-.0599.122076-.108785.24085-.108785.264193 0 .09523-.770158 1.428155-1.067456 1.847545-.175643.247787-.32069.473532-.322471.501894 0 .02816-.111861.161511-.244605.295631-.132744.134039-.24161.282971-.24161.330888 0 .04816-.04848.112833-.107653.143752-.05933.03076-.269292.246224-.466303.478607-.804316.948634-2.362034 2.374823-3.646979 3.338754-.325223.243958-.591521.483949-.591521.532919 0 .04921.238049.259579.528953.468004 1.419551 1.017272 4.401839 3.862688 5.201703 4.963006.115179.158483.258688.332993.318666.38779.06006.05496.25359.289609.430528.521749.349667.458776.538179.668576.599938.668576.02193 0 .08823-.05552.148123-.123273.113399-.128535.587958-.94653.970083-1.672736.122302-.232383.323766-.612404.448011-.844867.569018-1.064138.652631-1.226587.652631-1.26722 0-.0242.07544-.192155.167549-.37403.402036-.792984.890437-1.923331 1.055962-2.44338.03683-.116232.104738-.306525.150794-.422757.04565-.116151.144399-.401308.218623-.63361.0743-.232464.170462-.525229.213766-.650284.08046-.232383.160831-.574117.310653-1.321612.04687-.232464.122708-.605037.169492-.827869.136872-.65255.187865-2.421129.08847-3.080899-.138087-.917565-.249625-1.489328-.335423-1.723596-.328379-.897334-.463551-1.205599-.774771-1.762428-.194907-.348607-.449306-.754366-.565133-.901348-.115909-.146965-.210691-.284808-.210691-.306565 0-.06232-1.003108-1.149944-1.4151-1.53427-.19523-.181973-.314214-.2691-.373302-.271595zM50.605627 35.57892c-.595567-.01141-1.495555.0752-1.736113.17799-1.064947.455053-.999546.356224-.999546 1.50883v.983277l.22445-.04727c.123436-.02614.389329-.07754.591116-.114775 1.293363-.238777 2.31873-.208424 3.854189.114775l.224451.04727v-1.981366l-.265246-.173781c-.393942-.258689-1.025123-.450359-1.65938-.503618-.06977-.0056-.148852-.01012-.233921-.01174zm4.150354 2.755652v.0022c-.02679 0-.04986.0053-.06759.0091-.117527.03893-.129749.808281-.129749 8.199369 0 7.709027.0078 8.158737.1427 8.18909.222427.05018 14.311016.05229 14.527939 0 .177019-.04096.188755-.07099.144238-.368688-.0879-.588525-.197174-1.117235-.280544-1.356255-.04508-.129587-.143994-.425995-.219756-.658378-.07584-.232383-.189403-.526605-.252294-.653764-.06289-.127159-.114451-.27512-.114451-.328784 0-.05366-.05213-.187056-.115666-.296731-.0637-.109676-.179852-.342059-.257636-.516326-.149904-.33615-.566267-1.150907-.691564-1.353098-.04096-.06637-.252538-.41523-.469784-.774934-.48662-.806015-1.214851-1.831381-1.765091-2.484984-.228174-.271153-.475774-.575655-.550321-.676751-.07455-.101096-.183899-.227931-.243067-.281838-.05933-.05391-.389005-.399203-.732763-.767163-.774286-.828517-2.865894-2.610848-3.901864-3.324913-1.136823-.783595-2.451555-1.518219-3.554625-1.98598-.53478-.226798-1.069884-.4557-1.189192-.508636-.08952-.03999-.199439-.06321-.279005-.06249zm-8.87774.0022c-.07957 0-.189565.02258-.279005.06249-.119389.05302-.654574.282729-1.189597.510741-1.104122.470432-2.41845 1.204085-3.55422 1.983875-.98012.672866-3.247614 2.60591-3.921371 3.342963-.282324.308792-.555096.597672-.606008.641704-.05099.04403-.233436.254156-.405679.467275-.172244.213038-.33526.403412-.362213.422757-.06912.0497-.736486.928156-1.150259 1.513848-.725478 1.027066-1.202191 1.836481-1.907798 3.239763-.05812.116232-.16661.331374-.240437.477878-.07378.146585-.133942.311868-.133942.367313 0 .05553-.05178.204782-.114516.332022-.06284.127159-.176428.421381-.252262.653764-.07583.232383-.174615.528709-.219813.658297-.08365.239991-.19294.769915-.280891 1.359816-.0421.281272-.02754.332669.103427.361727.225042.04962 14.313283.0552 14.528263.0053l.183575-.04241v-8.153799c0-7.388336-.01246-8.15728-.129749-8.196213-.01781-.0062-.04096-.0088-.06759-.0092zm-7.319131.318586c-.47367 0-4.177227 3.2498-5.375411 4.716863-.109878.134444-.242121.284591-.294255.333398-.05221.04865-.264638.303045-.472075.565134-.207477.262088-.575348.714227-.817492 1.004807-.24208.290418-.442685.563757-.445729.607465-.0059.04355-.06011.118823-.127474.167064-.194341.1393-.144708.393375.176314.90104.164271.259741.350388.559548.413676.666067.121679.204782.16661.224046.322495.138491.0534-.02922.136435-.131773.184725-.22785.04807-.096.160029-.269859.248433-.38601.08838-.116232.194446-.274634.235499-.352176.04091-.07746.169953-.261198.28659-.408269.116636-.14699.212196-.279329.212196-.294546 0-.115989 1.684845-2.095331 2.514252-2.953716.713904-.738914 2.755733-2.535167 3.407312-2.997181.244686-.173538.552749-.400417.684602-.504427l.239749-.189241-.628996-.393133c-.345863-.216452-.689621-.393795-.764411-.393795zm23.515921 0c-.07479 0-.419034.177181-.765139.39378l-.629725.394185.284671.231331c.156379.127321.411345.306525.566752.398394.405436.239505 2.757595 2.305536 3.483964 3.060072.835234.86745 2.512018 2.839184 2.512018 2.953716 0 .01538.09551.147556.212147.294546.116718.147071.245577.330808.286614.408269.04096.07754.147071.235944.235459.352176.08839.116151.200168.290013.24849.38601.08402.167063.218461.279572.336635.281838.03027 0 .107167-.08588.170544-.192479.0633-.106438.249462-.406326.413692-.666067.321095-.507665.370712-.76174.176371-.90104-.06734-.04816-.12214-.114452-.12214-.147233 0-.09195-1.080893-1.418661-2.155552-2.645814-.946368-1.08065-1.645864-1.764362-2.960758-2.893657-1.423355-1.22254-2.075339-1.708027-2.294043-1.708027zm-11.813243.866316c-.840901.0051-1.669904.151766-2.115891.442588-.346349.225827-.173943.389814.702976.669305.543846.173296 2.341718.175562 2.895519.0053.918281-.285318 1.09959-.462823.705324-.691563-.494228-.286614-1.34719-.427533-2.187928-.42381zm-2.301733 2.584299c-.06378 0-.09009.617584-.09009 2.112815v2.112815h.2752c.151361 0 .431337-.04759.622036-.105629.248166-.07552.689135-.105547 1.549867-.105547.860893 0 1.3017.03019 1.549867.105547.190698.0582.470269.105629.62163.105629h.275606v-2.112815c0-1.643597-.0225-2.112815-.101906-2.112815-.05633 0-.359218.05188-.67319.11518-.943696.190131-2.091284.20203-3.082169.03181-.47108-.08086-.897317-.147313-.946854-.147313zm2.315007 5.517941c-.184304-.005-.346834.0079-.471322.03497-.205996.04452-.470837.08126-.588445.08126-.259336 0-1.02318.292765-1.174298.449954-.08693.09033-.08895.134686-.0091.217894.149904.155974.717465.365208 1.224645.451411.246709.04193.522072.09098.611755.108785.273501.05407 1.197124-.01554 1.672008-.125783.516244-.119955.91739-.284105 1.063247-.435789.08216-.08547.07471-.130963-.0382-.238453-.281838-.268888-1.490132-.532271-2.289833-.544251zm-2.255434 2.608339c-.03165 0-.0548-.000162-.06637.007-.05342.02873-.08321.761578-.08321 2.055589v2.010343l.265246-.04023c.145775-.02202.595324-.09073.999141-.152251.773396-.117932 2.003463-.0977 2.732503.04484.201868.03942.486215.08903.63199.109837l.265246.0378v-2.010667c0-1.294011-.02971-2.026612-.08353-2.055265-.04573-.02445-.275444.0136-.509931.0841-.61467.185032-3.080956.183737-3.707604 0-.175886-.05213-.348615-.08612-.443479-.08936zm2.269599 5.330723c-.422596-.0051-.828679.03092-1.125087.107329-.999788.257312-1.385151.515597-1.074335.720217.264678.174186.87012.372168 1.328896.43506.685817.09405 1.973677.01724 2.471467-.147961 1.116992-.370145 1.003836-.665339-.377026-.982548-.362455-.08329-.801482-.127645-1.223915-.132097zm-17.904696.754051c-.106146.0019-.220727.0059-.338497.01117l-.856417.03707-.02251 1.265196c-.01248.695934-.0059 1.306152.01794 1.35585.05103.114209 1.801797.12983 1.882633.017.02903-.04047-.000146-.143428-.06448-.228822-.333236-.442507-.371942-1.27418-.09349-2.006538.08297-.218219.110841-.394104.06721-.424538-.02061-.01408-.135811-.02291-.304558-.02542-.08435-.0025-.181981-.0023-.288143 0zm35.666975 0c-.349586 0-.410293.02825-.428504.110161-.01489.0675.008.160831.05067.207291.04274.04662.125297.297703.18398.558092.119308.529033.01813 1.262282-.217895 1.573097-.211176.278357-.08936.318828.893756.297379l.910996-.01975.0225-1.297653c.01246-.713742-.0059-1.321532-.0408-1.35059-.03505-.02922-.448496-.06127-.919414-.07171-.189969-.005-.338335-.0069-.454891-.0063zm-9.206282.01975c-.388923-.005-.925808.0053-1.656709.0092l-2.589399.01837-.02291 1.297653c-.017.990966.000081 1.311009.08167 1.354474.117608.06451 4.876885.08135 5.06823.01805.130073-.04298.125217-.06079-.163421-.638547-.169086-.338335-.142133-1.147021.05043-1.513443.235863-.448983.398556-.538261-.768296-.546031zm-17.053636 0c-1.166205.0078-1.011606.09421-.773153.520291.190536.340683.219999 1.203357.05229 1.538859-.278762.55793-.291227.599048-.19086.634257.16852.05917 4.986318.0463 5.09567-.01368.07932-.04355.09867-.363832.08167-1.354879l-.0225-1.297653-2.589803-.01837c-.72823-.005-1.263982-.01133-1.652905-.0088zm-4.846856.02865c-1.037264 0-1.40401.09624-1.933367.514221-.566752.447606-.654331.885742-.26905 1.344923.62673.74709 2.03843 1.04892 3.251581.695125.674728-.196768 1.256535-.65943 1.345651-1.069803.09859-.454001-.201463-.859113-.889951-1.202628l-.561815-.280462zm26.74929.01174c-1.065513 0-1.492074.117689-1.992212.549512-.59071.510093-.560519 1.087286.0824 1.576011.680313.516973 1.964449.719084 2.85092.449225.613617-.186894.982224-.399932 1.257101-.727583.385039-.459019.292604-.920871-.270182-1.35237-.517945-.397017-.899098-.494795-1.928027-.494795zm-15.824054 1.77019v1.433959l.550725.715199c.302802.393456.565052.747089.582779.78586.01781.03893.136791.185923.26484.327085.128049.141081.233192.272853.233192.292441 0 .03788.526848.726692.672462.879429.133796.140272.235459.07382.610622-.399446.191427-.24161.348049-.456591.348049-.477555 0-.02088.105143-.153788.233192-.294869.128049-.141162.247114-.288395.26484-.327085.01781-.03893.279977-.392404.582779-.78586l.550726-.715215v-1.430074l-.387386.04978c-.213119.02728-.529924.09219-.703705.144804-.421867.127645-2.081491.126107-2.664269-.0049-.244929-.05399-.601638-.120117-.792255-.146909zm10.411175 1.832353c-1.246498.01627-2.50101.492124-3.437421 1.50462-1.953361 2.111925-1.218169 5.420002 1.478881 6.655493 1.251517.573308 3.031581.528871 4.29532-.107733 1.8003-.906788 2.762451-2.834489 2.322696-4.65292-.526119-2.175706-2.58187-3.426495-4.659476-3.39946zm-15.878123.0074c-3.193384 0-5.446875 2.884349-4.399573 5.63134.432875 1.135447 1.003917 1.772052 2.122285 2.365676.821879.436194 1.235004.535023 2.235684.536804.675132.0018 1.510448-.108138 1.85623-.242258 2.416345-.93714 3.525405-3.612012 2.413513-5.821633-.798083-1.58621-2.311122-2.469929-4.228139-2.469929zm-9.578078.492043c-.05213.97575-.07445 1.240105-.07976 3.251095l-.01327 5.063374.562519 1.127352c.649644 1.301701 2.03949 2.606558 3.346613 3.141662.477231.195393 1.448528.405193 2.158223.466547 2.564792.221698 3.213781 1.07903 3.213781 4.248212 0 1.678483.06321 2.170202.307173 2.396029 3.561019-.162369 14.848953.283133 16.173964-.04662.262736-.268726.324009-.734949.324009-2.486441 0-1.83211.05893-2.244183.388924-2.745048.557605-.846405 1.388388-1.241804 2.879816-1.370663 2.50271-.216357 4.658747-1.728829 5.527735-3.878067.397908-.98441.412073-1.265925.337687-6.546788-.02363-1.67654-.04476-1.743479-.07592-2.620642h-1.887231c.04759.884852.05917 1.042284.05917 3.105239 0 5.337684-.03837 5.577109-1.069723 6.709237-.745309.817994-1.822154 1.285512-3.379063 1.467145-1.772375.206724-2.53193.534132-3.498856 1.508101-.992828.999951-1.233062 1.740403-1.235005 3.797854l-.0023 1.582325h-1.758615v-1.418418c0-1.479044-.274149-2.017385-1.027309-2.017385-.688407 0-.926618.514949-.926618 2.002168v1.433635h-1.758615v-1.418418c0-1.479044-.274149-2.017385-1.02739-2.017385-.688407 0-.926618.514949-.926618 2.002168v1.433635h-1.758615v-1.433635c0-1.51652-.236996-2.002168-.977044-2.002168s-.977045.485648-.977045 2.002168v1.433635h-1.71434l-.08159-1.85356c-.09478-2.152314-.448739-2.973141-1.713206-3.974792-.869555-.688812-1.904229-1.042364-3.059588-1.045116-1.658409-.0038-3.634757-1.333834-4.206527-2.830847-.291146-.762387-.34392-5.42761-.164473-8.465586zm17.546359 5.7224c-.292846-.0028-.581888.07357-.678613.186812-.110485.129426-.651336 1.491994-1.202142 3.027939-.929856 2.592636-.980687 2.822429-.706376 3.209815.280785.396694.408835.417091 2.596682.417091 2.474057 0 2.780178-.09923 2.756543-.89497-.0076-.253589-.469137-1.681882-1.025852-3.173795-.99388-2.663702-1.0231-2.7134-1.615106-2.766903-.04144-.0038-.08337-.0056-.125136-.0059z"/>
</svg>
